<svg width="680" height="516" viewBox="0 0 680 516" fill="none" xmlns="http://www.w3.org/2000/svg">
<g clip-path="url(#clip0_1_337)">
<path opacity="0.115" fill-rule="evenodd" clip-rule="evenodd" d="M-0.0652466 0C226.601 0 453.269 0 679.935 0C679.935 166 679.935 332 679.935 498C453.269 498 226.601 498 -0.0652466 498C-0.0652466 332 -0.0652466 166 -0.0652466 0Z" fill="#FEFEFE"/>
<path fill-rule="evenodd" clip-rule="evenodd" d="M345.744 0.167078C346.265 0.0516778 346.634 0.225692 346.854 0.689251C347.384 2.05317 347.949 3.4022 348.551 4.73609C348.834 5.58188 348.551 5.95171 347.702 5.84571C346.967 4.26718 346.249 2.67886 345.548 1.08088C345.44 0.7322 345.505 0.427643 345.744 0.167078Z" fill="#4CAF50"/>
<path fill-rule="evenodd" clip-rule="evenodd" d="M356.449 4.47406C357.146 4.40944 357.472 4.714 357.428 5.38786C355.885 6.19201 354.296 6.91 352.663 7.54183C352.098 7.71623 351.749 7.52042 351.618 6.95438C351.622 6.75478 351.71 6.60244 351.879 6.49748C353.415 5.81644 354.937 5.14192 356.449 4.47406Z" fill="#4CAF50"/>
<path fill-rule="evenodd" clip-rule="evenodd" d="M323.552 5.64875C324.64 5.62708 325.728 5.64875 326.815 5.71402C327.145 6.05173 327.145 6.39976 326.815 6.75837C324.31 6.90875 321.808 7.10457 319.309 7.34581C318.372 7.49828 318.067 7.15013 318.395 6.30146C318.535 6.21126 318.686 6.14599 318.852 6.10565C320.441 5.98437 322.007 5.83203 323.552 5.64875Z" fill="#090909"/>
<path fill-rule="evenodd" clip-rule="evenodd" d="M310.758 7.0845C311.585 6.89247 311.998 7.19703 311.998 7.9983C311.933 8.15065 311.825 8.25939 311.672 8.32466C309.12 8.74632 306.574 9.20322 304.035 9.69537C303.415 9.68414 303.197 9.37945 303.383 8.78156C303.5 8.62478 303.653 8.51591 303.84 8.45521C306.178 8.0517 308.484 7.59479 310.758 7.0845Z" fill="#080808"/>
<path fill-rule="evenodd" clip-rule="evenodd" d="M345.874 8.91163C346.854 8.82077 347.115 9.1906 346.658 10.0213C345.15 10.7099 343.627 11.3626 342.089 11.9794C341.531 12.1769 341.227 11.9811 341.175 11.392C341.193 11.1822 341.279 11.008 341.436 10.8698C342.95 10.2647 344.429 9.612 345.874 8.91163Z" fill="#4CAF50"/>
<path fill-rule="evenodd" clip-rule="evenodd" d="M296.137 10.0863C296.985 9.97299 297.311 10.3211 297.117 11.1306C297.019 11.2124 296.91 11.2776 296.79 11.3265C294.164 11.9832 291.553 12.6359 288.958 13.2846C288.554 12.747 288.64 12.3119 289.219 11.9792C291.532 11.3249 293.839 10.694 296.137 10.0863Z" fill="#0A0A0A"/>
<path fill-rule="evenodd" clip-rule="evenodd" d="M350.182 10.6085C350.745 10.5087 351.114 10.7263 351.292 11.2612C351.857 12.6101 352.424 13.9592 352.989 15.3081C353.207 16.0904 352.924 16.4168 352.14 16.2872C351.348 14.7385 350.63 13.1502 349.987 11.5223C349.878 11.1736 349.943 10.8691 350.182 10.6085Z" fill="#4CAF50"/>
<path fill-rule="evenodd" clip-rule="evenodd" d="M368.981 12.0442C371.637 12.5887 374.248 13.3067 376.813 14.1982C377.38 14.7374 377.294 15.1509 376.552 15.4383C374.052 14.6266 371.528 13.9086 368.981 13.2844C368.469 12.8718 368.469 12.4584 368.981 12.0442Z" fill="#090909"/>
<path fill-rule="evenodd" clip-rule="evenodd" d="M281.647 14.3934C282.698 14.331 282.938 14.7226 282.365 15.5683C279.985 16.4343 277.613 17.3263 275.25 18.2444C274.576 18.3532 274.294 18.0704 274.402 17.3959C274.608 17.1947 274.847 17.0424 275.12 16.939C277.316 16.0992 279.491 15.2507 281.647 14.3934Z" fill="#080808"/>
<path fill-rule="evenodd" clip-rule="evenodd" d="M383.34 16.8733C385.932 17.8421 388.455 18.9951 390.912 20.3327C391.244 21.1315 390.982 21.4796 390.129 21.377C387.855 20.1963 385.548 19.0867 383.21 18.0482C382.852 17.6089 382.895 17.2173 383.34 16.8733Z" fill="#070707"/>
<path fill-rule="evenodd" clip-rule="evenodd" d="M267.679 20.1362C268.773 20.1067 268.99 20.5202 268.332 21.3764C266.119 22.3954 263.944 23.4832 261.805 24.64C260.806 24.8163 260.545 24.4682 261.021 23.5956C263.248 22.4386 265.468 21.2855 267.679 20.1362Z" fill="#060606"/>
<path fill-rule="evenodd" clip-rule="evenodd" d="M396.786 23.7907C397.168 23.7855 397.516 23.8942 397.831 24.1171C399.932 25.3927 402 26.72 404.032 28.0986C404.161 28.8822 403.834 29.1649 403.052 28.9472C401.008 27.5763 398.919 26.2709 396.786 25.0309C396.277 24.6121 396.277 24.1988 396.786 23.7907Z" fill="#070707"/>
<path fill-rule="evenodd" clip-rule="evenodd" d="M254.494 27.1843C255.387 27.2517 255.605 27.665 255.147 28.4245C253.014 29.6645 250.925 30.97 248.881 32.3408C248.128 32.6746 247.758 32.4352 247.771 31.6228C247.88 31.5141 247.989 31.4052 248.098 31.2964C250.238 29.9226 252.37 28.5519 254.494 27.1843Z" fill="#090909"/>
<path fill-rule="evenodd" clip-rule="evenodd" d="M409.318 32.144C409.583 32.1229 409.845 32.1447 410.102 32.2093C412.206 33.7476 414.273 35.3358 416.303 36.9741C416.432 37.6712 416.148 37.9976 415.454 37.9532C413.489 36.3802 411.488 34.8571 409.449 33.3842C408.987 33.0092 408.943 32.5957 409.318 32.144Z" fill="#090909"/>
<path fill-rule="evenodd" clip-rule="evenodd" d="M241.962 35.5374C242.995 35.7294 243.125 36.1863 242.354 36.9081C240.459 38.3124 238.587 39.7487 236.74 41.216C235.91 41.6376 235.541 41.3974 235.631 40.498C237.714 38.7947 239.825 37.1411 241.962 35.5374Z" fill="#080808"/>
<path fill-rule="evenodd" clip-rule="evenodd" d="M421.067 41.6719C421.332 41.651 421.593 41.6719 421.851 41.7371C423.823 43.4472 425.716 45.254 427.529 47.1547C427.652 47.9445 427.326 48.2277 426.55 48.0032C424.61 46.1939 422.717 44.3441 420.872 42.4551C420.774 42.1496 420.839 41.8886 421.067 41.6719Z" fill="#090909"/>
<path fill-rule="evenodd" clip-rule="evenodd" d="M510.228 308.973C510.379 308.301 510.401 307.605 510.294 306.885C510.24 307.068 510.175 307.241 510.098 307.407C504.838 322.829 500.247 338.448 496.326 354.263C495.322 357.475 494.168 360.63 492.866 363.726C493.04 403.583 493.04 443.434 492.866 483.28C465.831 488.236 438.765 493.044 411.668 497.703C384.945 492.982 358.226 488.218 331.515 483.411C331.417 483.323 331.372 483.215 331.384 483.085C331.384 481.431 331.384 479.779 331.384 478.125C331.216 478.094 331.085 478.138 330.993 478.255C328.42 478.681 325.853 479.138 323.29 479.626C322.642 479.767 321.989 479.81 321.332 479.756C299.833 475.927 278.337 472.099 256.844 468.271C256.687 468.153 256.579 468.001 256.518 467.814C256.43 435.576 256.43 403.338 256.518 371.1C256.626 370.992 256.736 370.882 256.844 370.774C268.628 368.647 280.42 366.581 292.221 364.574C292.352 364.574 292.482 364.574 292.613 364.574C292.613 341.733 292.613 318.893 292.613 296.052C292.622 295.803 292.752 295.65 293.004 295.595C309.495 292.691 325.987 289.798 342.48 286.916C348.43 288.05 354.392 289.072 360.365 289.983C358.07 287.2 356.481 284.046 355.6 280.52C354.959 276.525 356.003 273.045 358.733 270.079C360.708 268.125 362.862 266.406 365.195 264.923C368.475 263.077 371.653 261.076 374.725 258.919C375.877 258.029 376.726 256.92 377.27 255.591C377.476 254.555 377.303 253.597 376.748 252.72C376.144 251.985 375.426 251.398 374.594 250.958C371.683 249.708 368.723 248.577 365.717 247.564C358.264 244.886 351.65 240.883 345.874 235.557C341.68 231.802 338.178 227.517 335.366 222.701C333.898 219.986 333.05 217.092 332.82 214.021C332.956 209.966 334.565 206.616 337.65 203.971C340.824 201.579 344.262 199.621 347.963 198.098C352.359 196.465 356.623 194.552 360.756 192.355C362.063 191.572 363.216 190.593 364.216 189.419C365.453 187.773 365.802 185.945 365.26 183.937C364.443 182.292 363.29 180.922 361.801 179.825C357.888 177.07 354.254 173.96 350.9 170.493C345.267 163.794 341.698 156.093 340.196 147.392C338.381 137.688 338.903 128.117 341.762 118.678C343.333 113.812 345.769 109.46 349.073 105.626C353.16 101.265 358.186 98.6771 364.151 97.86C369.264 97.3445 374.18 96.0837 378.902 94.075C385.181 91.0587 390.294 86.6863 394.241 80.9579C395.927 77.9769 397.581 74.9749 399.201 71.9521C403.421 65.297 408.795 59.75 415.323 55.3111C424.8 48.7917 435.243 44.6595 446.654 42.9118C452.99 42.0308 459.257 42.378 465.452 43.956C474.343 46.5402 481.023 51.8693 485.491 59.9445C489.842 67.5994 491.365 75.7789 490.06 84.4819C489.016 89.6556 486.883 94.3112 483.663 98.4473C480.224 102.67 476.286 106.345 471.849 109.476C460.967 116.788 449.393 122.879 437.124 127.749C430.357 130.149 423.569 132.498 416.759 134.797C414.91 135.46 413.17 136.33 411.538 137.407C409.906 138.626 409.818 139.931 411.277 141.323C414.214 142.987 417.129 144.683 420.023 146.413C425.638 150.287 430.272 155.094 433.926 160.835C437.406 167.24 437.08 173.439 432.947 179.434C434.513 179.521 436.08 179.521 437.646 179.434C439.227 176.01 441.62 173.313 444.826 171.342C448.044 169.691 451.177 167.907 454.225 165.991C459.958 161.557 463.853 155.836 465.909 148.827C466.426 146.934 466.861 145.02 467.214 143.085C467.814 138.892 468.509 134.716 469.303 130.555C471.017 123.1 474.911 117.074 480.987 112.478C491.746 104.741 503.756 101.478 517.017 102.689C525.861 103.642 533.41 107.231 539.666 113.457C543.252 117.464 545.298 122.162 545.802 127.553C546.153 131.962 545.804 136.312 544.757 140.605C544.138 143.077 543.4 145.514 542.538 147.914C542.436 148.102 542.458 148.277 542.603 148.436C551.155 153.658 560.293 157.553 570.017 160.117C572.774 161.092 575.059 162.724 576.871 165.012C580.689 170.111 582.865 175.854 583.398 182.24C584.288 193.818 581.547 204.433 575.174 214.086C570.799 220.287 565.165 224.964 558.268 228.117C557.848 228.814 557.608 229.576 557.55 230.401C557.398 230.728 557.159 230.966 556.832 231.119C555.31 231.643 553.744 231.838 552.133 231.706C551.602 233.583 550.927 235.411 550.109 237.188C549.982 237.546 549.916 237.915 549.914 238.298C551.489 254.307 553.056 270.318 554.613 286.328C554.511 288.323 553.467 289.388 551.48 289.526C550.788 296.845 549.722 304.111 548.282 311.323C543.853 333.87 539.261 356.384 534.51 378.866C531.634 392.646 529.219 406.503 527.264 420.436C526.737 424.29 526.476 428.161 526.481 432.052C525.206 432.701 523.878 433.223 522.5 433.618C522.37 433.914 522.262 434.22 522.173 434.532C521.736 437.342 521.279 440.148 520.802 442.95C521.468 443.574 522.1 444.248 522.695 444.973C526.965 452.902 530.882 460.994 534.444 469.25C535.096 472.146 534.03 474.081 531.246 475.058C529.245 475.145 527.242 475.145 525.241 475.058C523.284 474.972 521.413 474.536 519.628 473.753C517.753 472.402 516.034 470.856 514.471 469.119C512.072 466.33 509.722 463.502 507.422 460.635C506.991 459.999 506.687 459.302 506.508 458.547C506.36 456.378 506.295 454.202 506.312 452.021C506.304 449.408 506.37 446.798 506.508 444.19C507.32 443.013 508.43 442.316 509.837 442.102C509.755 439.709 509.689 437.317 509.641 434.923C508.48 434.806 507.326 434.61 506.182 434.336C506.005 434.131 505.919 433.891 505.921 433.618C507.376 392.072 508.812 350.522 510.228 308.973Z" fill="#010101"/>
<path fill-rule="evenodd" clip-rule="evenodd" d="M449.917 43.76C455.994 43.3371 461.912 44.0981 467.671 46.0441C475.048 48.8946 480.639 53.789 484.446 60.7274C488.832 68.5454 490.181 76.8555 488.493 85.6564C487.035 91.0964 484.424 95.8812 480.66 100.013C476.437 104.413 471.759 108.22 466.627 111.434C456.661 117.656 446.173 122.876 435.166 127.096C428.413 129.419 421.668 131.768 414.932 134.144C412.831 134.855 411.026 136.009 409.514 137.603C408.538 139.375 408.821 140.919 410.363 142.236C413.018 143.868 415.716 145.434 418.456 146.935C424.228 150.747 428.993 155.554 432.751 161.357C436.189 167.679 435.733 173.705 431.38 179.434C422.677 179.477 413.975 179.521 405.272 179.564C405.193 179.703 405.15 179.855 405.141 180.021C405.507 181.018 405.964 181.976 406.512 182.892C413.159 194.836 419.774 206.8 426.354 218.785C426.617 222.443 427.443 225.967 428.835 229.357C430.268 232.617 432.64 234.901 435.949 236.209C436.298 236.774 436.645 237.341 436.994 237.906C437.255 238.014 437.516 238.124 437.777 238.232C441.089 242.064 445.223 244.566 450.179 245.737C446.747 248.821 443.091 251.606 439.213 254.09C436.819 255.787 434.577 257.679 432.49 259.768C430.731 261.659 429.6 263.878 429.096 266.424C428.833 269.074 429.486 271.467 431.054 273.603C431.994 274.76 433.06 275.782 434.252 276.67C437.037 278.671 439.823 280.673 442.607 282.674C450.197 289.034 453.047 297.104 451.158 306.885C450.105 311.649 448.408 316.174 446.066 320.459C442.505 326.895 438.045 332.658 432.686 337.752C427.85 342.104 422.845 346.236 417.673 350.152C417.282 350.239 416.89 350.239 416.498 350.152C415.227 349.851 413.942 349.613 412.647 349.434C410.762 349.814 408.869 350.095 406.969 350.282C412.829 345.6 417.594 340.009 421.263 333.511C426.375 324.814 429.051 315.417 429.292 305.319C429.196 300.47 428.305 295.771 426.615 291.223C424.437 285.908 421.783 280.861 418.652 276.083C414.867 270.383 411.081 264.684 407.295 258.985C395.648 240.608 386.64 220.987 380.273 200.121C377.188 189.486 375.556 178.631 375.377 167.557C375.476 151.991 379.762 137.699 388.236 124.681C394.478 115.305 401.94 106.974 410.624 99.6871C419.673 92.181 429.376 85.612 439.735 79.9788C440.189 79.6251 440.232 79.2336 439.866 78.8042C439.648 78.7167 439.431 78.7167 439.213 78.8042C424.784 86.5282 411.75 96.1644 400.115 107.714C392.236 115.77 385.882 124.906 381.056 135.123C374.837 149.31 372.748 164.103 374.79 179.499C376.394 191.397 379.309 202.97 383.536 214.217C389.475 229.789 396.828 244.624 405.598 258.724C409.351 264.446 413.137 270.145 416.955 275.821C419.812 280.139 422.336 284.664 424.527 289.395C427.993 297.515 428.862 305.912 427.138 314.585C424.801 325.392 420.014 334.92 412.778 343.169C410.073 346.049 407.136 348.638 403.966 350.935C399.968 351.651 395.965 352.326 391.956 352.958C391.978 333.945 391.956 314.934 391.891 295.921C391.783 295.813 391.673 295.703 391.565 295.595C381.889 293.982 372.229 292.285 362.584 290.505C359.904 287.695 358.011 284.41 356.905 280.651C356.234 277.289 356.973 274.287 359.125 271.645C361.45 269.147 364.081 267.036 367.022 265.315C370.334 263.529 373.467 261.485 376.422 259.18C378.297 257.555 378.972 255.532 378.445 253.111C377.732 251.612 376.623 250.502 375.116 249.783C372.215 248.507 369.256 247.376 366.239 246.39C358.806 243.743 352.236 239.74 346.527 234.382C342.556 230.807 339.227 226.739 336.541 222.178C332.004 213.76 333.853 207.169 342.089 202.405C343.418 201.675 344.766 200.98 346.136 200.317C349.65 198.812 353.174 197.333 356.71 195.879C359.424 194.763 361.904 193.284 364.15 191.441C366.345 189.341 367.149 186.796 366.566 183.806C365.675 181.872 364.392 180.24 362.715 178.912C358.894 176.138 355.304 173.071 351.945 169.71C346.788 163.698 343.394 156.781 341.762 148.958C339.518 138.64 339.997 128.46 343.198 118.416C345.145 112.517 348.474 107.58 353.185 103.603C356.268 101.356 359.705 99.9207 363.498 99.2955C366.242 98.8309 368.983 98.3519 371.722 97.8598C380.419 95.7663 387.621 91.3065 393.327 84.4817C394.337 83.2013 395.251 81.8518 396.068 80.4356C397.969 76.588 400.102 72.8904 402.465 69.3416C407.12 63.2503 412.713 58.2254 419.24 54.2667C428.674 48.4326 438.9 44.9308 449.917 43.76Z" fill="#FEFEFE"/>
<path fill-rule="evenodd" clip-rule="evenodd" d="M229.952 45.0653C230.735 44.9126 231.062 45.218 230.931 45.9791C228.999 47.6931 227.106 49.4555 225.252 51.2661C224.45 51.4919 224.123 51.21 224.273 50.4176C226.153 48.603 228.046 46.8185 229.952 45.0653Z" fill="#070707"/>
<path fill-rule="evenodd" clip-rule="evenodd" d="M431.772 52.3743C432.34 52.4813 432.797 52.7855 433.143 53.2881C434.585 55.0347 435.978 56.8193 437.32 58.6403C437.449 59.4236 437.123 59.7069 436.341 59.4889C434.831 57.4498 433.243 55.4694 431.576 53.5492C431.511 53.3533 431.446 53.1575 431.38 52.9617C431.486 52.7476 431.617 52.5518 431.772 52.3743Z" fill="#080808"/>
<path d="M491 185H529L531 213.4L520 208.6L526.5 211L524 215L516.5 213.4V219L496.5 212.2L491 185Z" fill="#4CAF50"/>
<path fill-rule="evenodd" clip-rule="evenodd" d="M259.977 54.854C261.502 54.8618 263.025 54.9271 264.546 55.0498C286.001 56.8026 307.453 58.5438 328.904 60.2705C332.291 60.5172 334.663 62.1917 336.018 65.2955C336.298 66.1425 336.449 67.0131 336.475 67.9058C335.293 82.5682 334.097 97.2294 332.885 111.89C331.953 116.164 329.298 118.339 324.922 118.416C317.891 117.927 310.864 117.383 303.84 116.785C301.11 116.292 298.87 117.097 297.117 119.199C294.7 123.334 292.35 127.511 290.067 131.729C289.36 132.488 288.837 132.357 288.501 131.338C286.43 126.545 284.254 121.802 281.974 117.111C280.699 115.485 279.025 114.637 276.948 114.566C270.026 114.027 263.107 113.462 256.191 112.869C252.327 111.701 250.325 109.091 250.186 105.038C251.383 90.4424 252.579 75.8453 253.776 61.2494C254.503 57.8037 256.57 55.6724 259.977 54.854Z" fill="#090909"/>
<path fill-rule="evenodd" clip-rule="evenodd" d="M219.117 55.3761C219.856 55.3526 220.138 55.7012 219.965 56.4205C218.155 58.2742 216.392 60.1671 214.678 62.0991C213.599 62.1983 213.36 61.7845 213.96 60.8589C215.706 59.0483 217.425 57.2207 219.117 55.3761Z" fill="#090909"/>
<path fill-rule="evenodd" clip-rule="evenodd" d="M259.977 56.1592C260.978 56.137 261.979 56.1592 262.979 56.2245C285.3 58.0583 307.623 59.8855 329.948 61.7062C333.178 62.5207 334.918 64.5868 335.17 67.9059C333.983 82.7902 332.743 97.6692 331.449 112.543C330.346 115.683 328.127 117.207 324.792 117.111C317.934 116.627 311.081 116.084 304.231 115.48C300.921 114.886 298.2 115.865 296.072 118.416C293.853 122.332 291.634 126.247 289.414 130.163C287.456 125.813 285.498 121.461 283.54 117.111C282.24 114.988 280.347 113.748 277.861 113.391C270.943 112.818 264.024 112.253 257.105 111.695C253.503 111.008 251.633 108.832 251.492 105.169C252.656 90.526 253.852 75.887 255.082 61.2494C255.81 58.673 257.442 56.9763 259.977 56.1592Z" fill="#FEFEFE"/>
<path fill-rule="evenodd" clip-rule="evenodd" d="M440.518 64.643C440.866 64.5987 441.17 64.6861 441.432 64.9041C442.815 67.1469 443.989 69.4966 444.957 71.9535C444.914 72.5396 444.608 72.7354 444.043 72.5409C442.888 70.165 441.648 67.8374 440.322 65.5569C440.243 65.2214 440.308 64.9172 440.518 64.643Z" fill="#070707"/>
<path fill-rule="evenodd" clip-rule="evenodd" d="M209.065 66.6008C209.355 66.559 209.595 66.6452 209.783 66.8619C209.881 67.2274 209.838 67.576 209.653 67.9062C208.064 69.8422 206.476 71.7794 204.888 73.7154C204.148 73.889 203.821 73.6057 203.909 72.8669C205.564 70.7116 207.283 68.6229 209.065 66.6008Z" fill="#090909"/>
<path fill-rule="evenodd" clip-rule="evenodd" d="M284.519 74.8235C286.665 74.6185 288.623 75.1185 290.394 76.3247C291.251 77.0949 292.014 77.9435 292.678 78.8703C295.965 75.5062 299.598 75.0924 303.578 77.6302C306.778 80.6588 307.583 84.2487 305.993 88.4C305.06 90.336 303.777 92.0108 302.142 93.4259C298.667 96.1647 295.098 98.7756 291.438 101.259C290.784 101.405 290.174 101.319 289.61 100.997C287.283 98.5824 284.954 96.1673 282.626 93.7523C281.531 92.5617 280.53 91.2994 279.624 89.9665C277.244 86.4079 276.983 82.7083 278.84 78.8703C280.18 76.7333 282.073 75.3835 284.519 74.8235Z" fill="#4CAF50"/>
<path fill-rule="evenodd" clip-rule="evenodd" d="M446.654 78.478C446.919 78.4571 447.18 78.478 447.437 78.5433C447.911 79.88 448.28 81.2507 448.547 82.6554C448.758 83.7363 448.911 84.825 449.004 85.919C450.26 85.6722 451.521 85.4334 452.789 85.201C453.616 85.1135 454.443 85.1135 455.27 85.201C455.618 85.5495 455.618 85.8968 455.27 86.2453C452.694 86.355 450.214 86.8772 447.829 87.8119C447.046 87.9411 446.762 87.6147 446.98 86.8328C447.198 86.7022 447.415 86.5717 447.633 86.4411C447.688 85.1631 447.557 83.9008 447.241 82.6554C446.979 81.4753 446.696 80.3004 446.393 79.1307C446.385 78.8683 446.471 78.6503 446.654 78.478Z" fill="#080808"/>
<path fill-rule="evenodd" clip-rule="evenodd" d="M199.666 78.6086C200.449 78.5433 200.732 78.8918 200.514 79.6529C199.028 81.7063 197.592 83.795 196.207 85.919C195.213 86.1879 194.909 85.8393 195.293 84.8746C196.72 82.7598 198.178 80.6711 199.666 78.6086Z" fill="#070707"/>
<path fill-rule="evenodd" clip-rule="evenodd" d="M182.043 303.622C181.969 303.322 181.904 303.018 181.847 302.708C181.74 303.384 181.762 304.037 181.912 304.666C182.447 320.003 183.013 335.339 183.609 350.674C183.357 361.773 182.335 372.802 180.541 383.76C179.712 388.994 178.799 394.215 177.8 399.422C177.058 401.53 175.557 402.531 173.296 402.424C173.008 404.157 172.812 405.897 172.709 407.645C173.915 409.054 174.959 410.576 175.842 412.213C177.993 416.578 179.733 421.103 181.064 425.787C181.78 428.259 182.476 430.739 183.152 433.226C183.553 436.54 182.139 438.563 178.91 439.296C172.878 440.25 166.83 440.38 160.764 439.687C157.759 438.719 156.519 436.653 157.044 433.487C157.78 429.812 158.388 426.115 158.871 422.393C159.238 417.432 159.63 412.473 160.046 407.514C160.414 407.003 160.806 407.003 161.221 407.514C161.383 405.208 161.405 402.902 161.286 400.597C160.566 400.027 160.109 399.288 159.916 398.378C159.925 383.716 159.794 369.053 159.524 354.393C159.308 350.362 158.656 346.403 157.566 342.516C154.99 335.399 152.945 328.133 151.43 320.72C149.546 306.472 146.544 292.464 142.423 278.693C138.955 318.292 135.388 357.883 131.718 397.464C131.385 398.907 130.493 399.734 129.042 399.944C128.819 401.723 128.645 403.506 128.52 405.296C128.889 405.241 129.171 405.371 129.368 405.687C130.303 411.662 130.607 417.666 130.282 423.699C129.714 425.572 128.474 426.724 126.562 427.157C117.928 428.879 109.268 430.445 100.584 431.856C96.2752 432.087 92.1848 431.261 88.3125 429.376C85.2863 427.87 84.5683 425.629 86.1586 422.654C87.5081 420.608 89.1399 418.803 91.0539 417.238C92.1418 416.412 93.2297 415.584 94.3175 414.758C96.4506 413.475 98.5393 412.126 100.584 410.712C103.978 407.841 107.372 404.969 110.766 402.098C111.448 401.604 112.188 401.213 112.985 400.923C113.808 400.812 114.547 401.008 115.204 401.51C115.212 401.581 115.256 401.625 115.335 401.641C115.507 400.707 115.507 399.793 115.335 398.9C114.512 398.432 113.968 397.736 113.703 396.812C111.001 381.724 109.043 366.539 107.829 351.261C107.548 346.391 107.461 341.519 107.568 336.643C108.228 328.168 108.75 319.685 109.134 311.192C109.821 294.577 110.343 277.957 110.701 261.334C108.377 259.287 107.181 256.699 107.111 253.568C107.121 252.845 107.187 252.127 107.307 251.415C108.328 247.936 109.155 244.412 109.787 240.843C110.172 237.286 110.346 233.719 110.309 230.14C110.384 225.984 110.841 221.873 111.68 217.806C111.658 217.741 111.636 217.676 111.615 217.61C106.63 219.688 102.736 218.448 99.9309 213.891C97.6678 213.368 95.9055 212.129 94.6439 210.171C93.1758 207.726 92.0878 205.116 91.3803 202.34C89.6327 195.533 88.8495 188.616 89.0305 181.587C90.0806 168.935 95.5851 158.732 105.544 150.981C107.153 149.785 108.806 148.654 110.505 147.587C113.353 142.565 117.53 139.171 123.037 137.407C124.588 137.017 126.155 136.886 127.737 137.015C130.691 134.449 134.042 132.557 137.788 131.338C137.429 128.235 136.973 125.147 136.418 122.071C135.368 122.166 134.497 121.818 133.807 121.027C133.401 120.33 133.095 119.59 132.893 118.808C132.163 115.356 130.944 112.093 129.238 109.019C127.567 106.521 125.565 104.302 123.233 102.363C121.693 100.508 121.301 98.4198 122.058 96.0978C123.17 92.9641 125.324 90.9411 128.52 90.0287C129.341 89.9021 130.168 89.8369 131 89.833C132.401 89.9439 133.794 90.0953 135.178 90.2898C135.253 88.8789 135.363 87.4641 135.504 86.0479C136.185 84.5457 137.338 84.0445 138.963 84.547C142.462 85.5729 146.03 86.2033 149.668 86.4395C151.682 86.5361 153.379 85.8613 154.759 84.4165C156.906 83.636 158.865 83.9844 160.634 85.4606C164.075 89.1686 165.533 93.541 165.007 98.5777C164.623 99.3047 164.035 99.8046 163.244 100.079C161.551 100.485 159.854 100.876 158.153 101.253C157.903 101.3 157.685 101.409 157.5 101.58C158.862 103.736 160.319 105.824 161.874 107.844C162.16 109.626 161.397 110.583 159.589 110.716C159.85 111.453 160.111 112.193 160.372 112.935C160.322 113.363 160.148 113.732 159.85 114.044C161.345 116.962 162.585 119.985 163.571 123.115C163.878 124.458 163.507 125.568 162.461 126.443C161.017 127.208 159.538 127.905 158.023 128.532C161.315 129.35 164.187 130.916 166.638 133.23C167.867 133.683 169.086 134.162 170.294 134.666C174.868 134.55 178.632 136.224 181.586 139.691C182.466 140.798 183.249 141.972 183.935 143.215C185.088 144.498 186.089 145.891 186.938 147.392C188.45 149.425 190.059 151.383 191.768 153.265C193.632 143.058 197.722 133.879 204.039 125.725C209.478 119.359 216.331 116.989 224.6 118.612C234.028 121.087 239.359 127.156 240.591 136.82C240.847 140.458 240.325 143.982 239.025 147.392C238.559 148.455 237.992 149.456 237.328 150.393C236.234 151.705 235.189 153.053 234.195 154.439C232.825 156.739 232.303 159.219 232.628 161.879C233.115 165.035 234.094 168.015 235.565 170.82C237.368 172.078 239.151 173.361 240.918 174.67C241.189 174.345 241.428 173.996 241.636 173.626C242.361 172.788 243.21 172.635 244.181 173.169C246.916 175.424 249.331 177.969 251.426 180.804C252.774 183.057 253.512 185.494 253.646 188.113C253.537 188.222 253.428 188.331 253.319 188.439C252.272 188.462 251.228 188.527 250.186 188.635C252.46 192.965 254.484 197.402 256.256 201.948C257.916 209.765 259.527 217.596 261.087 225.441C262.831 233.937 264.962 242.334 267.483 250.631C268.18 252.678 268.986 254.679 269.898 256.635C269.87 256.823 269.804 256.997 269.702 257.157C269.426 257.304 269.185 257.499 268.984 257.745C269.251 258.054 269.555 258.315 269.898 258.528C272.043 259.448 274.087 260.535 276.034 261.791C277.337 262.938 278.229 264.352 278.71 266.033C279.256 268.779 279.821 271.52 280.407 274.255C280.775 276.584 279.796 277.649 277.47 277.453C276.982 277.226 276.568 276.9 276.23 276.474C275.479 275.104 274.696 273.755 273.88 272.428C273.493 271.91 273.057 271.432 272.574 270.992C272.585 272.384 272.585 273.776 272.574 275.169C272.164 276.016 271.534 276.255 270.681 275.887C268.244 272.951 266.394 269.666 265.133 266.033C264.876 265.09 264.701 264.134 264.611 263.161C264.465 262.58 264.204 262.058 263.828 261.595C263.413 262.031 262.912 262.184 262.327 262.052C261.363 261.481 260.515 260.764 259.781 259.898C255.216 254.465 250.951 248.808 246.988 242.931C250.275 259.236 253.322 275.594 256.126 292.006C257.186 298.191 257.969 304.413 258.476 310.67C258.563 312.497 258.563 314.324 258.476 316.152C258.439 317.111 258.156 317.981 257.627 318.762C257.203 318.962 256.767 319.135 256.322 319.284C256.414 345.69 249.605 370.14 235.892 392.635C235.065 393.853 234.238 395.072 233.411 396.29C233.15 396.377 232.889 396.463 232.628 396.551C231.421 399.182 230.18 401.792 228.908 404.382C230.055 405.117 230.904 406.118 231.453 407.384C233.764 413.839 236.114 420.278 238.503 426.701C239.167 429.616 238.057 431.421 235.174 432.117C231.257 432.511 227.341 432.532 223.425 432.182C222.942 433.905 221.81 434.927 220.031 435.249C213.808 435.337 207.586 435.337 201.363 435.249C199.645 434.751 198.535 433.641 198.034 431.921C197.978 425.714 198.935 419.666 200.906 413.779C201.085 413.231 201.454 412.883 202.016 412.735C202.059 412.627 202.103 412.517 202.146 412.409C201.547 407.212 200.96 402.013 200.384 396.812C194.041 371.669 189.733 346.173 187.46 320.328C186.948 320.002 186.557 319.567 186.285 319.023C184.952 315.767 183.908 312.416 183.152 308.973C182.754 307.195 182.385 305.411 182.043 303.622Z" fill="#010101"/>
<path fill-rule="evenodd" clip-rule="evenodd" d="M462.058 85.7869C464.648 86.0532 467.216 86.467 469.76 87.027C470.363 87.168 470.559 87.5375 470.347 88.1366C470.222 88.3181 470.049 88.4056 469.825 88.3977C467.305 87.8077 464.759 87.3508 462.189 87.027C461.726 86.6524 461.682 86.2385 462.058 85.7869Z" fill="#090909"/>
<path fill-rule="evenodd" clip-rule="evenodd" d="M476.809 89.0498C479.531 89.8057 482.164 90.8056 484.707 92.0523C484.932 92.8277 484.648 93.1541 483.859 93.0314C481.651 92.0144 479.389 91.1437 477.07 90.4205C476.486 90.0654 476.398 89.6085 476.809 89.0498Z" fill="#090909"/>
<path fill-rule="evenodd" clip-rule="evenodd" d="M441.041 90.7466C441.67 90.7453 441.953 91.0494 441.889 91.6604C440.065 93.5219 438.738 95.6981 437.908 98.1876C437.341 98.6001 436.949 98.4695 436.733 97.7959C437.643 95.1028 439.079 92.753 441.041 90.7466Z" fill="#090909"/>
<path fill-rule="evenodd" clip-rule="evenodd" d="M191.181 91.2688C192.044 91.0403 192.37 91.3445 192.16 92.1826C191.811 92.7922 191.464 93.4006 191.115 94.0102C190.31 94.3353 189.963 94.0742 190.071 93.2269C190.444 92.5677 190.814 91.915 191.181 91.2688Z" fill="#090909"/>
<path fill-rule="evenodd" clip-rule="evenodd" d="M448.351 93.3569C448.683 93.3047 448.966 93.3922 449.199 93.618C449.331 96.3803 449.158 99.1217 448.677 101.842C448.397 102.096 448.07 102.161 447.698 102.038C447.517 101.913 447.429 101.739 447.437 101.516C447.839 98.9429 448.035 96.3542 448.025 93.7486C448.16 93.635 448.27 93.5044 448.351 93.3569Z" fill="#0A0A0A"/>
<path fill-rule="evenodd" clip-rule="evenodd" d="M490.516 95.3147C490.738 95.2939 490.956 95.316 491.169 95.38C493.431 96.7285 495.585 98.2298 497.631 99.8838C497.76 100.667 497.434 100.95 496.652 100.732C494.655 99.1671 492.566 97.7311 490.386 96.4244C490.195 96.0236 490.238 95.6542 490.516 95.3147Z" fill="#080808"/>
<path fill-rule="evenodd" clip-rule="evenodd" d="M150.582 96.3589C151.54 96.3367 152.497 96.3589 153.454 96.4242C155.238 100.686 157.61 104.581 160.568 108.108C160.669 108.447 160.647 108.774 160.503 109.087C159.858 109.324 159.205 109.542 158.545 109.74C157.98 110.018 157.871 110.431 158.218 110.98C158.489 111.638 158.772 112.29 159.067 112.938C156.281 114.2 153.365 114.984 150.321 115.288C149.58 115.367 148.95 115.149 148.428 114.635C147.09 111.883 145.829 109.099 144.642 106.28C144.023 104.998 143.37 103.736 142.684 102.494C142.327 101.462 142.458 100.505 143.075 99.6225C145.271 97.8106 147.772 96.7231 150.582 96.3589Z" fill="#FDFDFD"/>
<path fill-rule="evenodd" clip-rule="evenodd" d="M509.706 103.668C517.654 103.36 525.095 105.122 532.029 108.954C536.089 111.322 539.332 114.519 541.755 118.547C544.016 122.926 544.972 127.581 544.627 132.512C544.24 137.627 543.151 142.587 541.363 147.392C541.166 147.526 540.97 147.505 540.775 147.326C539.449 146.423 538.099 145.554 536.729 144.716C532.543 141.706 528.323 138.749 524.066 135.841C521.484 134.161 518.655 133.225 515.581 133.035C512.809 133.114 510.241 133.876 507.879 135.319C502.849 136.822 497.714 137.344 492.474 136.885C491.294 137.237 490.489 137.999 490.059 139.169C489.14 142.921 489.75 146.402 491.887 149.61C492.578 150.576 493.514 151.076 494.694 151.111C492.593 154.419 490.743 157.877 489.146 161.487C479.053 174.513 472.265 189.131 468.781 205.342C463.999 196.76 459.234 188.167 454.486 179.564C449.352 179.521 444.217 179.477 439.082 179.434C440.628 176.279 442.935 173.842 446.001 172.125C448.351 170.863 450.701 169.602 453.05 168.34C458.655 164.693 462.811 159.799 465.517 153.656C466.631 150.944 467.5 148.159 468.128 145.303C468.834 140.816 469.575 136.335 470.347 131.86C471.803 124.531 475.436 118.548 481.248 113.914C487.536 109.117 494.585 106.029 502.396 104.647C502.072 104.944 502.05 105.271 502.331 105.626C503.153 106.317 503.936 107.057 504.68 107.845C505.702 108.954 506.726 110.063 507.748 111.173C508.589 111.212 508.828 110.843 508.466 110.063C506.795 108.089 504.99 106.239 503.048 104.516C503.687 104.319 504.34 104.189 505.007 104.125C506.588 103.92 508.154 103.767 509.706 103.668Z" fill="#FEFEFE"/>
<path fill-rule="evenodd" clip-rule="evenodd" d="M436.733 104.582C437.445 104.488 437.902 104.793 438.103 105.495C438.888 106.476 439.911 106.954 441.171 106.931C442.133 106.807 443.09 106.698 444.043 106.605C444.38 106.798 444.488 107.081 444.369 107.453C441.625 108.833 439.189 108.442 437.059 106.279C436.859 105.907 436.663 105.536 436.471 105.169C436.572 104.977 436.658 104.781 436.733 104.582Z" fill="#090909"/>
<path fill-rule="evenodd" clip-rule="evenodd" d="M136.614 106.017C137.538 105.837 138.256 106.143 138.768 106.931C139.805 108.36 140.893 109.753 142.031 111.108C142.149 111.439 142.083 111.721 141.835 111.957C138.116 113.368 136.07 112.107 135.7 108.171C135.564 107.248 135.868 106.53 136.614 106.017Z" fill="#FBFBFB"/>
<path fill-rule="evenodd" clip-rule="evenodd" d="M512.448 115.806C512.721 115.783 512.982 115.826 513.231 115.937C514.839 118.023 516.385 120.155 517.865 122.333C517.965 122.845 517.748 123.149 517.213 123.247C517.03 123.211 516.878 123.123 516.756 122.986C515.33 120.961 513.872 118.96 512.382 116.981C512.106 116.563 512.128 116.172 512.448 115.806Z" fill="#0A0A0A"/>
<path fill-rule="evenodd" clip-rule="evenodd" d="M217.681 119.461C224.741 118.889 230.593 121.238 235.239 126.509C239.423 132.267 240.467 138.575 238.372 145.434C238.001 146.568 237.522 147.655 236.936 148.697C235.624 150.313 234.362 151.966 233.15 153.656C231.327 156.748 230.804 160.054 231.584 163.576C232.047 165.707 232.744 167.751 233.672 169.71C233.802 170.053 233.846 170.401 233.803 170.754C232.008 172.398 229.897 173.332 227.472 173.56C226.617 172.571 225.943 171.462 225.448 170.232C224.431 167.722 223.605 165.155 222.968 162.532C223.264 159.783 223.656 157.042 224.143 154.309C224.286 154.117 224.482 154.009 224.73 153.983C226.289 153.84 227.812 153.535 229.299 153.069C229.812 152.862 230.139 152.491 230.278 151.96C230.321 150.089 230.366 148.218 230.409 146.347C230.938 145.468 231.59 144.685 232.367 143.998C232.734 143.409 232.778 142.801 232.498 142.171C230.618 140.501 229.486 138.413 229.103 135.906C228.611 134.522 227.72 133.478 226.427 132.773C226.785 132.456 226.895 132.065 226.754 131.599C226.598 131.477 226.423 131.39 226.232 131.338C225.2 131.933 224.33 132.716 223.621 133.687C221.685 136.474 220.51 139.563 220.096 142.954C219.347 152.197 220.609 161.16 223.882 169.841C224.481 171.279 225.199 172.649 226.036 173.952C218.639 174.235 211.329 173.56 204.104 171.929C203.615 172.105 203.462 172.454 203.648 172.973C203.765 173.13 203.918 173.238 204.104 173.299C211.816 174.937 219.604 175.547 227.472 175.127C229.131 174.675 230.785 174.197 232.432 173.691C233.361 173.26 234.209 172.716 234.978 172.059C236.71 173.225 238.407 174.443 240.069 175.714C240.157 175.844 240.157 175.975 240.069 176.106C239.55 177.035 239.05 177.971 238.568 178.912C231.643 180.018 224.679 180.366 217.681 179.956C208.564 179.288 200.513 176.069 193.53 170.297C193.574 170.167 193.618 170.036 193.661 169.906C193.222 169.024 192.939 168.088 192.812 167.1C191.755 156.025 193.844 145.584 199.079 135.775C200.78 132.554 202.738 129.509 204.953 126.639C208.273 122.598 212.515 120.205 217.681 119.461Z" fill="#FEFEFE"/>
<path fill-rule="evenodd" clip-rule="evenodd" d="M140.008 119.983C141.457 119.762 142.609 120.241 143.467 121.419C144.407 123.211 145.276 125.039 146.078 126.902C147.039 128.503 148.453 129.439 150.321 129.708C151.807 129.784 153.288 129.741 154.759 129.578C157.015 131.912 158.712 134.61 159.85 137.671C155.4 143.964 149.482 145.922 142.096 143.546C140.501 143.052 138.935 142.487 137.397 141.849C136.367 141.247 135.91 140.354 136.026 139.173C136.677 138.046 137.33 136.914 137.984 135.779C138.439 134.678 138.786 133.548 139.029 132.384C139.116 131.689 139.116 130.992 139.029 130.296C138.522 127.297 138.086 124.295 137.723 121.288C138.487 120.831 139.248 120.397 140.008 119.983Z" fill="#FDFDFD"/>
<path fill-rule="evenodd" clip-rule="evenodd" d="M156.717 129.902C158.145 129.932 159.538 130.258 160.895 130.881C162.73 131.754 164.383 132.886 165.855 134.274C167.635 134.91 169.354 135.672 171.012 136.559C173.121 141.188 174.949 145.93 176.495 150.785C178.735 157.829 180.801 164.92 182.695 172.059C182.652 172.147 182.608 172.233 182.565 172.321C177.182 174.896 172.94 178.724 169.837 183.806C168.811 178.635 167.701 173.48 166.508 168.34C166.851 167.544 167.178 166.74 167.487 165.925C167.575 165.229 167.575 164.533 167.487 163.837C167.114 162.943 166.44 162.573 165.464 162.727C164.116 156.558 163.268 150.315 162.918 143.998C162.472 140.615 161.492 137.396 159.981 134.34C159.188 133.236 158.427 132.105 157.696 130.946C157.399 130.564 157.072 130.215 156.717 129.902Z" fill="#FDFDFD"/>
<path fill-rule="evenodd" clip-rule="evenodd" d="M137.397 132.643C137.512 132.626 137.598 132.669 137.658 132.774C137.439 133.52 137.2 134.26 136.94 134.992C136.277 136.188 135.581 137.363 134.851 138.516C134.735 139.444 134.8 140.358 135.047 141.257C134.458 141.761 133.871 142.283 133.285 142.823C132.028 144.773 131.244 146.906 130.935 149.219C130.558 151.64 130.363 154.077 130.347 156.528C130.409 159.318 130.562 162.102 130.804 164.881C131.449 171.296 132.233 177.691 133.154 184.067C133.242 184.459 133.242 184.85 133.154 185.242C129.228 188.195 124.942 190.523 120.296 192.225C119.138 192.582 117.963 192.865 116.771 193.073C118.348 177.52 121.024 162.162 124.799 147C125.485 144.387 126.312 141.82 127.28 139.299C130.166 136.344 133.539 134.126 137.397 132.643Z" fill="#FDFDFD"/>
<path fill-rule="evenodd" clip-rule="evenodd" d="M222.25 158.229C222.162 158.186 222.076 158.142 221.989 158.099C221.055 153.079 220.86 148.031 221.401 142.956C221.784 139.581 223.024 136.579 225.122 133.948C225.281 133.803 225.456 133.781 225.644 133.883C226.435 134.239 227.067 134.784 227.537 135.515C228.067 137.197 228.675 138.851 229.365 140.475C229.942 141.401 230.616 142.249 231.388 143.021C230.759 143.738 230.128 144.456 229.495 145.175C229.338 145.513 229.208 145.862 229.103 146.219C229.06 148.047 229.016 149.874 228.973 151.702C228.515 151.987 228.015 152.182 227.472 152.289C226.079 152.5 224.686 152.695 223.294 152.877C223.096 153.145 222.988 153.449 222.968 153.791C222.686 155.265 222.447 156.745 222.25 158.229Z" fill="#FDFDFD"/>
<path fill-rule="evenodd" clip-rule="evenodd" d="M160.372 139.169C160.541 139.242 160.649 139.373 160.699 139.561C160.96 140.691 161.221 141.822 161.482 142.954C161.771 145.558 161.987 148.168 162.135 150.785C162.746 155.019 163.398 159.239 164.093 163.445C159.607 166.177 155.365 169.244 151.365 172.647C150.918 173.155 150.417 173.22 149.864 172.843C149.776 172.539 149.776 172.233 149.864 171.929C151.088 170.044 151.916 168 152.344 165.795C152.582 164.767 152.343 163.876 151.626 163.119C151.041 162.743 150.433 162.7 149.798 162.989C148.373 163.674 147.133 164.608 146.078 165.795C143.12 169.875 141.119 174.398 140.073 179.369C138.282 181.051 136.432 182.662 134.525 184.198C133.042 175.029 132.085 165.806 131.653 156.528C131.599 153.117 132.013 149.767 132.893 146.478C133.299 145.161 133.973 144.007 134.916 143.019C135.243 142.791 135.591 142.595 135.961 142.432C140.388 144.877 145.13 145.942 150.19 145.63C152.967 145.198 155.404 144.067 157.5 142.236C158.533 141.27 159.49 140.248 160.372 139.169Z" fill="#FEFEFE"/>
<path fill-rule="evenodd" clip-rule="evenodd" d="M184.523 146.086C186.619 149.209 188.948 152.167 191.507 154.963C191.32 157.829 191.276 160.701 191.376 163.579C191.591 165.638 191.874 167.682 192.225 169.715C190.17 169.865 188.168 170.257 186.22 170.89C186.151 162.586 185.586 154.317 184.523 146.086Z" fill="#FCFCFC"/>
<path fill-rule="evenodd" clip-rule="evenodd" d="M519.236 158.616C519.411 158.859 519.541 159.12 519.628 159.399C520.644 166.044 521.732 172.68 522.891 179.303C522.775 179.838 522.471 180.23 521.977 180.478C518.433 182.09 514.778 182.395 511.012 181.392C510.347 181.136 509.76 180.766 509.249 180.282C509.12 179.527 509.055 178.766 509.054 177.998C509.232 175.671 509.406 173.343 509.576 171.015C512.359 170.2 514.427 168.503 515.776 165.925C516.002 165.466 516.09 164.988 516.038 164.49C515.801 164.242 515.519 164.176 515.189 164.294C514.261 166.484 512.737 168.137 510.62 169.253C508.845 169.926 507.06 170.578 505.268 171.211C504.623 171.347 504.013 171.259 503.44 170.95C502.705 170.346 502.118 169.628 501.678 168.797C500.793 167.1 500.009 165.36 499.328 163.576C499.127 163.33 498.887 163.135 498.61 162.989C497.784 162.801 496.978 162.56 496.195 162.271C496.108 162.097 496.108 161.922 496.195 161.749C496.884 160.182 497.427 158.573 497.827 156.919C497.812 156.519 497.747 156.127 497.631 155.745C497.123 154.817 496.688 153.86 496.326 152.873C496.238 152.09 496.238 151.307 496.326 150.524C498.534 149.22 500.906 148.851 503.44 149.415C504.658 149.741 505.746 150.306 506.704 151.111C508.127 152.621 509.628 154.035 511.207 155.353C511.667 153.436 512.863 152.306 514.797 151.96C517.291 152.389 518.357 153.868 517.996 156.397C517.327 157.76 517.741 158.499 519.236 158.616Z" fill="#FDFDFD"/>
<path fill-rule="evenodd" clip-rule="evenodd" d="M109.852 149.48C109.923 149.488 109.967 149.531 109.983 149.61C109.625 151.199 109.385 152.808 109.265 154.439C109.136 158.273 109.223 162.102 109.526 165.925C109.866 169.679 110.301 173.421 110.831 177.15C111.723 182.541 112.571 187.936 113.377 193.334C109.855 192.689 106.331 192.668 102.803 193.269C98.1392 194.364 95.9852 197.3 96.341 202.079C96.981 205.643 97.9166 209.08 99.1476 212.39C97.2293 211.451 95.8151 210.015 94.905 208.082C93.4702 205.04 92.4258 201.865 91.7719 198.555C90.875 193.856 90.3746 189.113 90.2707 184.328C90.3538 172.005 95.0099 161.802 104.239 153.722C106.025 152.178 107.896 150.764 109.852 149.48Z" fill="#FEFEFE"/>
<path fill-rule="evenodd" clip-rule="evenodd" d="M221.989 158.094C222.076 158.137 222.163 158.181 222.25 158.225C222.208 159.038 222.121 158.993 221.989 158.094Z" fill="#919191"/>
<path fill-rule="evenodd" clip-rule="evenodd" d="M519.236 158.616C519.367 158.616 519.497 158.616 519.628 158.616C519.628 158.877 519.628 159.138 519.628 159.399C519.541 159.12 519.411 158.859 519.236 158.616Z" fill="#797979"/>
<path fill-rule="evenodd" clip-rule="evenodd" d="M150.321 164.098C150.678 164.027 150.917 164.158 151.039 164.489C151.073 165.748 150.855 166.965 150.386 168.144C149.93 169.142 149.408 170.1 148.819 171.015C148.353 171.959 148.396 172.873 148.95 173.756C149.774 174.46 150.665 174.569 151.626 174.083C155.403 170.976 159.319 168.062 163.375 165.338C166.629 163.321 167.304 164.039 165.398 167.491C164.589 168.78 163.632 169.954 162.526 171.015C162.276 171.386 162.058 171.778 161.874 172.19C161.707 173.921 161.62 175.662 161.613 177.411C161.387 179.538 160.408 181.213 158.675 182.436C154.878 184.732 150.874 186.603 146.665 188.048C140.889 195.216 134.274 201.481 126.823 206.843C122.235 210.247 117.405 213.293 112.333 215.979C107.204 218.634 103.309 217.438 100.649 212.39C98.983 208.665 97.9605 204.77 97.5811 200.708C97.7137 197.745 99.1932 195.788 102.02 194.835C102.705 194.62 103.402 194.446 104.108 194.313C106.02 194.128 107.934 194.084 109.852 194.182C113.01 194.868 116.143 194.78 119.251 193.921C123.089 192.744 126.701 191.092 130.086 188.962C133.986 186.392 137.641 183.498 141.052 180.282C142.017 176.41 143.431 172.711 145.295 169.188C146.476 166.985 148.151 165.288 150.321 164.098Z" fill="#FEFEFE"/>
<path fill-rule="evenodd" clip-rule="evenodd" d="M487.514 165.664C487.592 165.695 487.635 165.761 487.644 165.86C485.608 171.804 484.739 177.917 485.034 184.198C482.741 185.163 480.805 186.599 479.224 188.505C477.315 191.355 475.748 194.402 474.525 197.641C473.144 201.306 471.838 205.005 470.609 208.735C470.22 208.174 469.936 207.566 469.76 206.908C472.823 191.881 478.74 178.134 487.514 165.664Z" fill="#FBFBFB"/>
<path fill-rule="evenodd" clip-rule="evenodd" d="M165.333 169.71C165.414 169.725 165.479 169.768 165.529 169.841C166.757 175.014 167.867 180.214 168.858 185.438C168.253 186.756 167.666 188.082 167.095 189.418C166.231 191.836 165.317 194.229 164.354 196.597C163.573 199.023 162.833 201.46 162.135 203.906C160.923 212.93 162.054 221.63 165.529 230.01C167.393 233.869 169.568 237.524 172.056 240.973C172.403 243.537 172.73 246.104 173.035 248.674C161.798 251.067 150.441 252.548 138.963 253.111C135.813 253.097 132.68 252.879 129.564 252.459C129.68 247.097 130.267 241.79 131.327 236.536C132.966 225.098 134.141 213.613 134.851 202.079C139.543 198.214 143.743 193.885 147.449 189.092C151.968 187.638 156.189 185.593 160.111 182.958C161.524 181.722 162.417 180.178 162.787 178.324C162.944 176.458 163.032 174.588 163.049 172.712C163.19 172.386 163.363 172.082 163.571 171.798C164.252 171.171 164.84 170.475 165.333 169.71Z" fill="#FEFEFE"/>
<path fill-rule="evenodd" clip-rule="evenodd" d="M191.572 171.015C191.888 170.975 192.194 171.019 192.486 171.146C199.461 176.976 207.512 180.304 216.637 181.131C223.849 181.685 231.029 181.403 238.176 180.282C237.458 184.259 239.068 186.761 243.006 187.787C244.881 188.236 246.774 188.519 248.685 188.635C251.022 193.003 253.11 197.483 254.951 202.079C256.79 210.679 258.575 219.293 260.303 227.921C261.96 235.895 264.006 243.769 266.439 251.545C266.988 253.232 267.663 254.863 268.462 256.44C266.592 257.875 264.72 259.311 262.849 260.747C262.571 260.695 262.31 260.564 262.066 260.355C259.891 258.025 257.823 255.611 255.865 253.111C252.561 248.765 249.383 244.328 246.335 239.799C245.813 237.342 245.313 234.885 244.834 232.424C247.775 226.406 249.385 220.054 249.664 213.369C249.66 211.946 249.55 210.532 249.338 209.127C248.707 208.539 248.295 208.67 248.098 209.518C248.558 213.379 248.363 217.207 247.51 221.004C246.592 224.759 245.287 228.37 243.594 231.837C243.506 232.185 243.506 232.533 243.594 232.881C247.869 253.298 251.742 273.789 255.212 294.355C256.296 300.929 257.014 307.543 257.366 314.194C257.284 315.241 257.174 316.285 257.04 317.326C256.978 317.513 256.87 317.666 256.713 317.783C255.163 318.102 253.596 318.189 252.014 318.044C250.041 317.835 248.083 317.531 246.139 317.131C240.516 315.806 234.858 314.631 229.169 313.607C225.668 313.006 222.143 312.79 218.595 312.954C216.245 313.232 213.938 313.711 211.676 314.39C207.56 315.747 203.47 317.183 199.405 318.697C197.405 319.403 195.359 319.925 193.269 320.263C191.944 320.409 190.639 320.323 189.353 320.002C188.148 319.536 187.343 318.688 186.938 317.457C185.498 313.134 184.323 308.741 183.413 304.275C181.092 292.63 179.091 280.926 177.408 269.165C177.125 265.987 176.821 262.812 176.495 259.637C175.925 256.401 175.273 253.181 174.536 249.979C174.172 247.147 173.825 244.318 173.492 241.495C179.617 247.237 186.905 250.261 195.358 250.566C199.9 250.757 204.381 250.322 208.804 249.261C210.619 249.49 212.273 249.098 213.765 248.087C215.33 248.182 216.896 248.312 218.464 248.478C223.412 248.94 228.242 248.418 232.955 246.912C235.031 246.212 236.751 245.015 238.111 243.323C238.521 242.721 238.825 242.068 239.025 241.365C239.666 239.408 239.884 237.408 239.677 235.361C239.385 233.615 238.689 232.048 237.589 230.662C235.631 228.541 233.389 226.779 230.866 225.376C226.122 222.983 221.292 220.764 216.376 218.72C208.915 215.338 201.605 211.684 194.444 207.756C191.049 206.168 187.481 205.277 183.74 205.081C178.72 205.142 175 207.361 172.578 211.737C170.239 216.303 170.239 220.871 172.578 225.442C174.483 228.608 176.898 231.327 179.823 233.599C187.454 239.002 195.764 243.093 204.757 245.868C205.458 246.787 206.286 247.57 207.237 248.217C200.325 249.824 193.449 249.693 186.612 247.825C179 245.338 173.146 240.661 169.054 233.795C165.405 226.905 163.491 219.553 163.31 211.737C163.054 207.223 163.663 202.829 165.137 198.555C166.182 195.685 167.226 192.813 168.27 189.941C172.476 179.23 180.244 172.921 191.572 171.015Z" fill="#FEFEFE"/>
<path fill-rule="evenodd" clip-rule="evenodd" d="M242.876 174.148C243.112 174.146 243.33 174.212 243.528 174.344C245.726 176.193 247.749 178.217 249.599 180.414C251.146 182.465 252.037 184.77 252.275 187.333C249.044 187.502 245.867 187.176 242.745 186.354C241.031 185.814 239.877 184.705 239.286 183.025C239.189 182.234 239.232 181.45 239.416 180.675C240.214 178.295 241.367 176.119 242.876 174.148Z" fill="#FCFCFC"/>
<path fill-rule="evenodd" clip-rule="evenodd" d="M524.197 179.107C530.598 179.021 536.777 180.131 542.734 182.436C546.564 184.032 549.805 186.403 552.459 189.549C555.56 194.409 557.475 199.716 558.203 205.472C559.361 213.34 558.817 221.083 556.571 228.704C556.506 228.837 556.419 228.86 556.31 228.77C550.981 223.733 544.758 220.209 537.643 218.198C536.91 217.843 536.519 217.255 536.468 216.436C536.772 212.002 537.772 207.739 539.47 203.645C539.231 202.966 538.819 202.836 538.23 203.253C536.191 207.925 535.277 212.797 535.489 217.871C535.793 218.524 536.272 219.003 536.925 219.307C536.919 220.262 536.898 221.219 536.859 222.178C529.818 218.919 522.813 215.591 515.842 212.194C515.722 211.928 515.677 211.644 515.711 211.345C517.709 211.541 519.711 211.606 521.716 211.541C522.953 211.174 523.758 210.37 524.131 209.127C524.349 206.737 524.435 204.344 524.392 201.948C523.998 200.772 523.194 200.054 521.977 199.795C520.195 199.594 518.411 199.442 516.625 199.338C516.621 197.55 516.709 195.765 516.886 193.987C516.746 192.345 515.876 191.323 514.275 190.919C512.269 190.835 510.268 190.682 508.27 190.463C506.456 190.602 505.346 191.559 504.941 193.334C504.847 195.076 504.738 196.816 504.615 198.555C502.872 198.463 501.132 198.333 499.393 198.163C497.917 198.269 496.893 199.009 496.326 200.382C496.145 202.075 495.993 203.771 495.869 205.472C490.766 206.322 485.675 207.213 480.595 208.148C480.166 208.452 480.1 208.823 480.399 209.257C481.062 210.013 481.867 210.556 482.814 210.889C484.338 210.894 485.86 210.894 487.383 210.889C490.032 211.125 492.208 212.256 493.911 214.282C494.858 214.91 495.903 215.236 497.044 215.261C497.92 215.15 498.79 215.042 499.654 214.935C505.659 222.331 512.36 229.031 519.758 235.035C523.898 238.297 528.381 241.038 533.204 243.257C535.606 244.329 538.109 245.003 540.71 245.28C543.384 245.206 545.559 244.117 547.237 242.017C547.767 241.357 548.245 240.661 548.673 239.929C550.36 255.621 551.884 271.328 553.242 287.046C552.855 288.031 552.137 288.402 551.089 288.155C543.94 285.237 536.585 282.974 529.027 281.368C524.271 280.571 519.484 280.31 514.667 280.585C511.145 281.119 507.62 281.641 504.093 282.152C494.185 283.001 484.437 282.11 474.851 279.476C476.923 265.638 479.012 251.803 481.117 237.971C482.771 237.993 484.425 237.971 486.078 237.906C486.259 237.781 486.347 237.607 486.339 237.384C485.109 234.989 483.825 232.619 482.488 230.271C482.466 230.097 482.445 229.922 482.423 229.749C483.021 225.963 483.565 222.178 484.055 218.393C483.946 218.198 483.793 218.045 483.598 217.937C479.878 216.011 476.18 214.054 472.501 212.063C472.075 211.492 471.769 210.861 471.588 210.171C473.166 204.936 475.016 199.802 477.136 194.77C478.136 192.508 479.397 190.419 480.921 188.505C482.318 187.164 483.907 186.098 485.686 185.307C490.738 183.283 495.96 181.869 501.352 181.065C503.566 180.725 505.785 180.419 508.009 180.152C508.044 180.766 508.306 181.268 508.792 181.653C510.141 182.537 511.62 183.06 513.231 183.219C516.57 183.525 519.746 182.96 522.761 181.522C523.65 180.959 524.129 180.154 524.197 179.107Z" fill="#FEFEFE"/>
<path fill-rule="evenodd" clip-rule="evenodd" d="M286.608 184.459C287.019 184.388 287.345 184.519 287.587 184.85C287.674 186.635 287.674 188.418 287.587 190.203C287.24 190.656 286.848 190.699 286.412 190.333C286.325 188.462 286.325 186.59 286.412 184.72C286.506 184.649 286.571 184.562 286.608 184.459Z" fill="#4CAF50"/>
<path fill-rule="evenodd" clip-rule="evenodd" d="M278.514 192.551C280.342 192.529 282.169 192.551 283.997 192.616C284.516 193.014 284.516 193.406 283.997 193.791C282.169 193.878 280.342 193.878 278.514 193.791C278.173 193.378 278.173 192.965 278.514 192.551Z" fill="#4CAF50"/>
<path fill-rule="evenodd" clip-rule="evenodd" d="M290.002 192.551C291.743 192.529 293.484 192.551 295.224 192.616C295.803 192.892 295.891 193.283 295.485 193.791C293.614 193.878 291.742 193.878 289.871 193.791C289.498 193.318 289.541 192.905 290.002 192.551Z" fill="#4CAF50"/>
<path fill-rule="evenodd" clip-rule="evenodd" d="M286.608 195.814C287.019 195.743 287.345 195.874 287.587 196.205C287.674 197.945 287.674 199.687 287.587 201.427C287.574 201.811 287.378 201.984 286.999 201.949C286.755 201.964 286.56 201.876 286.412 201.688C286.325 199.817 286.325 197.945 286.412 196.075C286.506 196.004 286.571 195.917 286.608 195.814Z" fill="#4CAF50"/>
<path fill-rule="evenodd" clip-rule="evenodd" d="M133.219 203.384C133.306 203.751 133.35 204.142 133.35 204.558C132.44 218.121 130.896 231.607 128.716 245.019C128.156 252.058 128.003 259.106 128.259 266.163C121.692 266.505 115.991 264.482 111.158 260.094C109.072 257.929 108.18 255.34 108.481 252.328C109.37 248.82 110.196 245.296 110.962 241.756C111.056 240.708 111.186 239.664 111.353 238.624C111.462 234.096 111.636 229.571 111.876 225.05C112.149 222.373 112.563 219.718 113.116 217.088C120.278 213.162 126.979 208.594 133.219 203.384Z" fill="#FEFEFE"/>
<path fill-rule="evenodd" clip-rule="evenodd" d="M499.654 205.994C499.833 205.973 500.008 205.995 500.177 206.059C512.448 211.976 524.719 217.894 536.99 223.81C537.425 223.968 537.751 223.86 537.969 223.484C538.06 222.22 538.169 220.958 538.295 219.699C542.965 221.163 547.273 223.317 551.219 226.159C551.612 226.379 551.917 226.683 552.133 227.073C551.355 230.406 550.288 233.648 548.935 236.796C547.965 239.019 546.594 240.955 544.822 242.605C543.287 243.814 541.547 244.25 539.601 243.91C535.371 242.892 531.41 241.238 527.721 238.95C523.329 236.169 519.194 233.036 515.32 229.553C509.85 224.563 504.802 219.212 500.177 213.499C499.425 213.516 498.685 213.646 497.957 213.891C496.055 214.137 494.533 213.485 493.388 211.933C490.597 209.871 487.485 209.153 484.055 209.779C483.412 209.739 482.825 209.543 482.292 209.192C488.097 208.123 493.884 207.058 499.654 205.994Z" fill="#FEFEFE"/>
<path fill-rule="evenodd" clip-rule="evenodd" d="M182.043 206.386C183.976 206.306 185.891 206.459 187.787 206.843C189.648 207.348 191.476 207.956 193.269 208.67C204.111 214.503 215.207 219.811 226.558 224.593C230.009 226.111 233.122 228.134 235.892 230.662C238.308 233.279 239.048 236.324 238.111 239.798C237.668 242.068 236.428 243.743 234.391 244.823C230.511 246.638 226.421 247.486 222.119 247.368C219.835 247.345 217.573 247.149 215.331 246.781C217.84 244.36 219.951 241.641 221.663 238.624C223.057 235.885 222.73 233.383 220.683 231.119C219.208 230.452 217.772 230.539 216.376 231.38C214.799 233.001 213.188 234.567 211.545 236.079C209.326 237.761 207.368 237.5 205.671 235.295C203.841 234.589 202.601 235.177 201.951 237.057C201.623 239.493 202.123 241.755 203.452 243.844C203.364 243.888 203.278 243.932 203.191 243.975C196.635 241.785 190.413 238.893 184.523 235.295C180.703 232.912 177.418 229.933 174.667 226.355C171.035 220.67 171.296 215.188 175.45 209.91C177.222 207.926 179.419 206.751 182.043 206.386Z" fill="#FDFDFD"/>
<path fill-rule="evenodd" clip-rule="evenodd" d="M306.842 211.215C309.953 210.93 311.933 212.279 312.782 215.262C313.051 217.285 312.42 218.96 310.889 220.288C308.368 221.835 306.084 221.551 304.035 219.439C302.324 216.775 302.607 214.36 304.884 212.194C305.513 211.792 306.166 211.466 306.842 211.215Z" fill="#070707"/>
<path fill-rule="evenodd" clip-rule="evenodd" d="M183.218 211.737C184.238 211.676 185.24 211.785 186.22 212.063C189.431 212.961 192.238 214.55 194.64 216.828C196.503 218.952 196.764 221.258 195.423 223.747C193.978 225.461 192.128 226.483 189.875 226.815C187.179 227.21 184.526 227.037 181.912 226.293C177.476 224.229 176.018 220.855 177.539 216.175C178.603 213.612 180.496 212.133 183.218 211.737Z" fill="#070707"/>
<path fill-rule="evenodd" clip-rule="evenodd" d="M306.973 212.52C309.2 212.251 310.701 213.165 311.476 215.262C311.812 218.057 310.594 219.623 307.821 219.961C305.931 219.811 304.756 218.811 304.296 216.959C304.09 214.801 304.983 213.322 306.973 212.52Z" fill="#FCFCFC"/>
<path fill-rule="evenodd" clip-rule="evenodd" d="M182.826 213.042C186.665 213.226 190.059 214.554 193.008 217.024C194.134 218.079 194.829 219.362 195.097 220.875C194.807 222.665 193.85 223.949 192.225 224.726C191.156 225.26 190.024 225.565 188.831 225.64C187.438 225.727 186.046 225.727 184.653 225.64C179.447 224.775 177.467 221.795 178.714 216.697C179.459 214.754 180.83 213.536 182.826 213.042Z" fill="#FDFDFD"/>
<path fill-rule="evenodd" clip-rule="evenodd" d="M427.986 214.086C430.994 218.272 433.539 222.753 435.623 227.532C436.204 229.921 436.226 232.314 435.688 234.712C432.823 233.216 430.799 230.954 429.618 227.924C427.937 223.441 427.394 218.829 427.986 214.086Z" fill="#FBFBFB"/>
<path fill-rule="evenodd" clip-rule="evenodd" d="M473.676 214.217C476.681 215.73 479.662 217.296 482.618 218.916C482.312 221.976 481.877 225.022 481.313 228.054C478.731 223.455 476.185 218.843 473.676 214.217Z" fill="#FBFBFB"/>
<path fill-rule="evenodd" clip-rule="evenodd" d="M218.595 231.837C219.851 231.894 220.612 232.547 220.879 233.795C221.237 234.696 221.28 235.61 221.01 236.536C220.391 238.47 219.434 240.211 218.138 241.758C216.419 243.825 214.526 245.718 212.459 247.437C210.478 248.28 208.694 247.976 207.107 246.523C204.518 244.152 203.191 241.215 203.125 237.711C203.313 236.693 203.901 236.236 204.888 236.341C206.346 238.359 208.261 238.968 210.632 238.168C211.701 237.569 212.702 236.872 213.634 236.08C214.762 234.821 215.937 233.603 217.159 232.424C217.622 232.148 218.101 231.952 218.595 231.837Z" fill="#FDFDFD"/>
<path fill-rule="evenodd" clip-rule="evenodd" d="M588.946 236.275C589.319 236.216 589.646 236.303 589.925 236.536C592.546 247.118 594.025 257.864 594.364 268.774C594.789 283.791 594.093 298.756 592.275 313.672C591.084 323.064 589.648 332.418 587.967 341.733C587.681 342.304 587.289 342.391 586.792 341.994C586.77 341.821 586.749 341.646 586.727 341.472C590.396 322.106 592.55 302.573 593.189 282.87C593.558 270.472 592.732 258.159 590.708 245.933C590.11 242.891 589.436 239.866 588.685 236.862C588.688 236.623 588.775 236.427 588.946 236.275Z" fill="#090909"/>
<path fill-rule="evenodd" clip-rule="evenodd" d="M472.371 238.232C461.427 238.102 450.462 238.059 439.474 238.102C450.43 237.95 461.484 237.928 472.632 238.037C472.562 238.131 472.474 238.196 472.371 238.232Z" fill="#7E7E7E"/>
<path fill-rule="evenodd" clip-rule="evenodd" d="M439.474 238.102C450.462 238.059 461.427 238.102 472.371 238.232C468.468 241.424 464.029 243.534 459.055 244.564C451.353 245.861 444.826 243.707 439.474 238.102Z" fill="#FDFDFD"/>
<path fill-rule="evenodd" clip-rule="evenodd" d="M474.721 237.971C476.418 237.971 478.115 237.971 479.812 237.971C477.739 251.83 475.65 265.687 473.546 279.541C473.516 279.89 473.603 280.194 473.807 280.455C475.084 280.806 476.346 281.177 477.593 281.564C472.469 300.205 468.183 319.043 464.734 338.079C463.836 343.545 463.053 349.027 462.384 354.524C460.461 355.616 458.459 356.53 456.379 357.265C443.987 355.102 431.607 352.861 419.24 350.543C419.476 350.23 419.78 350.012 420.154 349.891C432.482 345.851 443.078 339.129 451.941 329.726C459.048 321.957 463.833 312.907 466.301 302.578C467.397 296.797 468.094 290.968 468.389 285.088C468.908 277.918 469.081 270.739 468.911 263.553C468.414 256.905 467.784 250.271 467.019 243.649C467.033 243.354 467.163 243.137 467.41 242.996C470.085 241.645 472.522 239.969 474.721 237.971Z" fill="#FDFDFD"/>
<path fill-rule="evenodd" clip-rule="evenodd" d="M465.583 243.844C466.324 249.405 466.956 255.017 467.475 260.681C467.885 272.989 467.363 285.258 465.909 297.487C464.194 309.051 459.494 319.189 451.81 327.898C443.834 336.725 434.284 343.229 423.156 347.411C428.622 343.34 433.691 338.794 438.364 333.772C442.766 328.671 446.421 323.059 449.33 316.935C451.094 312.97 452.268 308.837 452.855 304.535C453.742 294.022 449.848 285.822 441.171 279.933C438.213 278.029 435.406 275.919 432.751 273.603C430.204 270.73 429.682 267.51 431.184 263.944C432.481 261.735 434.113 259.798 436.08 258.136C439.883 255.213 443.756 252.384 447.698 249.653C449.053 248.539 450.359 247.365 451.614 246.129C456.484 246.574 461.14 245.813 465.583 243.844Z" fill="#FEFEFE"/>
<path fill-rule="evenodd" clip-rule="evenodd" d="M267.679 258.593C267.816 258.574 267.947 258.596 268.071 258.658C268.38 259.012 268.729 259.316 269.115 259.572C270.979 260.417 272.807 261.331 274.598 262.314C276.254 263.537 277.277 265.169 277.666 267.209C278.185 269.89 278.73 272.566 279.297 275.237C279.134 276.138 278.612 276.442 277.731 276.151C277.578 275.998 277.427 275.847 277.274 275.694C276.523 274.324 275.74 272.975 274.924 271.647C274.119 270.668 273.227 269.777 272.248 268.971C271.909 268.871 271.582 268.893 271.269 269.037C271.251 270.909 271.251 272.779 271.269 274.65C269.061 271.758 267.364 268.582 266.178 265.12C266.173 263.562 265.76 262.126 264.938 260.812C265.879 260.102 266.793 259.363 267.679 258.593Z" fill="#FCFCFC"/>
<path fill-rule="evenodd" clip-rule="evenodd" d="M582.288 269.035C582.656 268.98 582.94 269.11 583.137 269.426C583.66 283.659 583.052 297.841 581.309 311.975C578.82 331.557 574.924 350.851 569.626 369.86C569.28 370.259 568.91 370.282 568.516 369.925C568.429 369.621 568.429 369.316 568.516 369.012C575.533 344.113 579.928 318.748 581.701 292.919C582.023 285.088 582.111 277.257 581.962 269.426C582.098 269.313 582.207 269.182 582.288 269.035Z" fill="#080808"/>
<path fill-rule="evenodd" clip-rule="evenodd" d="M342.219 288.221C357.189 290.876 372.158 293.552 387.126 296.249C372.103 298.912 357.069 301.501 342.023 304.016C327.02 301.505 312.029 298.916 297.051 296.249C312.113 293.529 327.17 290.852 342.219 288.221Z" fill="#FDFDFD"/>
<path fill-rule="evenodd" clip-rule="evenodd" d="M292.613 296.052C292.613 318.892 292.613 341.733 292.613 364.574C292.482 364.574 292.352 364.574 292.221 364.574C292.438 341.738 292.568 318.898 292.613 296.052Z" fill="#BEBEBE"/>
<path fill-rule="evenodd" clip-rule="evenodd" d="M294.179 297.096C293.918 320.763 293.831 344.474 293.918 368.228C293.788 344.496 293.745 320.742 293.788 296.965C293.956 296.934 294.087 296.978 294.179 297.096Z" fill="#7F7F7F"/>
<path fill-rule="evenodd" clip-rule="evenodd" d="M294.179 297.096C309.935 299.837 325.687 302.578 341.436 305.319C341.436 324.201 341.436 343.081 341.436 361.964C338.426 362.407 335.423 362.907 332.428 363.464C332.072 363.492 331.746 363.6 331.449 363.791C331.384 367.488 331.362 371.186 331.384 374.885C318.87 372.75 306.381 370.531 293.918 368.228C293.831 344.474 293.918 320.763 294.179 297.096Z" fill="#FEFEFE"/>
<path fill-rule="evenodd" clip-rule="evenodd" d="M390.39 297.096C390.651 315.76 390.738 334.467 390.651 353.219C374.877 356.034 359.082 358.818 343.264 361.572C343.09 361.572 342.915 361.572 342.741 361.572C342.741 342.82 342.741 324.07 342.741 305.319C348.543 304.235 354.374 303.236 360.234 302.317C360.451 305.251 360.581 308.21 360.626 311.192C360.685 311.317 360.772 311.426 360.887 311.518C361.322 311.606 361.758 311.606 362.192 311.518C366.094 310.756 370.011 310.059 373.941 309.43C374.05 309.322 374.159 309.212 374.268 309.104C374.248 305.963 374.356 302.853 374.594 299.772C379.855 298.837 385.12 297.946 390.39 297.096Z" fill="#FEFEFE"/>
<path fill-rule="evenodd" clip-rule="evenodd" d="M390.39 297.096C390.482 296.978 390.613 296.934 390.781 296.965C390.824 315.738 390.781 334.489 390.651 353.219C390.738 334.467 390.651 315.76 390.39 297.096Z" fill="#3F3F3F"/>
<path fill-rule="evenodd" clip-rule="evenodd" d="M362.062 310.15C361.931 307.518 361.888 304.864 361.931 302.187C365.613 301.524 369.312 300.871 373.027 300.229C373.027 302.927 373.027 305.624 373.027 308.322C369.368 308.915 365.713 309.525 362.062 310.15Z" fill="#FDFDFD"/>
<path fill-rule="evenodd" clip-rule="evenodd" d="M361.931 302.186C361.888 304.863 361.931 307.517 362.062 310.149C362.054 310.22 362.011 310.264 361.931 310.28C361.758 307.561 361.758 304.862 361.931 302.186Z" fill="#7E7E7E"/>
<path fill-rule="evenodd" clip-rule="evenodd" d="M360.234 302.317C360.327 302.199 360.457 302.155 360.626 302.186C360.626 305.189 360.626 308.191 360.626 311.194C360.581 308.211 360.451 305.251 360.234 302.317Z" fill="#BDBDBD"/>
<path fill-rule="evenodd" clip-rule="evenodd" d="M182.043 303.622C181.916 303.942 181.872 304.289 181.912 304.666C181.762 304.037 181.74 303.384 181.847 302.708C181.904 303.018 181.97 303.322 182.043 303.622Z" fill="#616161"/>
<path fill-rule="evenodd" clip-rule="evenodd" d="M342.741 305.319C342.741 324.07 342.741 342.82 342.741 361.572C342.915 361.572 343.09 361.572 343.264 361.572C343.078 361.696 342.86 361.739 342.611 361.702C342.568 342.886 342.611 324.091 342.741 305.319Z" fill="#101010"/>
<path fill-rule="evenodd" clip-rule="evenodd" d="M510.228 308.973C510.27 308.425 510.226 307.903 510.098 307.407C510.175 307.241 510.24 307.068 510.294 306.885C510.401 307.605 510.379 308.301 510.228 308.973Z" fill="#6D6D6D"/>
<path fill-rule="evenodd" clip-rule="evenodd" d="M218.595 314.194C220.556 314.166 222.514 314.209 224.469 314.324C226.211 329.258 226.494 344.225 225.318 359.223C224.335 371.041 222.595 382.743 220.096 394.332C219.026 397.609 217.916 400.872 216.767 404.121C216.392 403.613 216.001 403.113 215.592 402.62C215.169 402.245 214.712 401.919 214.222 401.641C214.134 398.813 214.134 395.986 214.222 393.157C214.821 367.011 215.386 340.864 215.919 314.716C216.814 314.491 217.707 314.316 218.595 314.194Z" fill="#FEFEFE"/>
<path fill-rule="evenodd" clip-rule="evenodd" d="M313.63 320.328C321.852 320.336 328.096 323.817 332.363 330.77C334.803 335.138 335.411 339.749 334.191 344.605C332.105 350.343 328.036 353.716 321.985 354.72C313.65 355.175 307.188 351.934 302.599 344.996C299.68 340.177 299.072 335.087 300.772 329.725C303.255 324.124 307.54 320.991 313.63 320.328Z" fill="#070707"/>
<path fill-rule="evenodd" clip-rule="evenodd" d="M313.239 321.634C321.069 321.49 327.051 324.71 331.188 331.292C333.927 336.049 334.276 340.966 332.233 346.04C329.605 350.827 325.536 353.349 320.027 353.61C312.619 353.248 307.027 349.897 303.252 343.561C300.905 339.311 300.469 334.873 301.947 330.248C304.114 325.275 307.877 322.404 313.239 321.634Z" fill="#FCFCFC"/>
<path fill-rule="evenodd" clip-rule="evenodd" d="M312.064 331.554C312.072 331.625 312.115 331.669 312.194 331.685C312.325 329.903 312.368 328.118 312.325 326.332C312.544 325.374 313.154 324.895 314.152 324.896C316.212 325.286 318.215 325.873 320.157 326.659C320.939 327.242 321.484 328.003 321.789 328.943C321.832 330.771 321.877 332.599 321.92 334.426C323.583 334.956 325.258 335.456 326.946 335.927C328.087 336.546 328.848 337.482 329.23 338.734C329.318 340.519 329.318 342.302 329.23 344.086C328.686 345.415 327.707 345.872 326.293 345.457C324.82 345.003 323.341 344.589 321.854 344.217C321.877 345.958 321.854 347.698 321.789 349.439C321.657 350.005 321.331 350.419 320.81 350.679C320.212 350.872 319.604 350.915 318.983 350.809C317.644 350.385 316.296 349.993 314.936 349.634C313.531 349.057 312.639 348.034 312.26 346.567C312.237 344.824 312.172 343.084 312.064 341.345C310.414 340.845 308.76 340.345 307.103 339.844C305.996 339.259 305.278 338.367 304.949 337.168C304.862 335.252 304.862 333.339 304.949 331.424C305.5 330.297 306.392 329.928 307.625 330.314C309.095 330.768 310.576 331.182 312.064 331.554Z" fill="#4CAF50"/>
<path fill-rule="evenodd" clip-rule="evenodd" d="M312.325 326.332C312.368 328.118 312.325 329.902 312.194 331.684C312.115 331.669 312.072 331.624 312.064 331.554C312.151 329.814 312.237 328.072 312.325 326.332Z" fill="#424242"/>
<path fill-rule="evenodd" clip-rule="evenodd" d="M191.964 328.159C192.332 328.105 192.615 328.235 192.812 328.551C193.205 332.732 194.554 336.561 196.859 340.039C198.915 342.71 201.635 344.124 205.018 344.281C205.367 344.673 205.367 345.065 205.018 345.456C202.303 345.556 199.909 344.729 197.838 342.976C195.259 340.496 193.496 337.515 192.551 334.034C192.106 332.426 191.78 330.794 191.572 329.138C191.521 328.725 191.652 328.398 191.964 328.159Z" fill="#F7F7F7"/>
<path fill-rule="evenodd" clip-rule="evenodd" d="M412.451 350.739C437.697 355.201 462.935 359.705 488.167 364.25C487.511 364.366 486.858 364.497 486.208 364.642C461.37 368.865 436.544 373.151 411.733 377.5C386.411 373.143 361.106 368.727 335.823 364.25C361.378 359.686 386.92 355.183 412.451 350.739Z" fill="#FEFEFE"/>
<path fill-rule="evenodd" clip-rule="evenodd" d="M462.058 356.09C462.208 356.128 462.296 356.237 462.319 356.417C462.226 357.005 462.139 357.593 462.058 358.179C460.96 358.106 459.873 357.953 458.794 357.722C459.922 357.246 461.011 356.701 462.058 356.09Z" fill="#F0F0F0"/>
<path fill-rule="evenodd" clip-rule="evenodd" d="M531.115 360.658C531.899 360.593 532.182 360.942 531.964 361.703C530.015 363.15 527.818 363.956 525.371 364.118C523.575 364.255 521.791 364.169 520.019 363.857C519.368 363.751 519.129 363.381 519.301 362.747C519.427 362.566 519.6 362.478 519.823 362.486C522.994 363.167 526.105 362.972 529.157 361.899C529.903 361.606 530.555 361.192 531.115 360.658Z" fill="#F7F7F7"/>
<path fill-rule="evenodd" clip-rule="evenodd" d="M332.951 365.096C332.69 404.121 332.602 443.189 332.69 482.301C332.559 443.211 332.516 404.099 332.559 364.965C332.728 364.934 332.858 364.978 332.951 365.096Z" fill="#7E7E7E"/>
<path fill-rule="evenodd" clip-rule="evenodd" d="M332.951 365.096C359.049 369.591 385.113 374.159 411.146 378.8C411.189 417.978 411.146 457.133 411.016 496.267C384.872 491.722 358.763 487.067 332.69 482.301C332.602 443.189 332.69 404.121 332.951 365.096Z" fill="#FEFEFE"/>
<path fill-rule="evenodd" clip-rule="evenodd" d="M491.3 365.096C491.43 365.096 491.561 365.096 491.691 365.096C491.691 404.164 491.691 443.233 491.691 482.301C465.281 486.978 438.867 491.633 412.452 496.267C412.452 457.068 412.452 417.868 412.452 378.67C422.419 376.985 432.384 375.288 442.346 373.58C442.563 377.69 442.693 381.822 442.738 385.979C442.779 386.282 442.953 386.455 443.26 386.501C449.273 385.462 455.278 384.375 461.275 383.238C461.365 383.169 461.43 383.083 461.471 382.977C461.536 378.714 461.558 374.45 461.536 370.186C471.466 368.538 481.388 366.841 491.3 365.096Z" fill="#FEFEFE"/>
<path fill-rule="evenodd" clip-rule="evenodd" d="M491.3 365.096C491.439 364.974 491.613 364.93 491.822 364.965C491.865 404.099 491.822 443.211 491.691 482.301C491.691 443.233 491.691 404.164 491.691 365.096C491.561 365.096 491.43 365.096 491.3 365.096Z" fill="#3F3F3F"/>
<path fill-rule="evenodd" clip-rule="evenodd" d="M291.699 365.879C292.003 365.879 292.309 365.879 292.613 365.879C292.591 366.968 292.613 368.055 292.678 369.143C292.786 369.251 292.896 369.361 293.004 369.469C305.804 371.696 318.597 373.938 331.384 376.192C331.426 377.616 331.383 379.031 331.254 380.435C328.119 380.97 324.986 381.514 321.854 382.067C301.836 378.548 281.819 375.046 261.805 371.558C261.604 371.52 261.429 371.432 261.282 371.297C271.447 369.516 281.586 367.711 291.699 365.879Z" fill="#FCFCFC"/>
<path fill-rule="evenodd" clip-rule="evenodd" d="M459.708 370.447C459.882 370.447 460.057 370.447 460.23 370.447C460.274 374.365 460.23 378.281 460.1 382.196C454.753 383.163 449.401 384.122 444.043 385.068C443.869 381.122 443.869 377.183 444.043 373.254C449.299 372.395 454.52 371.459 459.708 370.447Z" fill="#FCFCFC"/>
<path fill-rule="evenodd" clip-rule="evenodd" d="M257.758 372.144C278.903 375.866 300.051 379.564 321.202 383.238C321.332 414.954 321.375 446.67 321.332 478.386C300.136 474.669 278.945 470.927 257.758 467.161C257.758 435.488 257.758 403.817 257.758 372.144Z" fill="#FEFEFE"/>
<path fill-rule="evenodd" clip-rule="evenodd" d="M442.346 373.58C442.439 373.462 442.569 373.418 442.738 373.449C442.738 377.627 442.738 381.804 442.738 385.981C442.693 381.824 442.563 377.691 442.346 373.58Z" fill="#7D7D7D"/>
<path fill-rule="evenodd" clip-rule="evenodd" d="M411.146 378.8C411.234 398.378 411.277 417.978 411.277 437.599C411.234 457.199 411.189 476.797 411.146 496.397C411.067 496.382 411.023 496.337 411.016 496.267C411.146 457.133 411.189 417.978 411.146 378.8Z" fill="#3E3E3E"/>
<path fill-rule="evenodd" clip-rule="evenodd" d="M330.992 381.802C331.254 413.431 331.341 445.104 331.254 476.82C328.413 477.42 325.541 477.942 322.638 478.386C322.595 446.67 322.638 414.954 322.768 383.238C325.501 382.717 328.242 382.238 330.992 381.802Z" fill="#FEFEFE"/>
<path fill-rule="evenodd" clip-rule="evenodd" d="M330.993 381.802C331.085 381.685 331.216 381.641 331.384 381.672C331.427 413.41 331.384 445.126 331.254 476.82C331.341 445.104 331.254 413.431 330.993 381.802Z" fill="#7E7E7E"/>
<path fill-rule="evenodd" clip-rule="evenodd" d="M542.995 390.417C545.974 390 547.997 391.175 549.065 393.941C549.63 397.01 548.478 399.12 545.606 400.273C542.362 400.773 540.295 399.445 539.405 396.291C539.144 393.417 540.34 391.458 542.995 390.417Z" fill="#080808"/>
<path fill-rule="evenodd" clip-rule="evenodd" d="M543.647 391.591C545.845 391.505 547.258 392.506 547.89 394.594C548.081 397.622 546.667 399.123 543.647 399.097C541.371 398.399 540.392 396.853 540.71 394.463C541.162 392.946 542.141 391.988 543.647 391.591Z" fill="#FBFBFB"/>
<path fill-rule="evenodd" clip-rule="evenodd" d="M221.467 394.332C224.783 394.904 228.089 395.534 231.388 396.225C230.17 398.9 228.865 401.533 227.472 404.123C224.221 403.725 221.066 404.116 218.007 405.298C217.942 405.255 217.877 405.21 217.812 405.167C219.031 401.554 220.249 397.942 221.467 394.332Z" fill="#FCFCFC"/>
<path fill-rule="evenodd" clip-rule="evenodd" d="M115.335 398.9C115.507 399.793 115.507 400.707 115.335 401.642C115.256 401.626 115.212 401.582 115.204 401.511C115.334 400.665 115.377 399.794 115.335 398.9Z" fill="#454545"/>
<path fill-rule="evenodd" clip-rule="evenodd" d="M116.64 399.422C117.749 399.733 118.88 399.929 120.035 400.01C122.602 400.075 125.169 400.097 127.737 400.075C127.535 402.045 127.274 404.003 126.953 405.95C125.009 406.726 123.051 407.465 121.079 408.169C120.956 408.154 120.847 408.111 120.753 408.038C119.604 406.106 118.255 404.322 116.706 402.686C116.64 401.599 116.619 400.511 116.64 399.422Z" fill="#FDFDFD"/>
<path fill-rule="evenodd" clip-rule="evenodd" d="M210.893 400.205C211.545 400.205 212.198 400.205 212.851 400.205C212.941 403.255 213.071 406.302 213.242 409.343C210.936 409.321 208.629 409.343 206.324 409.409C205.693 409.692 205.236 410.149 204.953 410.779C204.727 411.727 204.554 412.684 204.431 413.651C204.165 413.342 203.86 413.081 203.517 412.868C203.025 408.868 202.568 404.864 202.146 400.858C205.086 400.707 208.001 400.49 210.893 400.205Z" fill="#FCFCFC"/>
<path fill-rule="evenodd" clip-rule="evenodd" d="M281.778 401.38C288.341 401.14 294.128 403.119 299.14 407.319C304.692 412.046 308.021 418.029 309.126 425.265C309.676 430.246 308.458 434.728 305.471 438.708C301.733 442.761 297.098 444.566 291.568 444.125C284.988 443.261 279.44 440.412 274.924 435.576C270.368 430.574 267.91 424.68 267.548 417.891C267.568 411.365 270.353 406.449 275.903 403.142C277.775 402.208 279.733 401.62 281.778 401.38Z" fill="#070707"/>
<path fill-rule="evenodd" clip-rule="evenodd" d="M162.722 401.38C165.804 401.75 168.894 402.054 171.991 402.294C171.679 404.735 171.332 407.172 170.946 409.604C170.587 409.104 170.261 408.582 169.967 408.038C169.336 407.304 168.531 406.978 167.552 407.059C164.88 406.313 163.422 407.292 163.179 409.996C162.665 409.594 162.426 409.072 162.461 408.429C162.592 406.081 162.679 403.731 162.722 401.38Z" fill="#FBFBFB"/>
<path fill-rule="evenodd" clip-rule="evenodd" d="M113.116 402.163C113.59 402.119 114.025 402.227 114.421 402.49C116.061 403.825 117.476 405.369 118.664 407.124C119.19 407.89 119.69 408.673 120.165 409.474C120.288 409.611 120.44 409.698 120.622 409.735C123.162 408.812 125.686 407.855 128.194 406.863C128.237 406.906 128.281 406.95 128.324 406.993C129.019 412.368 129.28 417.764 129.107 423.181C128.666 424.754 127.643 425.69 126.04 425.987C117.58 427.656 109.095 429.179 100.584 430.556C96.4504 430.844 92.5341 430.06 88.8347 428.207C88.2537 427.844 87.7098 427.43 87.2029 426.966C86.6007 426.124 86.4702 425.211 86.8113 424.225C87.1477 423.421 87.5828 422.681 88.1167 422.006C90.1126 419.792 92.3102 417.811 94.7092 416.066C97.4099 414.455 100.021 412.715 102.542 410.844C104.974 408.804 107.367 406.715 109.722 404.578C110.804 403.689 111.935 402.885 113.116 402.163Z" fill="#FDFDFD"/>
<path fill-rule="evenodd" clip-rule="evenodd" d="M282.953 402.555C291.015 402.92 297.52 406.269 302.469 412.605C305.368 416.34 307.153 420.56 307.821 425.265C308.363 429.64 307.406 433.643 304.949 437.273C301.353 441.518 296.763 443.366 291.177 442.82C284.588 441.8 279.171 438.733 274.924 433.618C271.172 429.132 269.149 423.954 268.854 418.086C268.77 412.357 271.077 407.897 275.773 404.708C278.009 403.419 280.402 402.701 282.953 402.555Z" fill="#FDFDFD"/>
<path fill-rule="evenodd" clip-rule="evenodd" d="M223.033 427.227C226.993 427.14 230.953 427.054 234.913 426.966C235.33 426.965 235.547 426.747 235.565 426.314C235.533 426.063 235.402 425.889 235.174 425.791C230.965 425.704 226.745 425.616 222.511 425.53C220.822 420.456 218.537 415.669 215.658 411.17C215.399 410.759 215.073 410.412 214.678 410.126C214.44 407.869 214.331 405.607 214.352 403.338C214.656 403.642 214.962 403.948 215.266 404.252C215.735 405.124 216.148 406.015 216.506 406.928C216.724 407.015 216.941 407.015 217.159 406.928C219.712 405.882 222.366 405.295 225.122 405.165C226.948 405.006 228.493 405.571 229.756 406.863C232.375 413.763 234.943 420.682 237.458 427.619C237.604 429.133 236.974 430.155 235.565 430.687C231.61 431.191 227.651 431.256 223.686 430.883C223.578 429.644 223.36 428.424 223.033 427.227Z" fill="#FDFDFD"/>
<path fill-rule="evenodd" clip-rule="evenodd" d="M294.049 431.399C294.041 431.329 293.998 431.284 293.918 431.269C293.788 433.311 293.745 435.356 293.788 437.403C293.559 438.998 292.645 439.628 291.046 439.295C288.686 438.55 286.424 437.593 284.258 436.424C283.164 435.476 282.534 434.281 282.365 432.835C282.343 430.788 282.278 428.744 282.169 426.7C280.119 425.865 278.074 425.017 276.034 424.155C274.761 423.328 273.956 422.175 273.619 420.697C273.531 418.39 273.531 416.085 273.619 413.779C274.099 412.658 274.948 412.201 276.164 412.409C278.2 413.188 280.223 413.993 282.235 414.823C282.278 412.692 282.322 410.559 282.365 408.428C282.757 407.068 283.648 406.525 285.041 406.796C287.309 407.604 289.528 408.518 291.699 409.537C292.685 410.356 293.36 411.379 293.722 412.604C293.766 414.866 293.81 417.13 293.853 419.391C295.78 420.169 297.717 420.931 299.662 421.675C301.118 422.474 302.097 423.67 302.599 425.265C302.687 427.571 302.687 429.876 302.599 432.182C301.994 433.545 300.971 434.002 299.532 433.553C297.707 432.822 295.879 432.104 294.049 431.399Z" fill="#4CAF50"/>
<path fill-rule="evenodd" clip-rule="evenodd" d="M165.072 408.298C166.261 408.24 167.436 408.305 168.597 408.493C169.353 409.503 170.027 410.57 170.62 411.691C170.946 412.148 171.316 412.192 171.73 411.821C171.982 411.13 172.222 410.434 172.448 409.733C172.501 409.673 172.566 409.63 172.644 409.603C174.224 411.776 175.508 414.125 176.495 416.651C178.618 422.108 180.403 427.677 181.847 433.357C182.293 435.822 181.314 437.367 178.91 437.99C172.877 438.944 166.828 439.075 160.764 438.382C159.198 437.774 158.327 436.643 158.153 434.988C158.82 431.145 159.452 427.294 160.046 423.438C160.447 418.829 160.816 414.217 161.156 409.603C161.836 410.463 162.533 411.311 163.244 412.148C163.799 412.332 164.126 412.136 164.223 411.56C164.351 410.418 164.633 409.33 165.072 408.298Z" fill="#FDFDFD"/>
<path fill-rule="evenodd" clip-rule="evenodd" d="M364.281 408.428C374.697 408.207 382.813 412.384 388.627 420.958C392.797 427.605 393.537 434.61 390.847 441.971C387.565 448.673 382.19 452.436 374.725 453.261C363.805 453.405 355.559 448.816 349.987 439.491C346.983 434.002 346.2 428.216 347.637 422.132C349.543 416.179 353.394 412.025 359.19 409.668C360.87 409.107 362.567 408.693 364.281 408.428Z" fill="#070707"/>
<path fill-rule="evenodd" clip-rule="evenodd" d="M105.414 409.733C105.678 409.712 105.939 409.733 106.197 409.798C108.05 411.695 109.943 413.545 111.876 415.346C112.093 416.128 111.811 416.455 111.027 416.326C109.051 414.48 107.115 412.587 105.218 410.647C105.109 410.298 105.174 409.994 105.414 409.733Z" fill="#080808"/>
<path fill-rule="evenodd" clip-rule="evenodd" d="M364.542 409.733C374.632 409.566 382.399 413.7 387.844 422.132C391.407 428.041 392.104 434.263 389.933 440.796C387.48 446.555 383.193 450.144 377.074 451.564C370.644 452.698 364.726 451.436 359.32 447.779C351.669 442.466 347.993 435.135 348.29 425.787C349.182 418.711 352.903 413.774 359.451 410.973C361.131 410.412 362.828 409.998 364.542 409.733Z" fill="#FDFDFD"/>
<path fill-rule="evenodd" clip-rule="evenodd" d="M206.715 410.647C208.804 410.625 210.893 410.647 212.981 410.712C213.853 410.974 214.484 411.519 214.874 412.344C217.693 416.804 219.912 421.548 221.532 426.573C221.948 427.961 222.232 429.376 222.38 430.816C222.331 432.484 221.505 433.528 219.9 433.949C213.765 434.036 207.629 434.036 201.494 433.949C199.59 433.145 198.85 431.709 199.274 429.641C199.511 424.35 200.469 419.193 202.146 414.171C202.428 413.853 202.732 413.832 203.06 414.106C203.534 414.711 204.056 415.277 204.627 415.803C205.458 415.93 205.828 415.559 205.736 414.694C205.824 413.555 205.954 412.425 206.128 411.299C206.261 411.014 206.457 410.797 206.715 410.647Z" fill="#FEFEFE"/>
<path fill-rule="evenodd" clip-rule="evenodd" d="M362.715 422.916C362.807 423.033 362.938 423.077 363.106 423.046C363.106 420.74 363.106 418.435 363.106 416.129C363.645 414.485 364.777 413.855 366.5 414.236C368.408 414.829 370.321 415.394 372.244 415.933C373.95 416.638 375.06 417.878 375.573 419.653C375.616 422.002 375.66 424.351 375.704 426.701C377.938 427.385 380.179 428.059 382.427 428.724C385.043 430.328 386.001 432.655 385.299 435.706C385.276 436.924 385.255 438.143 385.233 439.361C385.052 440.368 384.464 440.999 383.471 441.253C382.949 441.341 382.427 441.341 381.904 441.253C379.835 440.592 377.747 440.004 375.638 439.491C375.66 441.71 375.638 443.929 375.573 446.148C375.445 447.232 374.858 447.906 373.811 448.171C373.201 448.258 372.593 448.258 371.983 448.171C370.154 447.647 368.327 447.125 366.5 446.605C364.516 445.797 363.362 444.339 363.041 442.232C362.976 440.058 362.953 437.882 362.976 435.706C361.012 435.183 359.054 434.639 357.101 434.075C355.195 433.43 353.955 432.147 353.381 430.225C353.293 427.788 353.293 425.352 353.381 422.916C353.982 421.494 355.048 420.907 356.579 421.154C358.608 421.802 360.653 422.39 362.715 422.916Z" fill="#4CAF50"/>
<path fill-rule="evenodd" clip-rule="evenodd" d="M363.106 416.129C363.106 418.435 363.106 420.741 363.106 423.047C362.938 423.079 362.807 423.034 362.715 422.917C362.931 420.679 363.062 418.416 363.106 416.129Z" fill="#444444"/>
<path fill-rule="evenodd" clip-rule="evenodd" d="M126.301 421.219C127.147 421.001 127.517 421.306 127.41 422.133C127.292 422.289 127.14 422.398 126.953 422.459C119.604 424.337 112.163 425.73 104.63 426.636C100.924 427.113 97.2251 427.068 93.5343 426.506C91.9505 426.182 90.5798 425.464 89.4222 424.352C89.2044 423.57 89.4872 423.243 90.2707 423.373C91.6328 424.726 93.2863 425.424 95.2314 425.461C99.4251 425.737 103.602 425.563 107.764 424.939C114.043 424.105 120.222 422.865 126.301 421.219Z" fill="#070707"/>
<path fill-rule="evenodd" clip-rule="evenodd" d="M164.941 423.829C168.078 423.774 171.211 423.84 174.341 424.025C174.689 424.374 174.689 424.721 174.341 425.069C171.164 425.157 167.987 425.157 164.811 425.069C164.455 424.614 164.498 424.2 164.941 423.829Z" fill="#0E0E0E"/>
<path fill-rule="evenodd" clip-rule="evenodd" d="M222.511 425.526C226.745 425.612 230.965 425.7 235.174 425.787C230.908 425.873 226.686 425.786 222.511 425.526Z" fill="#7E7E7E"/>
<path fill-rule="evenodd" clip-rule="evenodd" d="M234.913 426.962C230.953 427.049 226.993 427.135 223.033 427.223C222.963 427.215 222.918 427.172 222.903 427.092C226.905 426.962 230.909 426.919 234.913 426.962Z" fill="#7D7D7D"/>
<path fill-rule="evenodd" clip-rule="evenodd" d="M201.885 429.963C207.76 429.941 213.634 429.963 219.509 430.029C219.976 430.359 220.02 430.751 219.639 431.204C213.722 431.291 207.803 431.291 201.885 431.204C201.371 430.798 201.371 430.384 201.885 429.963Z" fill="#090909"/>
<path fill-rule="evenodd" clip-rule="evenodd" d="M294.049 431.399C293.961 433.401 293.875 435.403 293.788 437.404C293.745 435.357 293.788 433.312 293.918 431.269C293.998 431.284 294.041 431.329 294.049 431.399Z" fill="#BBBBBB"/>
<path fill-rule="evenodd" clip-rule="evenodd" d="M160.111 433.227C162.537 433.617 164.973 433.943 167.422 434.206C171.59 434.537 175.702 434.211 179.758 433.227C180.552 433.465 180.661 433.879 180.084 434.467C173.56 435.941 167.033 435.941 160.503 434.467C159.973 434.193 159.842 433.779 160.111 433.227Z" fill="#070707"/>
<path fill-rule="evenodd" clip-rule="evenodd" d="M520.15 434.14C520.411 434.14 520.672 434.14 520.933 434.14C520.52 436.793 520.107 439.447 519.693 442.103C519.652 442.209 519.587 442.295 519.497 442.364C517.155 441.159 514.936 441.333 512.839 442.887C512.283 442.499 511.674 442.238 511.012 442.103C511.042 439.751 510.999 437.401 510.881 435.054C513.108 435.101 515.327 434.993 517.539 434.728C518.442 434.6 519.312 434.404 520.15 434.14Z" fill="#FCFCFC"/>
<path fill-rule="evenodd" clip-rule="evenodd" d="M515.32 442.885C517.945 442.73 520.056 443.686 521.651 445.756C525.875 453.594 529.749 461.599 533.269 469.772C533.666 471.786 532.905 473.112 530.985 473.752C527.913 474.012 524.868 473.839 521.847 473.23C520.51 472.806 519.335 472.111 518.322 471.142C514.658 467.48 511.285 463.586 508.205 459.461C508.005 458.992 507.832 458.513 507.683 458.025C507.595 453.63 507.595 449.237 507.683 444.843C508.928 443.096 510.43 442.835 512.187 444.06C512.295 446.32 512.36 448.583 512.382 450.847C512.835 451.228 513.227 451.183 513.557 450.716C513.6 448.454 513.645 446.191 513.688 443.929C514.207 443.528 514.751 443.181 515.32 442.885Z" fill="#FDFDFD"/>
<path fill-rule="evenodd" clip-rule="evenodd" d="M330.993 478.255C331.085 478.138 331.216 478.093 331.384 478.125C331.384 479.779 331.384 481.431 331.384 483.085C331.34 481.45 331.209 479.839 330.993 478.255Z" fill="#7B7B7B"/>
</g>
<defs>
<clipPath id="clip0_1_337">
<rect width="680" height="516" fill="white"/>
</clipPath>
</defs>
</svg>
