<svg width="1430" height="496" viewBox="0 0 1430 496" fill="none" xmlns="http://www.w3.org/2000/svg">
<g clip-path="url(#clip0_2_1010)">
<rect width="1430" height="496" rx="24" fill="#4CAF50"/>
<circle cx="1153" cy="580" r="427.5" stroke="url(#paint0_linear_2_1010)" stroke-width="91"/>
<circle cx="-203.273" cy="281.727" r="427.5" transform="rotate(-57.525 -203.273 281.727)" stroke="url(#paint1_linear_2_1010)" stroke-width="91"/>
<circle cx="363.5" cy="363.5" r="335" transform="matrix(0.967585 0.252544 0.252544 -0.967585 817 -18.5654)" stroke="url(#paint2_linear_2_1010)" stroke-width="57"/>
<path fill-rule="evenodd" clip-rule="evenodd" d="M1316.46 448.239C1314.78 448.32 1313.11 448.404 1311.46 448.489C1311.35 450.447 1311.23 452.405 1311.08 454.362C1311.12 454.653 1311.17 454.945 1311.21 455.237C1312.3 456.347 1313.28 457.556 1314.14 458.86C1317.03 463.805 1319.36 469.011 1321.14 474.479C1322.47 478.499 1323.72 482.539 1324.89 486.6C1325.38 489.688 1324.23 491.916 1321.45 493.284C1313.83 494.95 1306.12 495.45 1298.33 494.784C1295.58 494.36 1293.85 492.798 1293.15 490.098C1293.08 488.846 1293.12 487.597 1293.27 486.35C1294.39 475.972 1295.56 465.601 1296.77 455.237C1296.86 455.143 1296.96 455.1 1297.08 455.112C1297.25 455.112 1297.42 455.112 1297.58 455.112C1297.62 454.546 1297.58 454.003 1297.46 453.487C1297.37 451.78 1297.29 450.072 1297.21 448.364C1296.46 448.364 1295.71 448.364 1294.96 448.364C1293.43 428.977 1291.66 409.609 1289.65 390.262C1289.33 387.38 1288.95 384.506 1288.52 381.64C1283.43 371.666 1279.35 361.295 1276.28 350.527C1273.71 338.484 1270.37 326.656 1266.28 315.04C1264.54 310.109 1262.77 305.194 1260.97 300.296C1260.93 300.197 1260.87 300.114 1260.78 300.046C1260.72 302.92 1260.7 305.794 1260.72 308.668C1260.71 330.076 1260.67 351.485 1260.59 372.893C1266.22 373.455 1271.84 374.06 1277.46 374.705C1277.69 374.739 1277.88 374.844 1278.03 375.017C1278.11 415.127 1278.11 455.237 1278.03 495.346C1277.96 495.409 1277.9 495.471 1277.84 495.534C1206.19 495.617 1134.53 495.617 1062.88 495.534C1062.75 477.487 1062.71 459.431 1062.75 441.367C1060.71 440.878 1058.78 440.129 1056.94 439.118C1051.98 441.273 1046.79 442.044 1041.38 441.429C1037.88 441.096 1034.38 440.763 1030.89 440.43C1029.34 440.346 1027.8 440.346 1026.26 440.43C1019.94 441.132 1016.54 444.652 1016.08 450.988C1016.03 453.677 1016.09 456.364 1016.26 459.048C1016.36 461.757 1015.8 464.318 1014.58 466.732C1012.57 469.916 1009.67 471.728 1005.89 472.168C1003.85 472.379 1001.81 472.504 999.766 472.542C994.899 472.832 990.38 474.227 986.207 476.728C986.169 478.186 986.212 479.645 986.332 481.102C986.695 485.764 987.008 490.428 987.269 495.096C954.941 495.096 922.615 495.096 890.287 495.096C896.658 477.303 903.115 459.539 909.659 441.804C909.541 441.619 909.374 441.494 909.159 441.429C907.904 440.962 906.654 440.483 905.41 439.992C904.906 440.476 904.385 440.933 903.847 441.367C892.672 435.693 883.507 427.696 876.353 417.376C873.326 412.782 870.931 407.867 869.167 402.632C869.062 402.591 868.958 402.548 868.854 402.507C863.674 403.987 859.029 403.008 854.919 399.57C851.024 396.056 848.379 391.745 846.983 386.638C845.671 382.275 845.463 377.86 846.358 373.393C847.006 370.409 848.443 367.89 850.67 365.833C852.401 364.448 854.109 363.031 855.794 361.585C861.742 355.833 865.138 348.815 865.98 340.531C866.136 334.66 866.22 328.788 866.23 322.912C866.72 315.996 869.657 310.393 875.04 306.106C876.105 305.387 877.229 304.762 878.415 304.232C880.321 303.5 882.238 302.791 884.164 302.108C887.664 300.316 890.392 297.712 892.35 294.298C893.612 292.067 894.487 289.693 894.974 287.176C895.436 284.059 895.853 280.935 896.224 277.805C896.911 273.72 898.348 269.93 900.536 266.434C895.669 244.432 896.981 222.816 904.472 201.584C911.265 183.052 922.534 167.871 938.278 156.039C945.861 150.561 954.109 146.291 963.024 143.231C966.435 133.019 969.81 122.794 973.147 112.556C973.009 111.983 972.842 111.421 972.647 110.869C968.034 114.454 963.077 117.515 957.775 120.053C947.814 124.276 937.482 125.526 926.78 123.801C917.722 122.417 909.349 119.252 901.66 114.305C895.3 110.282 889.614 105.428 884.601 99.748C883.324 98.0962 882.095 96.4093 880.914 94.6875C879.658 94.6063 878.408 94.6687 877.165 94.8749C875.948 98.516 874.178 101.848 871.854 104.871C871.487 105.348 871.091 105.368 870.666 104.934C870.178 104.336 869.907 103.649 869.854 102.872C869.646 100.619 869.917 98.4323 870.666 96.3119C868.191 95.0236 865.941 93.4205 863.918 91.5012C861.236 92.8469 858.404 93.5342 855.419 93.5629C854.014 93.1568 852.993 92.3022 852.357 91.0014C852.274 90.7927 852.274 90.5853 852.357 90.3766C853.535 89.7981 854.722 89.2358 855.919 88.6898C854.801 87.9463 854.009 86.9467 853.545 85.6909C853.59 85.5385 853.652 85.3923 853.732 85.2536C854.454 85.0962 855.183 84.9512 855.919 84.8163C857.925 84.7713 859.925 84.7501 861.918 84.7538C861.265 83.8204 861.015 82.7996 861.168 81.6925C861.891 81.6288 862.599 81.7112 863.293 81.9424C866.044 82.8595 868.627 84.1091 871.041 85.6909C872.766 86.8118 874.474 87.9576 876.165 89.1271C876.592 88.8197 877.029 88.5286 877.477 88.2525C873.651 77.3691 874.817 67.0394 880.977 57.2644C885.61 49.9662 891.962 44.7807 900.036 41.7078C906.493 39.4827 912.701 40.0241 918.657 43.3322C921.367 45.0194 924.032 46.7688 926.655 48.5802C929.476 50.3858 932.517 51.6769 935.779 52.4537C942.048 53.5575 948.088 52.8078 953.9 50.2046C955.98 49.2487 957.979 48.1659 959.899 46.9558C963.115 44.7825 966.364 42.6583 969.647 40.5833C971.938 39.2083 974.396 38.292 977.021 37.8343C981.411 37.5063 985.243 38.7975 988.519 41.7078C990.007 43.1953 991.402 44.7572 992.705 46.3935C996.601 50.8714 1001.49 52.5999 1007.39 51.579C1013.46 50.7512 1018.71 48.2522 1023.14 44.0819C1026.12 41.7794 1028.85 42.0502 1031.32 44.8941C1032.35 46.2767 1033.18 47.7761 1033.82 49.3924C1034.62 51.4628 1035.37 53.5453 1036.07 55.64C1036.96 56.6566 1037.9 57.6355 1038.88 58.5764C1039.54 59.1324 1040.25 59.611 1041.01 60.0133C1041.88 60.9692 1041.98 62.01 1041.32 63.1371C1041.24 63.3458 1041.24 63.5532 1041.32 63.7619C1042.16 65.6511 1043.04 67.5254 1043.95 69.3847C1044.24 70.1369 1044.16 70.8442 1043.7 71.5089C1041.93 73.1333 1039.91 74.3615 1037.63 75.195C1036.27 75.6498 1034.9 76.0459 1033.51 76.382C1031.1 79.8195 1028.67 83.2344 1026.2 86.6281C1026.08 86.7855 1026.03 86.9517 1026.07 87.1279C1035.72 90.6203 1045.53 93.5567 1055.51 95.937C1058.5 96.648 1061.5 97.3352 1064.5 97.9987C1063.65 99.0371 1062.86 100.12 1062.13 101.247C1065.58 103.459 1069.28 105.105 1073.25 106.183C1079.13 107.649 1084.46 106.565 1089.25 102.934C1093.12 99.5881 1094.1 95.5272 1092.19 90.7515C1089.64 85.456 1085.64 81.7075 1080.19 79.5058C1079.25 80.0431 1078.36 79.9806 1077.5 79.3184C1077.19 78.9835 1076.85 78.6711 1076.5 78.3813C1075.68 79.2209 1074.81 79.9919 1073.88 80.6929C1072.79 81.1514 1071.75 81.0677 1070.75 80.443C1070.5 80.2768 1070.25 80.1093 1070 79.9432C1068.97 78.7811 1067.88 77.6565 1066.75 76.5695C1065.77 76.6432 1064.85 76.4345 1064 75.9447C1063.73 75.7573 1063.57 75.5074 1063.5 75.195C1063.71 74.7489 1063.9 74.3116 1064.07 73.883C1062.22 71.9087 1060.32 69.972 1058.38 68.0727C1056.47 68.1727 1054.58 68.4026 1052.69 68.7599C1052.29 68.6475 1051.92 68.4813 1051.57 68.2601C1050.37 68.6113 1049.33 68.3614 1048.44 67.5104C1046.91 64.609 1045.51 61.6514 1044.26 58.6388C1044.5 57.5705 1045.06 56.6952 1045.95 56.0148C1045.99 55.8899 1046.03 55.7649 1046.07 55.64C1056.95 45.0569 1067.86 34.5193 1078.81 24.0271C1078.52 22.8886 1078.79 21.9097 1079.63 21.0908C1080.73 20.4757 1081.86 19.8927 1083 19.3414C1083.95 19.1594 1084.82 19.3261 1085.62 19.8412C1088.09 23.3108 1090.36 26.9135 1092.44 30.6496C1095.2 31.1549 1097.36 32.5711 1098.93 34.898C1100.53 37.1403 1101.39 39.6394 1101.5 42.3951C1101.45 43.8655 1101.08 45.24 1100.37 46.5185C1101.99 50.42 1103.47 54.3767 1104.81 58.3889C1105.22 59.7047 1104.91 60.808 1103.87 61.7002C1102.71 62.3449 1101.5 62.8872 1100.25 63.3245C1099.78 63.417 1099.32 63.3745 1098.87 63.1996C1098.35 62.866 1097.85 62.5111 1097.37 62.1375C1087.83 63.5807 1078.29 65.0176 1068.75 66.4483C1068.92 66.6145 1069.09 66.782 1069.25 66.9481C1073.46 67.2818 1077.17 68.8224 1080.38 71.5714C1081.18 72.4585 1081.89 73.4169 1082.5 74.4453C1093.45 77.3217 1102.84 82.7983 1110.68 90.8765C1113.8 94.3201 1116.05 98.2774 1117.43 102.747C1118.86 108.84 1117.86 114.504 1114.43 119.74C1108.06 128.711 1099.45 134.354 1088.62 136.671C1082.71 137.79 1076.75 138.04 1070.75 137.421C1060.58 136.143 1050.9 133.248 1041.7 128.737C1041.14 129.262 1040.64 129.844 1040.2 130.486C1040.14 130.632 1040.06 130.757 1039.95 130.861C1039.86 137.942 1039.86 145.022 1039.95 152.103C1050.98 159.344 1060.35 168.34 1068.07 179.093C1075.8 168.614 1085.07 159.762 1095.87 152.54C1099.3 150.327 1102.88 148.369 1106.62 146.668C1106.82 143.368 1107.84 140.349 1109.68 137.609C1110.18 136.994 1110.79 136.515 1111.49 136.172C1114.33 134.783 1117.29 133.741 1120.37 133.048C1122.4 132.57 1124.44 132.133 1126.49 131.736C1130.16 131.969 1132.64 133.801 1133.93 137.234C1134.09 137.955 1133.94 138.601 1133.49 139.17C1146.85 137.915 1159.91 139.352 1172.67 143.481C1182.4 142.532 1191.8 140.22 1200.85 136.546C1206.36 134.087 1211.85 131.63 1217.35 129.174C1218.21 128.543 1219.07 127.898 1219.91 127.237C1220 127.113 1220 126.988 1219.91 126.863C1219.59 126.418 1219.23 126.002 1218.85 125.613C1216.37 127.07 1213.74 127.466 1210.98 126.8C1208.91 125.787 1207.03 124.495 1205.35 122.927C1204.4 122.965 1203.44 122.965 1202.48 122.927C1202.42 122.864 1202.35 122.802 1202.29 122.739C1201.85 120.663 1201.43 118.58 1201.04 116.492C1200.67 115.253 1200.09 114.129 1199.29 113.118C1197.59 111.817 1196.03 110.359 1194.6 108.745C1190.67 108.558 1187.48 106.934 1185.04 103.871C1184.35 102.869 1184.15 101.787 1184.42 100.623C1184.64 100.273 1184.91 99.9605 1185.23 99.6856C1186.76 98.7772 1188.26 97.8188 1189.73 96.8117C1191.72 95.2398 1193.45 93.428 1194.92 91.3763C1195.86 89.1846 1197.21 87.2891 1198.98 85.6909C1201.63 83.4268 1204.67 81.9274 1208.1 81.1927C1212.05 80.7616 1215.03 82.2398 1217.04 85.6285C1218.61 88.6061 1219.2 91.7724 1218.79 95.1248C1219.92 94.3176 1221.06 94.2976 1222.22 95.0623C1224.4 97.5964 1225.42 100.533 1225.29 103.871C1225.01 104.916 1224.33 105.478 1223.22 105.558C1227.89 109.641 1232.56 113.721 1237.22 117.804C1237.42 117.911 1237.63 117.995 1237.85 118.054C1241.97 118.58 1246.1 119.122 1250.22 119.678C1256.43 119.263 1262.47 120.096 1268.34 122.177C1273.18 124.26 1277.51 127.093 1281.34 130.674C1286.99 135.825 1291.39 141.886 1294.52 148.854C1298.39 157.542 1301.31 166.539 1303.27 175.844C1306.71 192.332 1308.92 208.992 1309.89 225.825C1310.91 242.553 1311.45 259.297 1311.52 276.055C1311.46 276.118 1311.39 276.18 1311.33 276.243C1309.75 276.293 1308.16 276.272 1306.58 276.18C1309.69 305.644 1312.97 335.091 1316.39 364.521C1316.96 369.362 1317.58 374.193 1318.27 379.016C1319.06 386.158 1319.41 393.322 1319.33 400.508C1319.2 416.469 1318.24 432.379 1316.46 448.239Z" fill="#1B092D"/>
<path fill-rule="evenodd" clip-rule="evenodd" d="M1083.5 20.4036C1084.22 20.2953 1084.78 20.5452 1085.19 21.1533C1093.21 33.0321 1099.44 45.8189 1103.87 59.5135C1103.82 59.9234 1103.66 60.277 1103.37 60.5756C1102.38 61.0742 1101.38 61.574 1100.37 62.0751C1099.71 62.2537 1099.15 62.1075 1098.69 61.6377C1093.99 48.1317 1087.74 35.4282 1079.94 23.5274C1079.77 22.8065 1080 22.2442 1080.63 21.8405C1081.61 21.395 1082.57 20.9161 1083.5 20.4036Z" fill="#FDFDFD"/>
<path fill-rule="evenodd" clip-rule="evenodd" d="M1079.38 25.1517C1079.66 25.3338 1079.89 25.5837 1080.06 25.9014C1086.71 36.2771 1092.17 47.2729 1096.44 58.8888C1096.7 59.5948 1096.91 60.302 1097.06 61.013C1082.35 63.2846 1067.62 65.4088 1052.88 67.3855C1050.93 63.6382 1049.12 59.8484 1047.44 56.0149C1058.08 45.6983 1068.72 35.4107 1079.38 25.1517Z" fill="#FEFEFE"/>
<path fill-rule="evenodd" clip-rule="evenodd" d="M976.896 39.0214C980.803 38.6648 984.261 39.7269 987.269 42.2077C989.09 44.028 990.818 45.923 992.455 47.893C996.395 51.9965 1001.21 53.6418 1006.89 52.8286C1012.05 52.289 1016.72 50.498 1020.89 47.4557C1022.18 46.3667 1023.52 45.3255 1024.89 44.3319C1026.93 43.3102 1028.7 43.6644 1030.2 45.3939C1031.81 47.6495 1032.97 50.1069 1033.7 52.7661C1033.12 52.2713 1032.47 51.8756 1031.76 51.5791C1030.39 51.1083 1029.2 51.3789 1028.2 52.3913C1027.38 53.5778 1026.58 54.7856 1025.82 56.0149C1025.07 56.7828 1024.17 57.3456 1023.14 57.7017C1021.73 58.7076 1021.25 60.0621 1021.7 61.7627C1021.95 62.5374 1022.26 63.2871 1022.64 64.0118C1022.48 64.1505 1022.32 64.1717 1022.14 64.0743C1021.11 63.5632 1020.02 63.3133 1018.89 63.3246C1017.7 63.8094 1017.34 64.6628 1017.83 65.8861C1018.37 67.6404 1019.43 68.9936 1021.01 69.947C1016.87 72.9571 1012.74 75.9972 1008.64 79.0685C1008.43 79.1522 1008.22 79.1522 1008.01 79.0685C997.851 74.2779 987.185 71.1965 976.021 69.8221C971.492 69.2273 966.95 68.7487 962.399 68.3851C962.399 68.5938 962.399 68.8012 962.399 69.0099C948.751 66.7332 935.17 67.0869 921.656 70.072C906.339 73.5032 892.008 79.3134 878.665 87.5028C875.399 79.0048 875.711 70.633 879.602 62.3874C883.667 53.9916 889.895 47.7649 898.286 43.7071C903.034 41.5137 907.949 41.0139 913.033 42.2077C914.675 42.7275 916.259 43.394 917.782 44.2069C920.948 46.2477 924.115 48.2887 927.28 50.3296C934.845 54.583 942.76 55.3328 951.026 52.5787C954.25 51.4876 957.291 50.0298 960.149 48.2054C963.573 45.907 967.03 43.6579 970.522 41.458C972.547 40.333 974.671 39.5208 976.896 39.0214Z" fill="#FEFEFE"/>
<path fill-rule="evenodd" clip-rule="evenodd" d="M1030.01 52.5162C1031.01 52.4761 1031.89 52.7885 1032.64 53.4534C1034.48 55.6725 1036.43 57.7967 1038.51 59.8259C1039.14 60.2783 1039.79 60.7156 1040.45 61.1379C1040.53 61.4716 1040.53 61.8039 1040.45 62.1375C1040.28 62.5686 1040.1 62.986 1039.88 63.3871C1040.83 65.5637 1041.8 67.7291 1042.82 69.8846C1042.91 70.2344 1042.87 70.5681 1042.7 70.8842C1040.18 72.9222 1037.33 74.2766 1034.13 74.9451C1031.51 75.38 1029.59 74.4216 1028.39 72.0712C1027.7 71.8426 1027.39 72.0725 1027.45 72.7585C1028.38 74.7527 1029.94 75.9185 1032.14 76.2571C1029.73 79.6621 1027.32 83.057 1024.89 86.4407C1021.47 86.4869 1018.14 85.9871 1014.89 84.9413C1012.68 84.1428 1010.91 82.7884 1009.58 80.8803C1009.41 80.5992 1009.33 80.3081 1009.33 80.0057C1013.74 76.7569 1018.16 73.5082 1022.57 70.2594C1022.66 70.0095 1022.66 69.7596 1022.57 69.5097C1021.33 68.8112 1020.29 67.8953 1019.45 66.7608C1019.05 66.1023 1018.88 65.3938 1018.95 64.6366C1019.29 64.4979 1019.65 64.4766 1020.01 64.5741C1020.88 64.9352 1021.78 65.2064 1022.7 65.3863C1023.68 65.3501 1024.05 64.8503 1023.82 63.8869C1023.44 63.0772 1023.11 62.2438 1022.82 61.3878C1022.54 60.3495 1022.81 59.4961 1023.64 58.8263C1024.27 58.4277 1024.94 58.0941 1025.64 57.8267C1025.85 57.6243 1026.08 57.4369 1026.32 57.2644C1027.22 56.0579 1028.05 54.8084 1028.82 53.5159C1029.17 53.1056 1029.57 52.7724 1030.01 52.5162Z" fill="#FDFDFD"/>
<path fill-rule="evenodd" clip-rule="evenodd" d="M1070.13 68.1353C1074.02 68.7563 1077.37 70.4219 1080.19 73.1333C1080.7 73.8631 1081.18 74.6128 1081.63 75.3825C1090.64 77.7878 1098.73 81.9312 1105.87 87.8152C1109.83 91.1864 1112.93 95.2061 1115.18 99.8731C1117.76 106.142 1117.38 112.223 1114.06 118.116C1108.4 126.599 1100.63 132.201 1090.75 134.922C1084.42 136.551 1078.01 137.01 1071.5 136.297C1061.27 135.123 1051.56 132.228 1042.38 127.612C1048.69 119.157 1055.01 110.703 1061.32 102.247C1065.64 105.021 1070.32 106.874 1075.38 107.808C1080.91 108.461 1085.87 107.087 1090.25 103.684C1094.36 99.8181 1095.33 95.2573 1093.19 90.0019C1090.41 84.304 1086.04 80.388 1080.06 78.2564C1079.73 78.445 1079.37 78.6112 1079 78.7562C1078.23 78.4276 1077.59 77.9277 1077.06 77.2568C1075.73 75.5624 1074.5 73.7931 1073.38 71.9463C1072.98 71.8163 1072.67 71.9201 1072.44 72.2587C1072.15 73.7568 1071.5 75.0688 1070.5 76.1947C1070.24 76.3996 1069.95 76.5458 1069.63 76.632C1069.42 75.8648 1069.13 75.1351 1068.75 74.4453C1068.54 74.3616 1068.34 74.3616 1068.13 74.4453C1067.17 75.3637 1066.08 75.5724 1064.88 75.0701C1066.61 72.7385 1068.36 70.4269 1070.13 68.1353Z" fill="#FEFEFE"/>
<path fill-rule="evenodd" clip-rule="evenodd" d="M940.153 68.76C947.799 68.4489 955.381 68.9899 962.899 70.3844C965.837 82.5959 968.774 94.8 971.709 106.995C967.861 104.749 963.841 102.854 959.649 101.31C948.81 97.5764 937.687 95.1186 926.281 93.9378C909.669 92.2772 893.047 92.1935 876.415 93.6879C875.228 97.2903 873.5 100.602 871.229 103.622C870.781 100.978 871.052 98.3949 872.041 95.8746C872.018 95.7434 871.977 95.6184 871.916 95.4997C869.098 94.2365 866.599 92.5084 864.417 90.3142C864.167 90.2305 863.918 90.2305 863.668 90.3142C861.366 91.4313 858.95 92.1598 856.419 92.5009C855.392 92.4297 854.538 92.0136 853.857 91.2514C853.763 91.1089 853.784 90.984 853.919 90.8765C855.322 90.2792 856.738 89.7169 858.169 89.1896C858.669 88.8148 858.669 88.4399 858.169 88.0651C856.837 88.0039 855.837 87.3991 855.169 86.2533C855.452 86.1521 855.744 86.0896 856.044 86.0658C856.981 86.0446 857.919 86.0246 858.856 86.0034C860.714 86.0234 862.568 86.0858 864.417 86.1908C864.689 85.9584 864.731 85.6872 864.542 85.3786C863.493 84.9538 862.785 84.2041 862.418 83.1295C862.501 83.0882 862.584 83.0458 862.668 83.0045C864.629 83.6105 866.504 84.4227 868.292 85.4411C870.877 86.983 873.377 88.6486 875.79 90.4392C875.999 90.5229 876.207 90.5229 876.415 90.4392C890.937 80.9316 906.726 74.3928 923.781 70.8217C929.217 69.8321 934.674 69.1448 940.153 68.76Z" fill="#FEFEFE"/>
<path fill-rule="evenodd" clip-rule="evenodd" d="M893.412 93.8753C906.211 93.5579 918.958 94.2027 931.655 95.8121C942.782 97.2203 953.53 100.053 963.898 104.309C966.763 105.573 969.512 107.032 972.147 108.682C972.267 108.896 972.35 109.124 972.397 109.369C956.892 122.499 939.271 126.394 919.532 121.052C911.797 118.809 904.715 115.311 898.286 110.556C893.797 107.319 889.694 103.633 885.976 99.4982C884.651 97.9238 883.422 96.2782 882.289 94.5626C885.996 94.2489 889.704 94.0203 893.412 93.8753Z" fill="#FEFEFE"/>
<path fill-rule="evenodd" clip-rule="evenodd" d="M1220.35 95.6247C1220.66 95.5997 1220.95 95.6622 1221.22 95.8121C1223.2 98.0375 1224.18 100.64 1224.16 103.622C1224.09 103.87 1223.94 104.058 1223.72 104.184C1222.69 104.353 1221.72 104.208 1220.79 103.747C1220.28 103.829 1220.11 104.12 1220.29 104.621C1225.78 109.376 1231.25 114.145 1236.72 118.928C1237.21 119.079 1237.71 119.204 1238.22 119.303C1245.02 120.155 1251.81 121.072 1258.59 122.052C1248.91 127.194 1238.67 130.692 1227.85 132.548C1224.28 133.037 1220.7 133.203 1217.1 133.048C1216.26 132.982 1215.42 132.857 1214.6 132.673C1216.87 130.986 1219.14 129.299 1221.41 127.612C1221.5 127.362 1221.5 127.113 1221.41 126.863C1220.89 126.175 1220.37 125.488 1219.85 124.801C1220.83 123.86 1221.77 122.882 1222.66 121.865C1223.21 121.076 1223.03 120.681 1222.1 120.678C1220.89 122.266 1219.47 123.64 1217.85 124.801C1216 125.802 1214.05 126.177 1211.98 125.926C1209.73 124.848 1207.69 123.474 1205.85 121.802C1204.97 121.725 1204.1 121.745 1203.23 121.865C1202.94 120.069 1202.63 118.277 1202.29 116.492C1201.78 114.414 1200.72 112.686 1199.1 111.306C1198.4 110.813 1197.73 110.27 1197.1 109.682C1196.66 109.263 1196.25 108.826 1195.85 108.37C1196.45 108.136 1197.03 107.865 1197.6 107.558C1198.1 107.183 1198.6 106.808 1199.1 106.433C1200.69 104.684 1202.27 102.934 1203.85 101.185C1204.42 100.754 1205.05 100.422 1205.73 100.185C1207.2 100.079 1208.58 100.413 1209.85 101.185C1210.55 101.595 1211.22 102.052 1211.85 102.56C1212.94 103.688 1214.06 104.771 1215.23 105.808C1216.43 106.099 1217.41 105.746 1218.16 104.746C1218.43 104.143 1218.39 103.56 1218.04 102.997C1216.91 101.754 1216.41 100.295 1216.54 98.6235C1216.75 97.9763 1217.17 97.519 1217.79 97.2491C1218.09 97.3728 1218.41 97.394 1218.72 97.3115C1218.96 96.4306 1219.5 95.8683 1220.35 95.6247Z" fill="#FEFEFE"/>
<path fill-rule="evenodd" clip-rule="evenodd" d="M1261.22 121.49C1266.87 122.461 1271.95 124.69 1276.46 128.175C1282.92 133.089 1288.07 139.108 1291.9 146.23C1296.22 154.901 1299.43 163.98 1301.52 173.47C1304.18 185.175 1306.1 197.003 1307.27 208.956C1308.53 221.421 1309.36 233.917 1309.77 246.442C1310 255.979 1310.18 265.517 1310.33 275.056C1299.65 274.893 1288.98 275.289 1278.34 276.243C1262.41 277.676 1246.54 279.572 1230.72 281.928C1232.62 276.771 1234.22 271.523 1235.53 266.184C1238.58 251.986 1239.06 237.7 1236.97 223.326C1251.43 218.138 1263.74 209.807 1273.9 198.335C1273.99 198.127 1273.99 197.919 1273.9 197.71C1265.05 192.05 1256.16 186.47 1247.22 180.967C1247.02 180.984 1246.85 181.067 1246.72 181.217C1241.82 187.18 1236.07 192.115 1229.47 196.024C1229.35 196.107 1229.22 196.107 1229.1 196.024C1222.5 180.866 1212.71 168.163 1199.73 157.913C1192.28 152.19 1184.12 147.692 1175.23 144.418C1184.42 143.278 1193.3 140.945 1201.85 137.421C1205.43 135.867 1209 134.264 1212.54 132.61C1212.54 132.964 1212.65 133.276 1212.85 133.548C1216.06 134.301 1219.31 134.551 1222.6 134.297C1227.61 134.005 1232.52 133.172 1237.35 131.798C1245.61 129.434 1253.53 126.207 1261.09 122.115C1261.21 121.921 1261.25 121.713 1261.22 121.49Z" fill="#FEFEFE"/>
<path fill-rule="evenodd" clip-rule="evenodd" d="M1125.74 132.985C1129.06 132.799 1131.37 134.215 1132.68 137.234C1132.84 137.785 1132.73 138.263 1132.37 138.671C1128.83 139.25 1126.35 141.187 1124.93 144.481C1124.05 148.297 1122.12 151.442 1119.12 153.915C1115.61 155.997 1112.43 155.6 1109.56 152.728C1107.93 150.294 1107.43 147.628 1108.06 144.731C1108.41 142.513 1109.2 140.472 1110.43 138.608C1110.7 138.171 1111.06 137.817 1111.49 137.546C1113.71 136.337 1116.04 135.421 1118.49 134.797C1120.92 134.15 1123.33 133.546 1125.74 132.985Z" fill="#FDFDFD"/>
<path fill-rule="evenodd" clip-rule="evenodd" d="M989.732 140.033C1012.98 139.443 1033.31 146.753 1050.72 161.962C1057.18 167.625 1062.87 173.935 1067.78 180.892C1068.27 181.261 1068.69 181.177 1069.03 180.642C1077.85 168.282 1088.83 158.348 1101.96 150.841C1103.55 149.963 1105.17 149.151 1106.83 148.405C1106.98 151.181 1108.11 153.45 1110.21 155.215C1113.25 157.154 1116.38 157.279 1119.58 155.59C1121.94 153.936 1123.71 151.791 1124.89 149.155C1125.48 147.715 1126.03 146.257 1126.52 144.781C1127.23 143.316 1128.3 142.17 1129.7 141.345C1152.63 138.19 1173.83 142.771 1193.32 155.09C1209.08 165.687 1220.75 179.702 1228.31 197.136C1223.55 199.825 1218.51 201.762 1213.19 202.946L1180.7 166.335L1129.45 157.839L1112.5 163.624L1098.09 172.958L1082.4 189.639C1077.74 196.191 1073.01 202.689 1068.22 209.131C1063.7 202.766 1059.12 196.456 1054.47 190.201C1053.8 190.059 1055.04 190.454 1055.17 191.138C1055.17 191.138 1063.5 202.56 1068.22 209.131C1072.91 202.698 1082.4 189.639 1082.4 189.639L1098.09 172.958L1112.5 163.624L1120.98 160.731L1129.45 157.839L1180.7 166.335L1213.19 202.946C1197.22 206.019 1180.44 204.978 1165.32 198.948C1161.3 194.466 1157.32 189.946 1153.39 185.391C1152.85 184.913 1152.29 184.892 1151.7 185.328C1151.14 185.738 1150.85 186.279 1150.83 186.953C1151.42 189.954 1152.05 192.953 1152.7 195.949C1152.61 197.166 1151.99 197.957 1150.83 198.323C1150.28 198.407 1149.74 198.407 1149.2 198.323C1145.04 195.033 1140.87 191.742 1136.7 188.452C1134.66 187.444 1133.18 187.965 1132.27 190.014C1132.18 190.555 1132.18 191.097 1132.27 191.638C1132.94 193.722 1133.44 195.847 1133.77 198.011C1135.7 202.646 1138.47 206.707 1142.08 210.194C1143.32 211.016 1144.7 211.473 1146.2 211.568C1147.86 211.775 1149.53 211.9 1151.2 211.943C1155.24 211.995 1159.28 211.954 1163.32 211.818C1171.83 217.488 1181 221.819 1190.82 224.813C1200.05 227.498 1209.47 228.477 1219.06 227.749L1213.5 275.606L1197.13 304.595L1176.01 329.085L1143.01 359.949L1143.06 359.903L1176.01 329.085L1197.13 304.595L1213.5 275.606L1219.06 227.749C1224.47 227.152 1230.88 225.903 1236.06 224.251C1239.65 249.082 1235.59 272.573 1223.87 294.724C1217.74 306.003 1210.49 316.499 1202.13 326.212C1194.72 334.698 1186.96 342.883 1178.82 350.765C1170.39 358.779 1161.81 366.61 1153.08 374.256C1148.27 375.049 1143.48 375.881 1138.7 376.755C1138.64 376.817 1138.58 376.88 1138.52 376.942C1138.47 380.275 1138.43 383.606 1138.39 386.938C1126.46 397.122 1114.52 407.305 1102.59 417.489C1102.36 417.711 1102.09 417.816 1101.77 417.801C1098.42 417.435 1095.07 417.123 1091.71 416.864C1083.84 419.196 1075.97 421.507 1068.09 423.799C1068.56 420.102 1067.62 416.812 1065.28 413.928C1062.44 410.642 1059 408.164 1054.97 406.493C1046.28 402.737 1037.32 401.904 1028.1 403.994C1027.03 404.32 1025.99 404.716 1024.98 405.181C1024.93 405.14 1024.89 405.098 1024.85 405.056C1025.1 404.069 1025.29 403.07 1025.41 402.057C1025.61 398.513 1025.86 394.973 1026.16 391.436C1026.94 385.58 1030 381.435 1035.35 379.004C1037.09 378.415 1038.88 378.082 1040.72 378.004C1045.01 378.043 1049.3 378.084 1053.59 378.129C1061.97 377.797 1069.67 375.38 1076.72 370.882C1081.27 368.04 1085.33 364.604 1088.9 360.573C1090.65 358.537 1091.98 356.246 1092.9 353.701C1094.04 350.556 1093.74 347.557 1092.02 344.704C1090.16 342.002 1087.8 339.815 1084.96 338.144C1077.95 334.351 1070.45 332.31 1062.47 332.022C1052.81 331.437 1044.06 333.936 1036.22 339.519C1032.72 342.019 1029.62 344.956 1026.91 348.328C1026.21 349.348 1025.55 350.39 1024.91 351.452C1023.64 354.172 1022.43 356.921 1021.29 359.699C1018.98 362.841 1015.88 364.611 1011.98 365.009C1011.06 365.03 1010.14 365.05 1009.23 365.072C1006.31 364.964 1003.4 364.943 1000.48 365.009C994.667 365.675 990.522 368.654 988.045 373.943C987.548 375.059 987.091 376.184 986.67 377.317C986.046 376.818 985.463 376.276 984.92 375.693C983.954 371.328 982.871 366.996 981.671 362.698C979.859 355.075 978.505 347.37 977.609 339.581C985.116 340.637 992.574 340.367 999.98 338.769C1016.85 334.477 1027.37 323.876 1031.54 306.969C1034.72 288.396 1030.03 272.131 1017.48 258.175C1016.93 258.144 1016.39 258.144 1015.85 258.175C1014.63 256.541 1013.42 254.896 1012.23 253.24C1014.79 251.328 1017.18 249.204 1019.41 246.867C1020.03 246.17 1020.49 245.379 1020.79 244.493C1020.87 243.743 1020.87 242.993 1020.79 242.244C1020.33 239.427 1019.74 236.637 1019.04 233.872C1018.91 233.45 1018.64 233.305 1018.23 233.435C1017.13 234.908 1015.98 236.345 1014.79 237.745C1013.19 239.507 1011.38 240.987 1009.35 242.181C1007.81 242.612 1006.35 243.237 1004.98 244.056C1001.97 246.663 1001.15 249.85 1002.54 253.614C1003.76 255.795 1004.9 258.003 1005.98 260.237C1005.29 260.237 1005.06 260.57 1005.29 261.236C1008.55 267.825 1010.55 274.781 1011.29 282.103C1011.58 285.656 1011.03 289.071 1009.67 292.35C1008.41 294.809 1006.6 296.745 1004.23 298.16C1001.62 299.733 998.833 300.858 995.856 301.534C993.827 301.917 991.786 302.208 989.732 302.408C982.736 302.633 975.737 302.758 968.736 302.783C957.513 302.879 946.474 304.316 935.617 307.094C932.267 303.881 930.642 299.924 930.743 295.223C932.663 295.015 934.496 294.494 936.242 293.662C937.014 293.118 937.431 292.368 937.492 291.412C936.717 288.414 935.925 285.415 935.117 282.416C935.683 281.849 936.162 281.203 936.555 280.479C936.824 279.734 936.803 279.005 936.492 278.292C935.845 278.119 935.262 277.828 934.742 277.418C934.221 276.897 933.701 276.377 933.18 275.856C931.805 273.857 930.431 271.857 929.056 269.858C928.972 269.65 928.972 269.442 929.056 269.233C930.228 267.468 931.062 265.552 931.555 263.486C931.978 260.835 931.166 258.649 929.118 256.926C926.254 255.023 923.088 254.085 919.62 254.114C915.674 254.118 912.133 255.305 908.997 257.675C906.138 259.88 903.722 262.482 901.749 265.485C899.299 254.869 898.487 244.123 899.312 233.247C900.491 214.922 905.949 198.012 915.684 182.517C929.896 160.795 949.747 147.195 975.235 141.72C980.049 140.84 984.88 140.278 989.732 140.033Z" fill="url(#paint3_linear_2_1010)"/>
<path fill-rule="evenodd" clip-rule="evenodd" d="M1250.34 149.479C1250.85 149.364 1251.14 149.551 1251.22 150.041C1249.42 157.968 1246.57 165.487 1242.66 172.595C1241.89 173.803 1241.12 175.01 1240.35 176.219C1241.55 177.155 1242.78 178.072 1244.03 178.968C1244.13 179.434 1243.94 179.725 1243.47 179.842C1241.9 178.879 1240.38 177.837 1238.91 176.718C1238.82 176.51 1238.82 176.302 1238.91 176.094C1242.17 171.519 1244.76 166.562 1246.66 161.224C1247.98 157.322 1249.21 153.407 1250.34 149.479Z" fill="#080808"/>
<path fill-rule="evenodd" clip-rule="evenodd" d="M1290.09 172.22C1290.44 172.164 1290.76 172.248 1291.02 172.47C1291.04 181.428 1289 189.883 1284.9 197.835C1283.98 199.453 1282.91 200.974 1281.71 202.396C1281.5 202.48 1281.3 202.48 1281.09 202.396C1279.76 201.774 1278.43 201.149 1277.09 200.522C1276.78 199.751 1277.03 199.419 1277.84 199.522C1278.86 200.046 1279.91 200.546 1280.96 201.022C1281.09 201.105 1281.21 201.105 1281.34 201.022C1284.79 196.265 1287.14 190.995 1288.4 185.215C1289.3 180.921 1289.86 176.589 1290.09 172.22Z" fill="#080808"/>
<path fill-rule="evenodd" clip-rule="evenodd" d="M1247.22 182.466C1255.61 187.587 1263.97 192.792 1272.28 198.085C1272.36 198.169 1272.36 198.251 1272.28 198.335C1261.43 210.331 1248.25 218.724 1232.72 223.513C1216.71 227.841 1200.93 227.134 1185.36 221.389C1177.57 218.394 1170.2 214.645 1163.24 210.143C1158.74 210.302 1154.24 210.344 1149.74 210.268C1148.32 210.171 1146.9 210.046 1145.49 209.893C1144.31 209.785 1143.27 209.368 1142.36 208.644C1139.7 205.941 1137.47 202.921 1135.68 199.585C1134.86 198.285 1134.44 196.868 1134.43 195.336C1133.96 193.699 1133.52 192.055 1133.12 190.401C1133.35 189.128 1134.1 188.586 1135.37 188.776C1139.73 192.103 1144.07 195.476 1148.36 198.897C1150.23 199.507 1151.79 199.07 1153.05 197.586C1153.57 196.647 1153.74 195.647 1153.55 194.587C1152.93 191.924 1152.33 189.259 1151.74 186.59C1151.78 186.254 1151.95 186.004 1152.24 185.84C1156.25 190.342 1160.25 194.862 1164.23 199.397C1178.53 205.196 1193.32 206.987 1208.6 204.77C1224.22 201.965 1237.09 194.53 1247.22 182.466Z" fill="#FEFEFE"/>
<path fill-rule="evenodd" clip-rule="evenodd" d="M1017.89 235.071C1018.46 236.853 1018.9 238.686 1019.2 240.569C1019.38 241.772 1019.42 242.981 1019.33 244.193C1018.53 245.485 1017.55 246.63 1016.39 247.629C1014.58 249.218 1012.71 250.718 1010.76 252.127C1010.6 252.227 1010.52 252.373 1010.51 252.564C1011.66 254.439 1012.93 256.229 1014.33 257.937C1014.39 258.056 1014.41 258.181 1014.39 258.312C1011.93 258.718 1009.48 259.072 1007.02 259.374C1005.81 257.198 1004.62 255.011 1003.45 252.814C1002.22 249.704 1002.82 247.018 1005.27 244.755C1005.81 244.359 1006.39 244.025 1007.02 243.755C1008.97 243.277 1010.72 242.402 1012.26 241.131C1014.38 239.328 1016.25 237.309 1017.89 235.071Z" fill="#FDFDFD"/>
<path fill-rule="evenodd" clip-rule="evenodd" d="M1016.01 258.937C1016.27 258.917 1016.52 258.937 1016.76 258.999C1027.85 271.443 1032.54 286 1030.82 302.67C1029.18 314.249 1023.75 323.558 1014.51 330.597C1007.72 335.164 1000.23 337.747 992.018 338.344C986.984 338.679 981.964 338.533 976.958 337.907C976.665 337.882 976.415 337.965 976.209 338.157C976.125 338.698 976.125 339.24 976.209 339.781C976.908 345.396 977.824 350.978 978.958 356.524C980.44 362.91 981.981 369.282 983.582 375.642C983.822 377.185 983.822 378.726 983.582 380.265C983.06 382.08 981.872 383.142 980.02 383.452C963.326 383.438 947.746 387.561 933.279 395.822C931.23 396.49 929.23 397.283 927.28 398.196C921.334 399.419 917.022 397.316 914.345 391.886C911.351 379.412 908.435 366.917 905.597 354.4C905.106 354.032 904.69 354.115 904.347 354.65C898.139 363.192 894.43 372.73 893.224 383.264C892.023 402.076 898.501 417.632 912.658 429.934C909.673 433.304 906.673 436.656 903.66 439.992C893.508 434.613 885.031 427.282 878.227 418.001C870.007 405.964 866.3 392.637 867.104 378.016C868.217 361.223 874.216 346.478 885.101 333.783C890.246 328.329 896.14 323.893 902.785 320.476C905.32 320.713 907.86 320.922 910.409 321.101C918.691 321.73 926.814 320.897 934.779 318.602C940.08 317 944.726 314.313 948.714 310.542C950.199 309.031 951.407 307.325 952.338 305.419C952.441 305.144 952.378 304.916 952.151 304.732C956.676 304.183 961.216 303.808 965.773 303.607C972.271 303.464 978.769 303.38 985.269 303.357C990.497 303.397 995.58 302.564 1000.52 300.858C1003.74 299.594 1006.51 297.698 1008.83 295.173C1010.99 292.112 1012.15 288.697 1012.33 284.927C1012.44 281.51 1012.11 278.136 1011.33 274.806C1010.75 272.356 1010.04 269.939 1009.2 267.559C1008.32 265.3 1007.42 263.05 1006.52 260.811C1009.55 260.24 1012.59 259.719 1015.64 259.249C1015.82 259.202 1015.94 259.098 1016.01 258.937Z" fill="#FEFEFE"/>
<path fill-rule="evenodd" clip-rule="evenodd" d="M923.406 267.309C923.701 267.289 923.992 267.309 924.281 267.371C925.904 268.236 927.3 269.38 928.468 270.807C929.697 272.767 930.988 274.682 932.342 276.555C933.197 277.472 934.175 278.222 935.279 278.804C935.436 279.207 935.374 279.582 935.091 279.929C934.427 280.467 933.905 281.113 933.529 281.866C933.692 282.213 933.838 282.567 933.967 282.928C934.553 285.271 935.178 287.603 935.841 289.925C936.211 290.811 936.066 291.581 935.404 292.237C932.203 293.574 928.87 294.116 925.406 293.861C922.95 293.404 920.825 292.322 919.032 290.612C918.166 290.436 917.896 290.748 918.22 291.549C921.352 294.433 925.038 295.599 929.28 295.048C929.374 300.044 931.165 304.313 934.654 307.856C934.845 307.971 935.054 308.033 935.279 308.043C940.288 307.09 945.329 306.34 950.401 305.794C950.526 305.815 950.651 305.835 950.776 305.856C948.42 309.419 945.379 312.251 941.653 314.353C936.777 316.922 931.612 318.588 926.156 319.351C918.907 320.26 911.658 320.26 904.41 319.351C907.848 317.257 911.431 315.425 915.158 313.853C915.304 313.791 915.408 313.687 915.47 313.541C916.219 310.592 916.594 307.593 916.595 304.544C916.679 300.88 916.679 297.213 916.595 293.549C916.547 292.504 916.465 291.463 916.345 290.425C915.426 289.893 914.489 289.372 913.533 288.863C911.44 287.406 910.794 285.469 911.596 283.053C912.016 282.502 912.537 282.398 913.158 282.74C914.247 283.454 915.121 284.371 915.783 285.489C916.134 285.604 916.404 285.5 916.595 285.177C917.157 283.513 917.49 281.806 917.595 280.054C919.408 279.46 920.783 278.336 921.719 276.68C921.959 276.117 922.126 275.533 922.219 274.931C922.284 272.843 922.241 270.76 922.094 268.683C922.304 267.993 922.741 267.536 923.406 267.309Z" fill="#FDFDFD"/>
<path fill-rule="evenodd" clip-rule="evenodd" d="M1260.97 300.296C1260.88 303.086 1260.8 305.878 1260.72 308.668C1260.7 305.794 1260.72 302.92 1260.78 300.046C1260.87 300.114 1260.93 300.197 1260.97 300.296Z" fill="#3F3F3F"/>
<path fill-rule="evenodd" clip-rule="evenodd" d="M1224.1 363.897C1224.1 365.48 1224.1 367.062 1224.1 368.645C1223.85 368.645 1223.6 368.645 1223.35 368.645C1215.5 367.784 1207.64 366.909 1199.79 366.021C1184.95 368.546 1170.1 370.983 1155.24 373.33C1166.89 363.143 1178.2 352.542 1189.17 341.53C1198.68 331.859 1207.34 321.529 1215.16 310.542C1217.25 307.545 1219.2 304.462 1221.04 301.296C1222.51 322.139 1223.53 343.006 1224.1 363.897Z" fill="#FEFEFE"/>
<path fill-rule="evenodd" clip-rule="evenodd" d="M1056.51 332.784C1064.93 332.264 1073.01 333.658 1080.75 336.969C1084.36 338.555 1087.47 340.825 1090.06 343.779C1092.44 347.068 1092.78 350.567 1091.06 354.275C1089.4 357.559 1087.22 360.454 1084.5 362.959C1077.85 369.117 1070.1 373.324 1061.25 375.58C1059.11 375.994 1056.94 376.286 1054.76 376.454C1049.71 376.483 1044.67 376.483 1039.63 376.454C1032.44 377.145 1027.71 380.915 1025.45 387.762C1025.05 389.409 1024.76 391.075 1024.57 392.761C1024.42 396.142 1024.17 399.515 1023.82 402.882C1023.68 403.774 1023.47 404.648 1023.2 405.506C1019.97 407.362 1017.34 409.861 1015.33 413.003C1014.64 414.127 1013.95 415.252 1013.26 416.376C1011.7 417.027 1010.08 417.465 1008.39 417.688C1004.96 417.971 1001.54 418.387 998.142 418.938C993.214 420.116 990.235 423.178 989.206 428.122C989.144 429.538 989.122 430.953 989.144 432.37C987.044 432.931 985.086 433.806 983.27 434.994C983.137 433.871 983.012 432.746 982.895 431.621C983.647 429.824 984.502 428.075 985.457 426.373C1002.65 396.059 1026.63 372.713 1057.38 356.337C1062.74 353.597 1068.17 351.077 1073.69 348.777C1074.02 348.096 1073.87 347.534 1073.25 347.091C1072.79 347.007 1072.34 347.007 1071.88 347.091C1061.87 350.241 1052.33 354.448 1043.26 359.711C1017.27 374.824 996.961 395.503 982.332 421.749C982.091 420.133 982.007 418.508 982.082 416.876C984.443 413.685 985.4 410.104 984.957 406.13C984.281 401.571 984.031 396.99 984.207 392.386C984.859 386.318 986.318 380.445 988.581 374.767C990.817 369.366 994.836 366.347 1000.64 365.708C1003.35 365.618 1006.06 365.681 1008.76 365.896C1012.92 366.115 1016.63 364.969 1019.89 362.46C1020.76 361.716 1021.49 360.863 1022.07 359.898C1023.24 357.233 1024.41 354.566 1025.57 351.901C1027.1 349.117 1029.04 346.64 1031.39 344.467C1036.17 339.822 1041.76 336.448 1048.13 334.345C1050.89 333.556 1053.68 333.036 1056.51 332.784Z" fill="#FEFEFE"/>
<path fill-rule="evenodd" clip-rule="evenodd" d="M1069.63 349.277C1069.59 349.172 1069.5 349.131 1069.38 349.152C1070.14 348.836 1070.93 348.606 1071.75 348.465C1071.04 348.725 1070.33 348.995 1069.63 349.277Z" fill="#ADADAD"/>
<path fill-rule="evenodd" clip-rule="evenodd" d="M1069.38 349.152C1069.5 349.131 1069.59 349.172 1069.63 349.277C1041.47 361.47 1017.91 379.629 998.954 403.756C992.89 411.658 987.516 420.03 982.832 428.872C982.571 427.172 982.489 425.464 982.582 423.749C997.831 395.966 1019.31 374.37 1047.01 358.961C1054.17 355.006 1061.62 351.736 1069.38 349.152Z" fill="#FAFAFA"/>
<path fill-rule="evenodd" clip-rule="evenodd" d="M1224.1 363.897C1224.22 365.498 1224.26 367.123 1224.22 368.77C1223.9 368.807 1223.61 368.766 1223.35 368.645C1223.6 368.645 1223.85 368.645 1224.1 368.645C1224.1 367.062 1224.1 365.48 1224.1 363.897Z" fill="#A5A5A5"/>
<path fill-rule="evenodd" clip-rule="evenodd" d="M1199.1 367.395C1199.23 409.733 1199.27 452.092 1199.23 494.472C1189.69 494.472 1180.15 494.472 1170.61 494.472C1170.63 471.272 1170.61 448.073 1170.55 424.873C1170.18 424.677 1169.78 424.573 1169.36 424.561C1159.4 423.469 1149.45 422.407 1139.49 421.375C1139.45 406.663 1139.49 391.961 1139.61 377.267C1145.98 376.158 1152.35 375.116 1158.74 374.143C1158.82 382.848 1158.9 391.552 1158.99 400.258C1159.2 400.571 1159.52 400.696 1159.92 400.633C1166.31 400.048 1172.69 399.382 1179.04 398.633C1179.11 389.303 1179.13 379.974 1179.11 370.644C1185.77 369.535 1192.43 368.451 1199.1 367.395Z" fill="#FEFEFE"/>
<path fill-rule="evenodd" clip-rule="evenodd" d="M1201.1 367.395C1200.89 367.395 1200.69 367.395 1200.48 367.395C1200.48 409.713 1200.48 452.029 1200.48 494.347C1200.48 494.388 1200.48 494.43 1200.48 494.472C1200.35 452.092 1200.31 409.692 1200.35 367.27C1200.63 367.234 1200.88 367.275 1201.1 367.395Z" fill="#3F3F3F"/>
<path fill-rule="evenodd" clip-rule="evenodd" d="M1201.1 367.395C1226.37 370.22 1251.61 373.053 1276.84 375.892C1276.84 415.377 1276.84 454.862 1276.84 494.347C1251.38 494.347 1225.93 494.347 1200.48 494.347C1200.48 452.029 1200.48 409.713 1200.48 367.395C1200.69 367.395 1200.89 367.395 1201.1 367.395Z" fill="#FEFEFE"/>
<path fill-rule="evenodd" clip-rule="evenodd" d="M1199.1 367.395C1199.11 367.328 1199.15 367.285 1199.23 367.27C1199.27 388.471 1199.31 409.67 1199.35 430.871C1199.35 452.092 1199.31 473.292 1199.23 494.472C1199.27 452.092 1199.23 409.733 1199.1 367.395Z" fill="#3E3E3E"/>
<path fill-rule="evenodd" clip-rule="evenodd" d="M1177.36 370.894C1177.57 370.894 1177.77 370.894 1177.98 370.894C1177.98 379.807 1177.98 388.721 1177.98 397.634C1172.03 398.258 1166.07 398.841 1160.11 399.383C1160.09 390.886 1160.11 382.39 1160.17 373.893C1162.93 373.348 1165.7 372.889 1168.48 372.518C1168.46 379.682 1168.48 386.847 1168.55 394.01C1168.88 394.344 1169.21 394.344 1169.55 394.01C1169.57 386.763 1169.63 379.516 1169.73 372.268C1172.29 371.821 1174.83 371.364 1177.36 370.894Z" fill="#FDFDFD"/>
<path fill-rule="evenodd" clip-rule="evenodd" d="M1158.74 374.143C1158.74 374.075 1158.78 374.033 1158.86 374.018C1158.99 382.764 1159.03 391.511 1158.99 400.258C1158.9 391.552 1158.82 382.848 1158.74 374.143Z" fill="#BEBEBE"/>
<path fill-rule="evenodd" clip-rule="evenodd" d="M985.019 377.266C985.395 377.6 985.77 377.934 986.144 378.266C983.811 384.599 982.748 391.137 982.957 397.884C983.156 400.513 983.406 403.137 983.707 405.756C984.181 409.049 983.598 412.131 981.957 415.002C981.916 415.043 981.874 415.086 981.832 415.127C981.104 404.967 980.416 394.803 979.77 384.639C982.571 384.4 984.258 382.901 984.832 380.14C984.983 379.188 985.046 378.23 985.019 377.266Z" fill="#FBFBFB"/>
<path fill-rule="evenodd" clip-rule="evenodd" d="M1139.61 377.266C1139.49 391.961 1139.45 406.663 1139.49 421.375C1139.41 414.044 1139.36 406.693 1139.36 399.321C1139.36 391.927 1139.45 384.576 1139.61 377.266Z" fill="#BEBEBE"/>
<path fill-rule="evenodd" clip-rule="evenodd" d="M1298.46 380.39C1299.22 380.235 1299.58 380.528 1299.52 381.265C1299.42 381.369 1299.31 381.474 1299.21 381.577C1296.84 381.735 1294.46 381.819 1292.09 381.827C1291.75 381.494 1291.75 381.161 1292.09 380.828C1294.23 380.688 1296.35 380.541 1298.46 380.39Z" fill="#F9F9F9"/>
<path fill-rule="evenodd" clip-rule="evenodd" d="M1138.11 388.262C1138.11 399.217 1138.11 410.17 1138.11 421.125C1137.82 421.125 1137.53 421.125 1137.24 421.125C1126.03 419.954 1114.83 418.767 1103.62 417.564C1115.07 407.724 1126.56 397.956 1138.11 388.262Z" fill="#FEFEFE"/>
<path fill-rule="evenodd" clip-rule="evenodd" d="M1137.24 421.125C1137.53 421.125 1137.82 421.125 1138.11 421.125C1138.11 410.17 1138.11 399.217 1138.11 388.262C1138.24 399.166 1138.28 410.161 1138.24 421.25C1137.88 421.288 1137.55 421.246 1137.24 421.125Z" fill="#BDBDBD"/>
<path fill-rule="evenodd" clip-rule="evenodd" d="M971.647 397.134C971.999 397.081 972.271 397.206 972.459 397.509C972.689 400.549 972.857 403.589 972.959 406.63C972.533 407.127 972.158 407.086 971.834 406.505C971.631 403.466 971.506 400.425 971.459 397.384C971.549 397.316 971.612 397.233 971.647 397.134Z" fill="#F7F7F7"/>
<path fill-rule="evenodd" clip-rule="evenodd" d="M895.286 399.133C898.583 400.658 901.395 402.824 903.722 405.631C905.472 407.963 907.222 410.295 908.971 412.628C910.117 414.022 911.555 414.96 913.283 415.439C915.784 415.554 918.012 414.826 919.969 413.253C918.066 418.713 916.108 424.169 914.095 429.621C904.374 421.621 898.103 411.458 895.286 399.133Z" fill="#FDFDFD"/>
<path fill-rule="evenodd" clip-rule="evenodd" d="M964.523 400.258C964.841 400.208 965.112 400.291 965.336 400.508C965.892 427.496 966.349 454.486 966.71 481.476C966.377 481.81 966.044 481.81 965.71 481.476C965.137 454.488 964.679 427.498 964.336 400.508C964.426 400.44 964.488 400.356 964.523 400.258Z" fill="#FBFBFB"/>
<path fill-rule="evenodd" clip-rule="evenodd" d="M946.527 401.632C946.884 401.576 947.197 401.66 947.464 401.882C943.87 432.588 940.162 463.285 936.341 493.972C936.035 494.408 935.681 494.449 935.279 494.097C935.214 493.958 935.171 493.813 935.154 493.659C938.949 463.117 942.677 432.567 946.339 402.007C946.403 401.878 946.465 401.753 946.527 401.632Z" fill="#F6F6F6"/>
<path fill-rule="evenodd" clip-rule="evenodd" d="M1034.88 403.506C1043.28 403.23 1051.11 405.167 1058.38 409.317C1061.27 411.081 1063.62 413.393 1065.44 416.252C1066.66 418.656 1067.06 421.196 1066.63 423.874C1065.3 424.13 1064.03 424.547 1062.82 425.123C1062.78 427.581 1062.73 430.037 1062.69 432.495C1059.32 437.007 1054.8 439.569 1049.13 440.18C1046.3 440.414 1043.47 440.414 1040.63 440.18C1037.56 439.824 1034.47 439.533 1031.39 439.305C1028.96 439.173 1026.55 439.256 1024.14 439.555C1018.62 440.943 1015.56 444.463 1014.95 450.114C1014.89 452.925 1014.91 455.736 1015.01 458.548C1015.18 460.807 1014.87 462.994 1014.08 465.108C1012.26 468.713 1009.32 470.692 1005.27 471.043C1001.74 471.167 998.246 471.499 994.767 472.043C991.667 472.735 988.751 473.881 986.019 475.479C985.753 472.691 985.565 469.9 985.457 467.107C991.933 458.59 999.244 450.822 1007.39 443.803C1016.25 436.249 1026.17 430.376 1037.13 426.185C1040.82 424.817 1044.61 423.859 1048.51 423.311C1049.4 422.747 1049.48 422.081 1048.76 421.312C1044.39 421.222 1040.1 421.763 1035.88 422.936C1025.38 426.003 1015.84 430.876 1007.27 437.556C998.753 444.275 991.317 452 984.957 460.734C984.354 452.613 983.813 444.491 983.332 436.369C986.865 433.845 990.802 432.658 995.142 432.808C996.285 433.041 997.409 433.332 998.517 433.682C1001.37 434.216 1003.87 433.507 1006.02 431.558C1007.53 429.919 1008.8 428.107 1009.83 426.123C1011.66 422.217 1013.61 418.384 1015.7 414.627C1017.63 411.452 1020.15 408.849 1023.26 406.818C1026.91 404.861 1030.78 403.756 1034.88 403.506Z" fill="#FEFEFE"/>
<path fill-rule="evenodd" clip-rule="evenodd" d="M972.647 413.877C972.964 413.827 973.235 413.911 973.459 414.127C975.14 440.78 976.723 467.437 978.208 494.097C977.428 494.53 977.053 494.28 977.083 493.347C975.586 467.854 974.044 442.364 972.459 416.876C972.375 415.96 972.375 415.043 972.459 414.127C972.549 414.06 972.612 413.976 972.647 413.877Z" fill="#F9F9F9"/>
<path fill-rule="evenodd" clip-rule="evenodd" d="M1169.36 425.748C1169.36 448.614 1169.36 471.48 1169.36 494.347C1143.74 494.347 1118.12 494.347 1092.5 494.347C1092.5 468.773 1092.5 443.2 1092.5 417.626C1118.12 420.341 1143.74 423.049 1169.36 425.748Z" fill="#FEFEFE"/>
<path fill-rule="evenodd" clip-rule="evenodd" d="M1091 417.876C1091.25 443.366 1091.33 468.898 1091.25 494.471C1082.13 494.471 1073 494.471 1063.88 494.471C1063.86 471.605 1063.88 448.739 1063.94 425.873C1072.94 423.144 1081.96 420.479 1091 417.876Z" fill="#FEFEFE"/>
<path fill-rule="evenodd" clip-rule="evenodd" d="M1091 417.876C1091.09 417.763 1091.21 417.721 1091.37 417.751C1091.42 443.345 1091.37 468.919 1091.25 494.471C1091.33 468.898 1091.25 443.366 1091 417.876Z" fill="#7E7E7E"/>
<path fill-rule="evenodd" clip-rule="evenodd" d="M1012.39 417.876C1012.46 417.883 1012.5 417.925 1012.51 418.001C1010.98 421.106 1009.42 424.188 1007.83 427.247C1006.79 429.095 1005.39 430.615 1003.64 431.808C1002.14 432.57 1000.56 432.82 998.892 432.558C996.157 431.541 993.366 431.353 990.518 431.995C989.771 427.637 991.187 424.16 994.767 421.562C996.1 420.799 997.517 420.258 999.017 419.938C1002.95 419.56 1006.87 419.06 1010.76 418.438C1011.33 418.267 1011.87 418.08 1012.39 417.876Z" fill="#FDFDFD"/>
<path fill-rule="evenodd" clip-rule="evenodd" d="M1045.51 422.624C1045.51 422.583 1045.51 422.54 1045.51 422.499C1045.73 422.359 1045.98 422.338 1046.26 422.437C1046.01 422.499 1045.76 422.562 1045.51 422.624Z" fill="#878787"/>
<path fill-rule="evenodd" clip-rule="evenodd" d="M1045.51 422.499C1045.51 422.54 1045.51 422.583 1045.51 422.624C1040.46 423.69 1035.58 425.293 1030.89 427.435C1020.06 432.51 1010.31 439.133 1001.64 447.302C995.742 452.947 990.306 458.966 985.332 465.358C985.247 464.693 985.184 464.027 985.144 463.358C985.135 462.969 985.198 462.594 985.332 462.234C993.64 450.516 1003.83 440.791 1015.89 433.058C1022.55 428.918 1029.67 425.835 1037.26 423.811C1039.97 423.149 1042.72 422.712 1045.51 422.499Z" fill="#FAFAFA"/>
<path fill-rule="evenodd" clip-rule="evenodd" d="M928.155 428.122C928.708 428.098 929.249 428.161 929.78 428.309C932.469 429.715 935.01 431.339 937.403 433.183C933.383 434.11 929.717 435.777 926.406 438.181C925.489 439.18 924.572 440.18 923.656 441.179C921.501 442.785 919.086 443.367 916.407 442.929C913.186 441.787 909.999 440.557 906.847 439.243C906.763 439.159 906.763 439.077 906.847 438.993C908.883 436.526 910.902 434.048 912.908 431.558C913.033 431.474 913.158 431.474 913.283 431.558C914.449 432.142 915.616 432.724 916.782 433.307C917.074 433.391 917.366 433.391 917.657 433.307C920.952 431.14 924.451 429.411 928.155 428.122Z" fill="#FDFDFD"/>
<path fill-rule="evenodd" clip-rule="evenodd" d="M1062.63 434.495C1062.75 436.346 1062.8 438.221 1062.75 440.117C1062.15 440.05 1061.57 439.905 1061 439.68C1060.05 439.293 1059.13 438.834 1058.26 438.306C1059.91 437.268 1061.37 435.999 1062.63 434.495Z" fill="#F4F4F4"/>
<path fill-rule="evenodd" clip-rule="evenodd" d="M930.655 439.243C930.941 439.21 931.212 439.253 931.467 439.368C931.551 439.743 931.551 440.117 931.467 440.492C928.566 455.479 925.692 470.473 922.844 485.475C922.253 486.048 921.856 485.945 921.656 485.163C924.545 470.02 927.44 454.879 930.342 439.743C930.425 439.558 930.53 439.39 930.655 439.243Z" fill="#F5F5F5"/>
<path fill-rule="evenodd" clip-rule="evenodd" d="M1316.46 448.239C1314.84 448.487 1313.17 448.57 1311.46 448.489C1313.11 448.404 1314.78 448.32 1316.46 448.239Z" fill="#545454"/>
<path fill-rule="evenodd" clip-rule="evenodd" d="M1298.46 448.364C1302.37 448.364 1306.29 448.364 1310.21 448.364C1310.1 451.703 1309.89 455.035 1309.58 458.36C1309.03 457.548 1308.51 456.715 1308.02 455.861C1307.51 455.16 1306.83 454.807 1305.96 454.799C1304.17 454.574 1302.38 454.492 1300.58 454.549C1299.54 455.025 1298.98 455.838 1298.9 456.986C1298.71 454.114 1298.56 451.241 1298.46 448.364Z" fill="#FBFBFB"/>
<path fill-rule="evenodd" clip-rule="evenodd" d="M1297.46 453.487C1297.58 454.003 1297.62 454.546 1297.58 455.112C1297.42 455.112 1297.25 455.112 1297.08 455.112C1297.17 454.999 1297.3 454.957 1297.46 454.987C1297.46 454.487 1297.46 453.987 1297.46 453.487Z" fill="#7A7A7A"/>
<path fill-rule="evenodd" clip-rule="evenodd" d="M1301.08 455.611C1302.54 455.7 1304 455.804 1305.46 455.924C1305.95 455.934 1306.41 456.059 1306.83 456.299C1307.65 457.496 1308.42 458.724 1309.14 459.985C1309.44 460.506 1309.81 460.589 1310.27 460.235C1310.56 459.17 1310.92 458.129 1311.33 457.111C1313.36 459.715 1315.05 462.547 1316.39 465.608C1319.35 472.551 1321.8 479.673 1323.77 486.974C1324.05 490.021 1322.7 491.874 1319.7 492.535C1312.5 493.855 1305.25 494.188 1297.96 493.534C1295.22 492.698 1293.99 490.845 1294.27 487.974C1295.36 478.017 1296.49 468.062 1297.65 458.11C1297.95 458.916 1298.28 459.707 1298.65 460.485C1299.05 460.687 1299.39 460.603 1299.65 460.235C1299.8 459.065 1299.96 457.899 1300.15 456.736C1300.28 456.202 1300.6 455.828 1301.08 455.611Z" fill="#FDFDFD"/>
<path fill-rule="evenodd" clip-rule="evenodd" d="M1100.25 471.23C1113.2 471.209 1126.16 471.23 1139.11 471.293C1139.18 471.355 1139.24 471.418 1139.3 471.48C1139.39 476.645 1139.39 481.81 1139.3 486.974C1139.24 487.037 1139.18 487.099 1139.11 487.162C1126.16 487.245 1113.2 487.245 1100.25 487.162C1100.08 484.565 1100 481.941 1100 479.29C1100.02 476.687 1100.04 474.083 1100.06 471.48C1100.15 471.413 1100.21 471.329 1100.25 471.23Z" fill="#070707"/>
<path fill-rule="evenodd" clip-rule="evenodd" d="M1138.11 472.48C1138.11 476.978 1138.11 481.476 1138.11 485.975C1125.78 485.975 1113.45 485.975 1101.12 485.975C1101.12 481.476 1101.12 476.978 1101.12 472.48C1113.45 472.48 1125.78 472.48 1138.11 472.48Z" fill="#FEFEFE"/>
<path fill-rule="evenodd" clip-rule="evenodd" d="M1307.83 475.354C1309.83 475.333 1311.83 475.354 1313.83 475.416C1314.16 475.75 1314.16 476.082 1313.83 476.416C1310.04 476.603 1306.25 476.687 1302.46 476.666C1301.96 476.291 1301.96 475.916 1302.46 475.541C1304.27 475.52 1306.06 475.458 1307.83 475.354Z" fill="#0C0C0C"/>
<path fill-rule="evenodd" clip-rule="evenodd" d="M1138.11 472.48C1138.24 476.998 1138.28 481.539 1138.24 486.1C1125.85 486.141 1113.47 486.1 1101.12 485.975C1113.45 485.975 1125.78 485.975 1138.11 485.975C1138.11 481.476 1138.11 476.978 1138.11 472.48Z" fill="#BEBEBE"/>
<path fill-rule="evenodd" clip-rule="evenodd" d="M1320.2 486.724C1320.61 486.69 1321.01 486.731 1321.39 486.849C1321.51 487.206 1321.45 487.518 1321.2 487.787C1314.95 489.355 1308.62 489.771 1302.21 489.036C1300.75 488.839 1299.29 488.63 1297.83 488.411C1297.49 488.311 1297.16 488.186 1296.83 488.036C1296.57 487.488 1296.74 487.176 1297.33 487.099C1303.85 488.391 1310.39 488.536 1316.96 487.537C1318.07 487.336 1319.16 487.064 1320.2 486.724Z" fill="#090909"/>
<path fill-rule="evenodd" clip-rule="evenodd" d="M1169.36 425.748C1169.48 448.635 1169.53 471.543 1169.48 494.472C1143.8 494.513 1118.14 494.472 1092.5 494.347C1118.12 494.347 1143.74 494.347 1169.36 494.347C1169.36 471.48 1169.36 448.614 1169.36 425.748Z" fill="#A9A9A9"/>
<path fill-rule="evenodd" clip-rule="evenodd" d="M1276.84 375.892C1276.96 415.398 1277 454.924 1276.96 494.472C1251.47 494.472 1225.97 494.472 1200.48 494.472C1200.48 494.43 1200.48 494.388 1200.48 494.347C1225.93 494.347 1251.38 494.347 1276.84 494.347C1276.84 454.862 1276.84 415.377 1276.84 375.892Z" fill="#A6A6A6"/>
<path fill-rule="evenodd" clip-rule="evenodd" d="M103.673 110.588C86.6546 97.4727 66.6667 82.0727 66.6667 55.3757C66.6667 25.903 100 4.99999 127.273 33.3394V124.242C121.212 124.242 115.152 119.576 108.861 114.606C107.182 113.285 105.442 111.951 103.673 110.588Z" fill="white"/>
<path d="M145.685 114.606C163.521 100.558 187.879 84.8485 187.879 55.3818C187.879 25.9091 154.545 5.00603 127.273 33.3454V124.242C133.333 124.242 139.394 119.576 145.685 114.606Z" fill="white"/>
<g opacity="0.4">
<path fill-rule="evenodd" clip-rule="evenodd" d="M49.1273 110.588C32.1091 97.4727 12.1212 82.0727 12.1212 55.3757C12.1212 25.903 45.4545 4.99999 72.7273 33.3394V124.242C66.6667 124.242 60.6061 119.576 54.3151 114.606C52.6364 113.285 50.897 111.951 49.1273 110.588Z" fill="white"/>
<path d="M91.1394 114.606C108.976 100.558 133.333 84.8485 133.333 55.3818C133.333 25.9091 100 5.00603 72.7273 33.3454V124.242C78.7879 124.242 84.8485 119.576 91.1394 114.606Z" fill="white"/>
</g>
<path d="M129.624 229V222.536H135.064V197.768H129.624V191.304H146.456C151.405 191.304 155.181 192.179 157.784 193.928C160.387 195.677 161.688 198.173 161.688 201.416C161.688 203.293 161.24 204.957 160.344 206.408C159.491 207.816 158.253 208.947 156.632 209.8C158.552 210.355 160.067 211.4 161.176 212.936C162.285 214.429 162.84 216.328 162.84 218.632C162.84 221.875 161.752 224.413 159.576 226.248C157.443 228.083 154.264 229 150.04 229H129.624ZM142.488 222.536H148.888C150.936 222.536 152.493 222.131 153.56 221.32C154.627 220.509 155.16 219.293 155.16 217.672C155.16 216.136 154.648 214.984 153.624 214.216C152.643 213.405 151.192 213 149.272 213H142.488V222.536ZM142.488 207.24H149.336C150.872 207.24 152.024 206.835 152.792 206.024C153.56 205.171 153.944 203.997 153.944 202.504C153.944 199.347 151.683 197.768 147.16 197.768H142.488V207.24ZM167.882 229V223.176H173.322V206.152H167.882V200.328H184.01L192.906 219.848H190.986L199.306 200.328H215.37V206.152H209.994V223.176H215.37V229H200.201V223.176H203.018V202.504L204.042 202.696L194.442 225.352H189.258L178.762 202.952L180.298 202.76V223.176H183.05V229H167.882ZM247.399 225.48C245.479 227.101 243.516 228.296 241.511 229.064C239.505 229.832 237.436 230.216 235.303 230.216C232.103 230.216 229.287 229.576 226.855 228.296C224.465 226.973 222.609 225.16 221.286 222.856C219.964 220.509 219.303 217.821 219.303 214.792C219.303 211.635 219.921 208.904 221.159 206.6C222.439 204.253 224.188 202.44 226.407 201.16C228.625 199.837 231.207 199.176 234.151 199.176C237.095 199.176 239.655 199.773 241.831 200.968C244.007 202.163 245.692 203.848 246.887 206.024C248.081 208.157 248.679 210.675 248.679 213.576C248.679 214.088 248.636 214.664 248.551 215.304C248.508 215.944 248.444 216.563 248.359 217.16H226.343C226.471 218.824 226.961 220.211 227.815 221.32C228.668 222.387 229.735 223.176 231.015 223.688C232.337 224.2 233.767 224.456 235.303 224.456C237.095 224.456 238.801 224.179 240.423 223.624C242.044 223.027 243.516 222.195 244.839 221.128L247.399 225.48ZM241.447 212.168C241.404 210.035 240.743 208.328 239.463 207.048C238.225 205.725 236.519 205.064 234.343 205.064C232.295 205.064 230.503 205.725 228.967 207.048C227.473 208.328 226.641 210.035 226.47 212.168H241.447ZM272.838 205.384C272.07 205.128 271.323 204.957 270.598 204.872C269.915 204.787 269.211 204.744 268.486 204.744C265.883 204.744 263.878 205.597 262.47 207.304C261.062 209.011 260.358 211.549 260.358 214.92C260.358 217.864 261.126 220.168 262.662 221.832C264.198 223.496 266.075 224.328 268.294 224.328C269.702 224.328 271.152 224.072 272.646 223.56C274.139 223.005 275.611 222.216 277.062 221.192L280.006 225.544C278.768 226.483 277.552 227.315 276.358 228.04C275.163 228.723 273.904 229.256 272.582 229.64C271.259 230.024 269.766 230.216 268.102 230.216C265.03 230.216 262.342 229.64 260.038 228.488C257.776 227.293 256.027 225.565 254.79 223.304C253.552 221 252.934 218.205 252.934 214.92C252.934 211.464 253.552 208.563 254.79 206.216C256.027 203.869 257.798 202.099 260.102 200.904C262.406 199.709 265.179 199.112 268.422 199.112C270.086 199.112 271.728 199.283 273.35 199.624C275.014 199.923 276.656 200.371 278.278 200.968L279.878 209.224L273.734 210.568L272.838 205.384ZM283.594 200.392H313.418V211.784H308.042V206.152H302.154V223.176H307.53V229H289.354V223.176H294.858V206.152H288.906V211.784H283.594V200.392ZM344.649 225.48C342.729 227.101 340.766 228.296 338.761 229.064C336.755 229.832 334.686 230.216 332.553 230.216C329.353 230.216 326.537 229.576 324.105 228.296C321.715 226.973 319.859 225.16 318.536 222.856C317.214 220.509 316.553 217.821 316.553 214.792C316.553 211.635 317.171 208.904 318.409 206.6C319.689 204.253 321.438 202.44 323.657 201.16C325.875 199.837 328.457 199.176 331.401 199.176C334.345 199.176 336.905 199.773 339.081 200.968C341.257 202.163 342.942 203.848 344.137 206.024C345.331 208.157 345.929 210.675 345.929 213.576C345.929 214.088 345.886 214.664 345.801 215.304C345.758 215.944 345.694 216.563 345.609 217.16H323.593C323.721 218.824 324.211 220.211 325.065 221.32C325.918 222.387 326.985 223.176 328.265 223.688C329.587 224.2 331.017 224.456 332.553 224.456C334.345 224.456 336.051 224.179 337.673 223.624C339.294 223.027 340.766 222.195 342.089 221.128L344.649 225.48ZM338.697 212.168C338.654 210.035 337.993 208.328 336.713 207.048C335.475 205.725 333.769 205.064 331.593 205.064C329.545 205.064 327.753 205.725 326.217 207.048C324.723 208.328 323.891 210.035 323.72 212.168H338.697ZM385.144 200.392C388.899 200.392 391.779 201.032 393.784 202.312C395.832 203.592 396.856 205.405 396.856 207.752C396.856 209.203 396.493 210.461 395.768 211.528C395.085 212.552 394.104 213.32 392.824 213.832C394.573 214.088 395.896 214.792 396.792 215.944C397.731 217.053 398.2 218.504 398.2 220.296C398.2 223.112 397.411 225.288 395.832 226.824C394.253 228.317 391.971 229.064 388.984 229.064H365.944V223.24H371.64V206.152H365.944V200.392H385.144ZM386.36 223.56C389.347 223.56 390.84 222.344 390.84 219.912C390.84 217.651 389.432 216.52 386.616 216.52H379.064V223.56H386.36ZM385.912 211.976C388.216 211.976 389.368 210.973 389.368 208.968C389.368 206.835 387.789 205.768 384.632 205.768H379.064V211.976H385.912ZM418.173 238.152L418.109 223.176H422.589C423.442 222.664 424.125 221.853 424.637 220.744C425.192 219.635 425.618 218.397 425.917 217.032C426.216 215.667 426.429 214.28 426.557 212.872C426.728 211.464 426.856 210.248 426.941 209.224L427.261 206.216H421.565V200.392H453.501V206.216H447.933V223.176H453.501V238.152H446.333V229H425.277V238.152H418.173ZM429.245 223.176H440.637V206.216H433.085L432.701 209.928C432.402 213.299 431.997 216.136 431.485 218.44C430.973 220.744 430.226 222.323 429.245 223.176ZM478.644 200.392C482.399 200.392 485.279 201.032 487.284 202.312C489.332 203.592 490.356 205.405 490.356 207.752C490.356 209.203 489.993 210.461 489.268 211.528C488.585 212.552 487.604 213.32 486.324 213.832C488.073 214.088 489.396 214.792 490.292 215.944C491.231 217.053 491.7 218.504 491.7 220.296C491.7 223.112 490.911 225.288 489.332 226.824C487.753 228.317 485.471 229.064 482.484 229.064H459.444V223.24H465.14V206.152H459.444V200.392H478.644ZM479.86 223.56C482.847 223.56 484.34 222.344 484.34 219.912C484.34 217.651 482.932 216.52 480.116 216.52H472.564V223.56H479.86ZM479.412 211.976C481.716 211.976 482.868 210.973 482.868 208.968C482.868 206.835 481.289 205.768 478.132 205.768H472.564V211.976H479.412ZM497.257 200.328H512.425V206.152H509.673V220.36L521.769 200.392L534.185 200.328V206.152H528.745V223.176H534.185V229H519.017V223.176H521.769V208.712L509.673 229H497.257V223.176H502.697V206.152H497.257V200.328ZM539.173 229V223.176H544.485L550.501 214.728L544.293 206.152H539.493V200.392H554.917V206.152H550.757L555.173 212.488H560.293V206.216H557.221V200.392H570.149V206.216H567.077V212.488H572.133L576.485 206.152H572.453V200.392H587.813V206.152H582.949L576.869 214.728L582.821 223.176H588.197V229H579.237L571.429 217.544H567.077V223.176H570.149V229H557.221V223.176H560.293V217.544H555.941L548.261 229H539.173ZM619.399 225.48C617.479 227.101 615.516 228.296 613.511 229.064C611.505 229.832 609.436 230.216 607.303 230.216C604.103 230.216 601.287 229.576 598.855 228.296C596.465 226.973 594.609 225.16 593.286 222.856C591.964 220.509 591.303 217.821 591.303 214.792C591.303 211.635 591.921 208.904 593.159 206.6C594.439 204.253 596.188 202.44 598.407 201.16C600.625 199.837 603.207 199.176 606.151 199.176C609.095 199.176 611.655 199.773 613.831 200.968C616.007 202.163 617.692 203.848 618.887 206.024C620.081 208.157 620.679 210.675 620.679 213.576C620.679 214.088 620.636 214.664 620.551 215.304C620.508 215.944 620.444 216.563 620.359 217.16H598.343C598.471 218.824 598.961 220.211 599.815 221.32C600.668 222.387 601.735 223.176 603.015 223.688C604.337 224.2 605.767 224.456 607.303 224.456C609.095 224.456 610.801 224.179 612.423 223.624C614.044 223.027 615.516 222.195 616.839 221.128L619.399 225.48ZM613.447 212.168C613.404 210.035 612.743 208.328 611.463 207.048C610.225 205.725 608.519 205.064 606.343 205.064C604.295 205.064 602.503 205.725 600.967 207.048C599.473 208.328 598.641 210.035 598.47 212.168H613.447ZM625.069 200.392H640.557V206.152H637.805V211.784H649.901V206.152H647.149V200.392H662.573V206.152H657.197V223.176H662.573V229H647.149V223.176H649.901V217.608H637.805V223.176H640.557V229H625.069V223.176H630.509V206.152H625.069V200.392ZM668.507 200.328H683.675V206.152H680.923V220.36L693.019 200.392L705.435 200.328V206.152H699.995V223.176H705.435V229H690.267V223.176H693.019V208.712L680.923 229H668.507V223.176H673.947V206.152H668.507V200.328ZM711.319 200.328H726.487V206.152H723.735V220.36L735.831 200.392L748.247 200.328V206.152H742.807V223.176H748.247V229H733.079V223.176H735.831V208.712L723.735 229H711.319V223.176H716.759V206.152H711.319V200.328ZM129.944 277.392H144.792V283.152H142.616V289.04H147.544L151.512 283.152H148.248V277.392H163.672V283.152H158.808L152.664 291.728L158.68 300.176H163.992V306H154.52L146.776 294.8H142.616V300.176H144.792V306H129.944V300.176H135.32V283.152H129.944V277.392ZM183.736 315.152L183.672 300.176H188.152C189.005 299.664 189.688 298.853 190.2 297.744C190.754 296.635 191.181 295.397 191.48 294.032C191.778 292.667 191.992 291.28 192.12 289.872C192.29 288.464 192.418 287.248 192.504 286.224L192.824 283.216H187.128V277.392H219.064V283.216H213.496V300.176H219.064V315.152H211.896V306H190.84V315.152H183.736ZM194.808 300.176H206.2V283.216H198.648L198.264 286.928C197.965 290.299 197.56 293.136 197.048 295.44C196.536 297.744 195.789 299.323 194.808 300.176ZM238.539 276.176C241.739 276.176 244.47 276.795 246.731 278.032C248.992 279.269 250.72 281.061 251.915 283.408C253.11 285.712 253.707 288.485 253.707 291.728C253.707 296.592 252.363 300.389 249.675 303.12C247.03 305.851 243.318 307.216 238.539 307.216C235.424 307.216 232.736 306.597 230.475 305.36C228.256 304.123 226.55 302.352 225.355 300.048C224.203 297.701 223.627 294.928 223.627 291.728C223.627 288.485 224.203 285.712 225.355 283.408C226.55 281.061 228.256 279.269 230.475 278.032C232.736 276.795 235.424 276.176 238.539 276.176ZM238.539 282.128C235.979 282.128 234.038 282.96 232.715 284.624C231.435 286.245 230.795 288.613 230.795 291.728C230.795 294.843 231.435 297.232 232.715 298.896C234.038 300.56 235.979 301.392 238.539 301.392C241.184 301.392 243.168 300.56 244.491 298.896C245.814 297.232 246.475 294.843 246.475 291.728C246.475 288.613 245.814 286.245 244.491 284.624C243.168 282.96 241.184 282.128 238.539 282.128ZM286.839 268.88C286.327 269.307 285.559 269.755 284.535 270.224C283.554 270.693 282.402 271.163 281.079 271.632C279.799 272.101 278.498 272.549 277.175 272.976C275.895 273.403 274.7 273.808 273.591 274.192C271.33 274.96 269.58 275.877 268.343 276.944C267.148 277.968 266.274 279.227 265.719 280.72C265.207 282.213 264.823 284.069 264.567 286.288C264.951 284.965 265.655 283.749 266.679 282.64C267.703 281.531 268.983 280.656 270.519 280.016C272.055 279.333 273.762 278.992 275.639 278.992C278.37 278.992 280.738 279.568 282.743 280.72C284.791 281.872 286.37 283.515 287.479 285.648C288.588 287.739 289.143 290.213 289.143 293.072C289.143 295.973 288.546 298.491 287.351 300.624C286.156 302.757 284.492 304.4 282.359 305.552C280.268 306.661 277.815 307.216 274.999 307.216C272.311 307.216 269.986 306.768 268.023 305.872C266.06 304.976 264.439 303.76 263.159 302.224C261.879 300.645 260.919 298.832 260.279 296.784C259.682 294.693 259.383 292.453 259.383 290.064C259.383 287.461 259.532 285.029 259.831 282.768C260.172 280.464 260.77 278.352 261.623 276.432C262.476 274.469 263.692 272.763 265.271 271.312C266.892 269.861 268.962 268.688 271.479 267.792C272.887 267.323 274.402 266.789 276.023 266.192C277.687 265.595 279.244 264.997 280.695 264.4C282.188 263.76 283.298 263.184 284.023 262.672L286.839 268.88ZM275.063 284.88C269.9 284.88 267.319 287.611 267.319 293.072C267.319 298.533 269.751 301.264 274.615 301.264C279.479 301.264 281.911 298.533 281.911 293.072C281.911 287.611 279.628 284.88 275.063 284.88ZM292.547 320.08V314.32H297.923V284.24L291.843 282.192L293.763 276.304L302.787 279.376C304.195 278.395 305.688 277.627 307.267 277.072C308.888 276.475 310.424 276.176 311.875 276.176C316.355 276.176 319.853 277.541 322.371 280.272C324.931 282.96 326.211 286.672 326.211 291.408C326.211 294.608 325.592 297.403 324.354 299.792C323.117 302.181 321.368 304.037 319.107 305.36C316.845 306.64 314.179 307.28 311.107 307.28C308.931 307.28 306.968 307.024 305.219 306.512V314.32H310.595V320.08H292.547ZM311.043 301.456C313.475 301.456 315.352 300.581 316.675 298.832C318.04 297.083 318.723 294.629 318.723 291.472C318.723 288.485 318.104 286.181 316.867 284.56C315.629 282.939 313.837 282.128 311.491 282.128C310.296 282.128 309.123 282.341 307.971 282.768C306.861 283.152 305.901 283.707 305.091 284.432V300.304C305.816 300.645 306.712 300.923 307.779 301.136C308.845 301.349 309.933 301.456 311.043 301.456ZM335.85 321.488C334.997 321.488 334.101 321.381 333.162 321.168C332.223 320.997 331.242 320.699 330.218 320.272L331.562 314.64C332.33 314.939 333.013 315.152 333.61 315.28C334.25 315.451 334.933 315.536 335.658 315.536C336.682 315.536 337.535 315.28 338.218 314.768C338.943 314.299 339.626 313.445 340.266 312.208C340.949 311.013 341.717 309.328 342.57 307.152L352.106 283.152H348.778L349.098 277.392H364.138V283.152H359.21L347.434 310.864C345.855 314.619 344.149 317.328 342.314 318.992C340.479 320.656 338.325 321.488 335.85 321.488ZM343.914 310.224L331.242 283.152H326.57V277.392H342.186V283.152H338.666L347.306 303.568L343.914 310.224Z" fill="white"/>
</g>
<defs>
<linearGradient id="paint0_linear_2_1010" x1="1153" y1="107" x2="948.055" y2="690.605" gradientUnits="userSpaceOnUse">
<stop stop-color="white"/>
<stop offset="1" stop-color="white" stop-opacity="0"/>
</linearGradient>
<linearGradient id="paint1_linear_2_1010" x1="-203.273" y1="-191.273" x2="-564.523" y2="823.72" gradientUnits="userSpaceOnUse">
<stop stop-color="white" stop-opacity="0.35"/>
<stop offset="1" stop-color="white" stop-opacity="0"/>
</linearGradient>
<linearGradient id="paint2_linear_2_1010" x1="363.5" y1="-9.38773e-06" x2="206" y2="448.5" gradientUnits="userSpaceOnUse">
<stop stop-color="white"/>
<stop offset="1" stop-color="white" stop-opacity="0"/>
</linearGradient>
<linearGradient id="paint3_linear_2_1010" x1="1068.16" y1="140" x2="1068.16" y2="423.799" gradientUnits="userSpaceOnUse">
<stop stop-color="white"/>
<stop offset="1" stop-color="#4CAF50"/>
</linearGradient>
<clipPath id="clip0_2_1010">
<rect width="1430" height="496" rx="24" fill="white"/>
</clipPath>
</defs>
</svg>
