<svg width="22" height="28" viewBox="0 0 22 28" fill="none" xmlns="http://www.w3.org/2000/svg">
<path d="M11 18.6667C11.5556 18.6667 12.028 18.472 12.4174 18.0827C12.8067 17.6934 13.0009 17.2214 13 16.6667V15.3334H14.3334C14.8889 15.3334 15.3614 15.1387 15.7507 14.7494C16.14 14.36 16.3343 13.888 16.3334 13.3334C16.3334 12.7778 16.1387 12.3054 15.7494 11.916C15.36 11.5267 14.888 11.3325 14.3334 11.3334H13V10C13 9.44448 12.8054 8.97203 12.416 8.5827C12.0267 8.19337 11.5547 7.99914 11 8.00003C10.4445 8.00003 9.97204 8.1947 9.58271 8.58403C9.19337 8.97337 8.99915 9.44537 9.00004 10V11.3334H7.66671C7.11115 11.3334 6.63871 11.528 6.24937 11.9174C5.86004 12.3067 5.66582 12.7787 5.66671 13.3334C5.66671 13.8889 5.86137 14.3614 6.25071 14.7507C6.64004 15.14 7.11204 15.3343 7.66671 15.3334H9.00004V16.6667C9.00004 17.2223 9.19471 17.6947 9.58404 18.084C9.97337 18.4734 10.4454 18.6676 11 18.6667ZM11 27.2334H10.6667C10.5556 27.2334 10.4556 27.2111 10.3667 27.1667C7.4556 26.2556 5.0556 24.4498 3.16671 21.7494C1.27782 19.0489 0.333374 16.0658 0.333374 12.8V6.50003C0.333374 5.94448 0.494707 5.44448 0.817374 5.00003C1.14004 4.55559 1.55649 4.23337 2.06671 4.03337L10.0667 1.03337C10.3778 0.922255 10.6889 0.866699 11 0.866699C11.3112 0.866699 11.6223 0.922255 11.9334 1.03337L19.9334 4.03337C20.4445 4.23337 20.8614 4.55559 21.184 5.00003C21.5067 5.44448 21.6676 5.94448 21.6667 6.50003V12.8C21.6667 16.0667 20.7223 19.0503 18.8334 21.7507C16.9445 24.4511 14.5445 26.2565 11.6334 27.1667C11.5223 27.2111 11.3112 27.2334 11 27.2334Z" fill="#4CAF50"/>
</svg>
