<svg width="28" height="28" viewBox="0 0 28 28" fill="none" xmlns="http://www.w3.org/2000/svg">
<path d="M14 0.666626C6.64796 0.666626 0.666626 6.64796 0.666626 14C0.666626 21.352 6.64796 27.3333 14 27.3333C21.352 27.3333 27.3333 21.352 27.3333 14C27.3333 6.64796 21.352 0.666626 14 0.666626ZM3.33329 14C3.33329 12.8013 3.54129 11.6506 3.90796 10.5746L5.99996 12.6666L8.66663 15.3333V18L11.3333 20.6666L12.6666 22V24.5746C7.41463 23.9146 3.33329 19.4293 3.33329 14ZM22.44 20.4973C21.5693 19.796 20.2493 19.3333 19.3333 19.3333V18C19.3333 17.2927 19.0523 16.6144 18.5522 16.1143C18.0521 15.6142 17.3739 15.3333 16.6666 15.3333H11.3333V11.3333C12.0405 11.3333 12.7188 11.0523 13.2189 10.5522C13.719 10.0521 14 9.37387 14 8.66663V7.33329H15.3333C16.0405 7.33329 16.7188 7.05234 17.2189 6.55224C17.719 6.05215 18 5.37387 18 4.66663V4.11863C21.904 5.70396 24.6666 9.53329 24.6666 14C24.6664 16.3529 23.883 18.6388 22.44 20.4973Z" fill="#4CAF50"/>
</svg>
