<svg width="189" height="64" viewBox="0 0 189 64" fill="none" xmlns="http://www.w3.org/2000/svg">
<path fill-rule="evenodd" clip-rule="evenodd" d="M45.616 48.6585C38.128 42.8879 29.3333 36.1119 29.3333 24.3652C29.3333 11.3972 44 2.19988 56 14.6692V54.6665C53.3333 54.6665 50.6667 52.6132 47.8987 50.4265C47.16 49.8452 46.3947 49.2585 45.616 48.6585Z" fill="url(#paint0_linear_1_308)"/>
<path d="M64.1013 50.4266C71.9493 44.2452 82.6667 37.3332 82.6667 24.3679C82.6667 11.3999 68 2.20256 56 14.6719V54.6666C58.6667 54.6666 61.3333 52.6132 64.1013 50.4266Z" fill="url(#paint1_linear_1_308)"/>
<g opacity="0.4">
<path fill-rule="evenodd" clip-rule="evenodd" d="M21.616 48.6585C14.128 42.8879 5.33333 36.1119 5.33333 24.3652C5.33333 11.3972 20 2.19988 32 14.6692V54.6665C29.3333 54.6665 26.6667 52.6132 23.8987 50.4265C23.16 49.8452 22.3947 49.2585 21.616 48.6585Z" fill="url(#paint2_linear_1_308)"/>
<path d="M40.1013 50.4266C47.9493 44.2452 58.6666 37.3332 58.6666 24.3679C58.6666 11.3999 44 2.20256 32 14.6719V54.6666C34.6667 54.6666 37.3333 52.6132 40.1013 50.4266Z" fill="url(#paint3_linear_1_308)"/>
</g>
<path d="M101.476 21.796H110.404L115.696 35.8L120.664 21.796H129.52V25H126.352V39.796H129.52V43H120.376V39.796H122.68V24.568L121.168 29.356L117.136 40.444H114.076L109.576 29.032L108.064 24.712L107.992 39.796H110.368V43H101.404V39.796H104.608L104.644 25H101.476V21.796ZM140.341 26.512C142.069 26.512 143.545 26.86 144.769 27.556C146.017 28.228 146.977 29.212 147.649 30.508C148.321 31.78 148.657 33.316 148.657 35.116C148.657 37.78 147.913 39.868 146.425 41.38C144.937 42.868 142.909 43.612 140.341 43.612C138.661 43.612 137.197 43.276 135.949 42.604C134.725 41.932 133.777 40.96 133.105 39.688C132.457 38.392 132.133 36.868 132.133 35.116C132.133 33.316 132.457 31.78 133.105 30.508C133.777 29.212 134.725 28.228 135.949 27.556C137.197 26.86 138.661 26.512 140.341 26.512ZM140.341 29.464C138.829 29.464 137.677 29.956 136.885 30.94C136.117 31.9 135.733 33.292 135.733 35.116C135.733 36.916 136.117 38.296 136.885 39.256C137.677 40.216 138.829 40.696 140.341 40.696C141.925 40.696 143.101 40.216 143.869 39.256C144.661 38.296 145.057 36.916 145.057 35.116C145.057 33.292 144.661 31.9 143.869 30.94C143.101 29.956 141.925 29.464 140.341 29.464ZM154.268 51.46C153.812 51.46 153.344 51.412 152.864 51.316C152.408 51.244 151.916 51.1 151.388 50.884L152 48.112C152.408 48.232 152.768 48.328 153.08 48.4C153.416 48.472 153.752 48.508 154.088 48.508C154.712 48.508 155.228 48.388 155.636 48.148C156.044 47.908 156.428 47.464 156.788 46.816C157.172 46.168 157.58 45.244 158.012 44.044L163.268 30.004H161.36L161.468 27.16H169.46V30.004H166.76L160.424 45.916C159.656 47.812 158.78 49.204 157.796 50.092C156.812 51.004 155.636 51.46 154.268 51.46ZM158.804 45.448L151.568 30.004H148.94V27.16H157.256V30.004H155.24L160.388 41.992L158.804 45.448ZM178.345 26.512C180.073 26.512 181.549 26.86 182.773 27.556C184.021 28.228 184.981 29.212 185.653 30.508C186.325 31.78 186.661 33.316 186.661 35.116C186.661 37.78 185.917 39.868 184.429 41.38C182.941 42.868 180.913 43.612 178.345 43.612C176.665 43.612 175.201 43.276 173.953 42.604C172.729 41.932 171.781 40.96 171.109 39.688C170.461 38.392 170.137 36.868 170.137 35.116C170.137 33.316 170.461 31.78 171.109 30.508C171.781 29.212 172.729 28.228 173.953 27.556C175.201 26.86 176.665 26.512 178.345 26.512ZM178.345 29.464C176.833 29.464 175.681 29.956 174.889 30.94C174.121 31.9 173.737 33.292 173.737 35.116C173.737 36.916 174.121 38.296 174.889 39.256C175.681 40.216 176.833 40.696 178.345 40.696C179.929 40.696 181.105 40.216 181.873 39.256C182.665 38.296 183.061 36.916 183.061 35.116C183.061 33.292 182.665 31.9 181.873 30.94C181.105 29.956 179.929 29.464 178.345 29.464Z" fill="#181818"/>
<defs>
<linearGradient id="paint0_linear_1_308" x1="42.6667" y1="8.75928" x2="42.6667" y2="77.3332" gradientUnits="userSpaceOnUse">
<stop stop-color="#58B45B"/>
<stop offset="1" stop-color="#58B45B" stop-opacity="0.43"/>
</linearGradient>
<linearGradient id="paint1_linear_1_308" x1="69.3333" y1="8.76196" x2="69.3333" y2="77.332" gradientUnits="userSpaceOnUse">
<stop stop-color="#58B45B"/>
<stop offset="1" stop-color="#58B45B" stop-opacity="0.43"/>
</linearGradient>
<linearGradient id="paint2_linear_1_308" x1="18.6667" y1="8.75928" x2="18.6667" y2="77.3332" gradientUnits="userSpaceOnUse">
<stop stop-color="#58B45B"/>
<stop offset="1" stop-color="#58B45B" stop-opacity="0.43"/>
</linearGradient>
<linearGradient id="paint3_linear_1_308" x1="45.3333" y1="8.76196" x2="45.3333" y2="77.332" gradientUnits="userSpaceOnUse">
<stop stop-color="#58B45B"/>
<stop offset="1" stop-color="#58B45B" stop-opacity="0.43"/>
</linearGradient>
</defs>
</svg>
