<svg width="190" height="64" viewBox="0 0 190 64" fill="none" xmlns="http://www.w3.org/2000/svg">
<path fill-rule="evenodd" clip-rule="evenodd" d="M46.366 48.6587C38.878 42.888 30.0833 36.112 30.0833 24.3653C30.0833 11.3973 44.75 2.2 56.75 14.6693V54.6667C54.0833 54.6667 51.4167 52.6133 48.6487 50.4267C47.91 49.8453 47.1447 49.2587 46.366 48.6587Z" fill="url(#paint0_linear_1_214)"/>
<path d="M64.8513 50.4267C72.6993 44.2454 83.4167 37.3334 83.4167 24.368C83.4167 11.4 68.75 2.20269 56.75 14.672V54.6667C59.4167 54.6667 62.0833 52.6134 64.8513 50.4267Z" fill="url(#paint1_linear_1_214)"/>
<g opacity="0.4">
<path fill-rule="evenodd" clip-rule="evenodd" d="M22.366 48.6587C14.878 42.888 6.08333 36.112 6.08333 24.3653C6.08333 11.3973 20.75 2.2 32.75 14.6693V54.6667C30.0833 54.6667 27.4167 52.6133 24.6487 50.4267C23.91 49.8453 23.1447 49.2587 22.366 48.6587Z" fill="url(#paint2_linear_1_214)"/>
<path d="M40.8513 50.4267C48.6993 44.2454 59.4166 37.3334 59.4166 24.368C59.4166 11.4 44.75 2.20269 32.75 14.672V54.6667C35.4167 54.6667 38.0833 52.6134 40.8513 50.4267Z" fill="url(#paint3_linear_1_214)"/>
</g>
<path d="M102.226 21.796H111.154L116.446 35.8L121.414 21.796H130.27V25H127.102V39.796H130.27V43H121.126V39.796H123.43V24.568L121.918 29.356L117.886 40.444H114.826L110.326 29.032L108.814 24.712L108.742 39.796H111.118V43H102.154V39.796H105.358L105.394 25H102.226V21.796ZM141.091 26.512C142.819 26.512 144.295 26.86 145.519 27.556C146.767 28.228 147.727 29.212 148.399 30.508C149.071 31.78 149.407 33.316 149.407 35.116C149.407 37.78 148.663 39.868 147.175 41.38C145.687 42.868 143.659 43.612 141.091 43.612C139.411 43.612 137.947 43.276 136.699 42.604C135.475 41.932 134.527 40.96 133.855 39.688C133.207 38.392 132.883 36.868 132.883 35.116C132.883 33.316 133.207 31.78 133.855 30.508C134.527 29.212 135.475 28.228 136.699 27.556C137.947 26.86 139.411 26.512 141.091 26.512ZM141.091 29.464C139.579 29.464 138.427 29.956 137.635 30.94C136.867 31.9 136.483 33.292 136.483 35.116C136.483 36.916 136.867 38.296 137.635 39.256C138.427 40.216 139.579 40.696 141.091 40.696C142.675 40.696 143.851 40.216 144.619 39.256C145.411 38.296 145.807 36.916 145.807 35.116C145.807 33.292 145.411 31.9 144.619 30.94C143.851 29.956 142.675 29.464 141.091 29.464ZM155.018 51.46C154.562 51.46 154.094 51.412 153.614 51.316C153.158 51.244 152.666 51.1 152.138 50.884L152.75 48.112C153.158 48.232 153.518 48.328 153.83 48.4C154.166 48.472 154.502 48.508 154.838 48.508C155.462 48.508 155.978 48.388 156.386 48.148C156.794 47.908 157.178 47.464 157.538 46.816C157.922 46.168 158.33 45.244 158.762 44.044L164.018 30.004H162.11L162.218 27.16H170.21V30.004H167.51L161.174 45.916C160.406 47.812 159.53 49.204 158.546 50.092C157.562 51.004 156.386 51.46 155.018 51.46ZM159.554 45.448L152.318 30.004H149.69V27.16H158.006V30.004H155.99L161.138 41.992L159.554 45.448ZM179.095 26.512C180.823 26.512 182.299 26.86 183.523 27.556C184.771 28.228 185.731 29.212 186.403 30.508C187.075 31.78 187.411 33.316 187.411 35.116C187.411 37.78 186.667 39.868 185.179 41.38C183.691 42.868 181.663 43.612 179.095 43.612C177.415 43.612 175.951 43.276 174.703 42.604C173.479 41.932 172.531 40.96 171.859 39.688C171.211 38.392 170.887 36.868 170.887 35.116C170.887 33.316 171.211 31.78 171.859 30.508C172.531 29.212 173.479 28.228 174.703 27.556C175.951 26.86 177.415 26.512 179.095 26.512ZM179.095 29.464C177.583 29.464 176.431 29.956 175.639 30.94C174.871 31.9 174.487 33.292 174.487 35.116C174.487 36.916 174.871 38.296 175.639 39.256C176.431 40.216 177.583 40.696 179.095 40.696C180.679 40.696 181.855 40.216 182.623 39.256C183.415 38.296 183.811 36.916 183.811 35.116C183.811 33.292 183.415 31.9 182.623 30.94C181.855 29.956 180.679 29.464 179.095 29.464Z" fill="#4CAF50"/>
<defs>
<linearGradient id="paint0_linear_1_214" x1="43.4167" y1="8.7594" x2="43.4167" y2="77.3334" gradientUnits="userSpaceOnUse">
<stop stop-color="#58B45B"/>
<stop offset="1" stop-color="#58B45B" stop-opacity="0.43"/>
</linearGradient>
<linearGradient id="paint1_linear_1_214" x1="70.0833" y1="8.76208" x2="70.0833" y2="77.3321" gradientUnits="userSpaceOnUse">
<stop stop-color="#58B45B"/>
<stop offset="1" stop-color="#58B45B" stop-opacity="0.43"/>
</linearGradient>
<linearGradient id="paint2_linear_1_214" x1="19.4167" y1="8.7594" x2="19.4167" y2="77.3334" gradientUnits="userSpaceOnUse">
<stop stop-color="#58B45B"/>
<stop offset="1" stop-color="#58B45B" stop-opacity="0.43"/>
</linearGradient>
<linearGradient id="paint3_linear_1_214" x1="46.0833" y1="8.76208" x2="46.0833" y2="77.3321" gradientUnits="userSpaceOnUse">
<stop stop-color="#58B45B"/>
<stop offset="1" stop-color="#58B45B" stop-opacity="0.43"/>
</linearGradient>
</defs>
</svg>
