<svg width="64" height="64" viewBox="0 0 64 64" fill="none" xmlns="http://www.w3.org/2000/svg">
<path d="M19.3485 56.6263V53.3346C19.3678 53.0578 19.3279 52.78 19.2313 52.5198C19.1348 52.2596 18.9839 52.023 18.7887 51.8257C18.5935 51.6284 18.3585 51.475 18.0993 51.3758C17.8402 51.2765 17.5628 51.2336 17.2858 51.25C16.9232 51.2264 16.561 51.3005 16.2368 51.4645C15.9126 51.6285 15.6383 51.8765 15.4425 52.1826C15.2641 51.8856 15.009 51.6423 14.7039 51.4781C14.3988 51.314 14.0551 51.2352 13.7089 51.25C13.4072 51.2348 13.1068 51.2987 12.8374 51.4354C12.568 51.572 12.3389 51.7766 12.1729 52.029V51.3817H11.0317V56.6263H12.1838V53.7187C12.1589 53.5393 12.174 53.3566 12.2281 53.1837C12.2822 53.0108 12.3739 52.8521 12.4966 52.7189C12.6194 52.5857 12.7701 52.4813 12.9379 52.4132C13.1058 52.3452 13.2867 52.3152 13.4675 52.3253C14.2246 52.3253 14.6087 52.819 14.6087 53.7077V56.6263H15.7607V53.7187C15.7377 53.5396 15.7541 53.3577 15.8089 53.1856C15.8637 53.0136 15.9555 52.8556 16.0778 52.7228C16.2002 52.59 16.3501 52.4856 16.5171 52.417C16.6841 52.3483 16.8641 52.317 17.0445 52.3253C17.8234 52.3253 18.1965 52.819 18.1965 53.7077V56.6263H19.3485ZM25.7782 54.0039V51.3817H24.637V52.018C24.4422 51.767 24.1902 51.5663 23.9019 51.4327C23.6137 51.2991 23.2976 51.2364 22.9802 51.25C22.2732 51.2847 21.6065 51.5899 21.1184 52.1026C20.6303 52.6153 20.358 53.2961 20.358 54.004C20.358 54.7119 20.6303 55.3927 21.1184 55.9054C21.6065 56.418 22.2732 56.7233 22.9802 56.758C23.2976 56.7716 23.6137 56.7089 23.9019 56.5753C24.1902 56.4416 24.4422 56.2409 24.637 55.9899V56.6263H25.7782V54.0039ZM21.532 54.0039C21.5497 53.6944 21.6576 53.3969 21.8424 53.148C22.0272 52.8991 22.2808 52.7098 22.5719 52.6033C22.863 52.4968 23.1789 52.4778 23.4807 52.5487C23.7824 52.6196 24.0568 52.7773 24.2701 53.0023C24.4833 53.2273 24.626 53.5098 24.6806 53.8149C24.7352 54.1201 24.6993 54.4345 24.5773 54.7195C24.4554 55.0045 24.2526 55.2475 23.9942 55.4186C23.7358 55.5898 23.4329 55.6816 23.1229 55.6826C22.9056 55.6856 22.6901 55.6435 22.4899 55.559C22.2897 55.4745 22.1092 55.3494 21.9598 55.1917C21.8103 55.034 21.6951 54.847 21.6215 54.6426C21.5479 54.4382 21.5174 54.2207 21.532 54.0039ZM50.1947 51.2438C50.58 51.2401 50.9623 51.3117 51.3201 51.4547C51.6537 51.5878 51.9578 51.785 52.2154 52.0352C52.469 52.2839 52.6701 52.5809 52.8069 52.9087C53.0919 53.611 53.0919 54.3968 52.8069 55.0992C52.6702 55.427 52.4691 55.7241 52.2154 55.9728C51.9579 56.223 51.6537 56.4202 51.3201 56.5532C50.5962 56.8345 49.7932 56.8345 49.0692 56.5532C48.7363 56.4206 48.4329 56.2233 48.1765 55.9728C47.9244 55.7234 47.7243 55.4265 47.5878 55.0992C47.3031 54.3968 47.3031 53.6111 47.5878 52.9087C47.7244 52.5815 47.9245 52.2846 48.1765 52.0352C48.4329 51.7847 48.7363 51.5874 49.0692 51.4547C49.427 51.3117 49.8094 51.2401 50.1947 51.2438ZM50.1947 52.3228C49.9715 52.3207 49.7501 52.3626 49.5431 52.446C49.348 52.5243 49.1709 52.6417 49.0228 52.7909C48.8737 52.9434 48.7564 53.124 48.6777 53.3222C48.5098 53.7613 48.5098 54.2468 48.6777 54.6859C48.7564 54.8841 48.8737 55.0647 49.0228 55.2171C49.1709 55.3664 49.3479 55.4838 49.5431 55.5621C49.962 55.7264 50.4274 55.7264 50.8463 55.5621C51.042 55.4834 51.2199 55.366 51.3693 55.2171C51.5198 55.0652 51.6381 54.8845 51.7172 54.6859C51.8852 54.2468 51.8852 53.7613 51.7172 53.3222C51.6381 53.1236 51.5198 52.9429 51.3693 52.7909C51.2199 52.642 51.042 52.5247 50.8463 52.446C50.6393 52.3626 50.4179 52.3207 50.1947 52.3228ZM31.9873 54.0039C31.9764 52.3691 30.9669 51.25 29.4967 51.25C28.785 51.2873 28.1154 51.5988 27.6285 52.1192C27.1416 52.6396 26.8751 53.3283 26.885 54.0409C26.895 54.7535 27.1805 55.4346 27.6818 55.9411C28.183 56.4477 28.861 56.7405 29.5735 56.758C30.3563 56.7854 31.1218 56.5237 31.724 56.0228L31.1644 55.178C30.7311 55.5252 30.1945 55.7182 29.6393 55.7265C29.2622 55.7582 28.8876 55.642 28.5948 55.4024C28.3019 55.1628 28.1138 54.8187 28.0702 54.4428H31.9654C31.9763 54.3002 31.9873 54.1576 31.9873 54.0039ZM28.0813 53.5431C28.1013 53.191 28.2583 52.8607 28.5187 52.6229C28.7791 52.3851 29.1222 52.2585 29.4747 52.2704C29.8194 52.2637 30.1526 52.3939 30.4015 52.6324C30.6503 52.871 30.7945 53.1985 30.8024 53.5431H28.0813ZM36.7928 52.7203C36.2949 52.4339 35.7323 52.2791 35.158 52.2704C34.5325 52.2704 34.1595 52.5008 34.1595 52.8849C34.1595 53.236 34.5545 53.3346 35.0483 53.4005L35.5859 53.4773C36.727 53.6419 37.4181 54.1246 37.4181 55.0463C37.4181 56.0447 36.5404 56.758 35.0263 56.758C34.2159 56.7804 33.4197 56.5419 32.7551 56.0776L33.2927 55.189C33.7962 55.5623 34.4107 55.7556 35.0373 55.7376C35.8162 55.7376 36.2332 55.5072 36.2332 55.1011C36.2332 54.8049 35.9369 54.6403 35.3116 54.5526L34.7739 54.4758C33.6 54.3112 32.9636 53.7845 32.9636 52.9287C32.9636 51.8863 33.8193 51.25 35.147 51.25C35.898 51.2241 36.6407 51.4145 37.2866 51.7986L36.7928 52.7203ZM42.2758 52.424H40.4106V54.794C40.4106 55.3206 40.5971 55.6717 41.1676 55.6717C41.5238 55.6599 41.8711 55.558 42.1771 55.3755L42.5062 56.3521C42.0784 56.6188 41.584 56.7595 41.0799 56.758C39.7303 56.758 39.2586 56.0339 39.2586 54.8159V52.424H38.1942V51.3817H39.2586L39.2582 49.7908H40.4102L40.4106 51.3817H42.2758V52.424ZM46.2248 51.25C46.5016 51.2511 46.7762 51.2993 47.0368 51.3927L46.6857 52.4679C46.4589 52.3776 46.2166 52.3329 45.9725 52.3362C45.2264 52.3362 44.8533 52.819 44.8533 53.6857V56.6263H43.7123V51.3817H44.8424V52.018C44.9824 51.7775 45.1847 51.5791 45.428 51.444C45.6713 51.3088 45.9466 51.2418 46.2248 51.25ZM54.1246 55.8628C54.1956 55.8624 54.2659 55.8763 54.3313 55.9038C54.3942 55.9301 54.4515 55.968 54.5002 56.0157C54.5485 56.0633 54.5871 56.1198 54.614 56.1821C54.6414 56.246 54.6556 56.3149 54.6556 56.3845C54.6556 56.4541 54.6414 56.523 54.614 56.587C54.587 56.6489 54.5483 56.7052 54.5002 56.7526C54.4514 56.8003 54.3941 56.8385 54.3313 56.8651C54.266 56.8931 54.1957 56.9073 54.1246 56.9068C54.0201 56.9079 53.9176 56.8781 53.8299 56.8212C53.7422 56.7643 53.6732 56.6828 53.6315 56.587C53.6041 56.523 53.59 56.4541 53.59 56.3845C53.59 56.3149 53.6041 56.2461 53.6315 56.1821C53.6583 56.1199 53.6967 56.0634 53.7448 56.0157C53.7934 55.9677 53.851 55.9297 53.9143 55.9038C53.9809 55.8762 54.0525 55.8623 54.1246 55.8628ZM54.1246 56.7916C54.1788 56.7921 54.2324 56.7812 54.2821 56.7597C54.3298 56.7389 54.3732 56.7094 54.4099 56.6727C54.4571 56.6257 54.492 56.5678 54.5115 56.5042C54.531 56.4405 54.5347 56.3731 54.522 56.3077C54.5094 56.2423 54.4809 56.1811 54.4391 56.1293C54.3973 56.0775 54.3433 56.0368 54.2821 56.0107C54.2323 55.9895 54.1787 55.9788 54.1246 55.9793C54.0696 55.9788 54.015 55.9895 53.9641 56.0107C53.9156 56.0306 53.8715 56.0599 53.8343 56.0969C53.7584 56.1735 53.7158 56.2769 53.7158 56.3848C53.7158 56.4926 53.7584 56.5961 53.8343 56.6727C53.8725 56.7107 53.9178 56.7407 53.9676 56.7611C54.0174 56.7815 54.0708 56.7919 54.1246 56.7916ZM54.1554 56.1404C54.2068 56.137 54.2577 56.1518 54.2994 56.1821C54.316 56.1957 54.3292 56.2131 54.3379 56.2327C54.3467 56.2524 54.3508 56.2738 54.3498 56.2953C54.3504 56.3137 54.3471 56.332 54.3402 56.3491C54.3333 56.3661 54.3228 56.3815 54.3096 56.3943C54.2778 56.4226 54.2375 56.4395 54.195 56.4423L54.3537 56.6253H54.2296L54.0825 56.4436H54.0351V56.6253H53.9315V56.1404H54.1554ZM54.0351 56.2313V56.3605H54.1541C54.177 56.3617 54.1997 56.3561 54.2194 56.3444C54.2274 56.3391 54.2339 56.3317 54.2381 56.3231C54.2424 56.3145 54.2443 56.3049 54.2436 56.2953C54.2442 56.2858 54.2422 56.2764 54.238 56.268C54.2337 56.2596 54.2273 56.2524 54.2194 56.2472C54.1997 56.2357 54.177 56.2302 54.1541 56.2313H54.0351Z" fill="black"/>
<path d="M40.6533 11.3535H23.3474V42.4527H40.6533V11.3535Z" fill="#7375CF"/>
<path d="M24.4464 26.9032C24.4437 23.9081 25.1224 20.9517 26.4311 18.2577C27.7399 15.5637 29.6444 13.2027 32.0005 11.3536C29.0828 9.06021 25.5788 7.634 21.8888 7.23796C18.1989 6.84191 14.472 7.49202 11.1341 9.11397C7.79616 10.7359 4.98193 13.2643 3.01303 16.41C1.04413 19.5558 0 23.192 0 26.9032C0 30.6143 1.04413 34.2505 3.01303 37.3963C4.98193 40.5421 7.79616 43.0704 11.1341 44.6924C14.472 46.3143 18.1989 46.9644 21.8888 46.5684C25.5788 46.1723 29.0828 44.7461 32.0005 42.4527C29.6444 40.6036 27.7399 38.2427 26.4311 35.5487C25.1224 32.8547 24.4437 29.8982 24.4464 26.9032Z" fill="#EB001B"/>
<path d="M62.1132 39.159V38.5223H62.3699V38.3926H61.7161V38.5223H61.9729V39.159H62.1132ZM63.3825 39.159V38.3914H63.1821L62.9516 38.9194L62.721 38.3914H62.5205V39.159H62.662V38.58L62.8782 39.0792H63.0249L63.2411 38.5787V39.159H63.3825Z" fill="#00A2E5"/>
<path d="M64 26.9032C64.0001 30.6142 62.9561 34.2505 60.9873 37.3962C59.0185 40.542 56.2044 43.0704 52.8665 44.6923C49.5287 46.3143 45.8018 46.9644 42.112 46.5684C38.4221 46.1723 34.9181 44.7461 32.0005 42.4527C34.3545 40.6017 36.2575 38.2404 37.5661 35.5468C38.8746 32.8533 39.5545 29.8977 39.5545 26.9032C39.5545 23.9086 38.8746 20.9531 37.5661 18.2595C36.2575 15.5659 34.3545 13.2046 32.0005 11.3536C34.9181 9.0602 38.4221 7.63399 42.112 7.23795C45.8018 6.84192 49.5287 7.49204 52.8665 9.114C56.2044 10.736 59.0185 13.2643 60.9873 16.4101C62.9561 19.5559 64.0001 23.1921 64 26.9032Z" fill="#00A2E5"/>
</svg>
