<svg width="64" height="64" viewBox="0 0 64 64" fill="none" xmlns="http://www.w3.org/2000/svg">
<path d="M11.6425 56.6255V53.3295C11.6618 53.0523 11.6218 52.7741 11.5251 52.5136C11.4285 52.253 11.2774 52.0161 11.0819 51.8186C10.8865 51.621 10.6512 51.4675 10.3917 51.3681C10.1322 51.2687 9.85448 51.2257 9.57707 51.2421C9.21403 51.2185 8.85127 51.2926 8.52664 51.4569C8.20201 51.6211 7.92738 51.8694 7.73138 52.1759C7.55274 51.8786 7.29723 51.6349 6.99174 51.4706C6.68625 51.3062 6.3421 51.2273 5.99553 51.2421C5.69343 51.2269 5.3926 51.2909 5.12282 51.4277C4.85305 51.5646 4.62369 51.7695 4.45745 52.0222V51.374H3.31482V56.6255H4.46838V53.714C4.44343 53.5344 4.4586 53.3514 4.51276 53.1783C4.56692 53.0052 4.65874 52.8463 4.78163 52.7129C4.90453 52.5795 5.05543 52.475 5.22352 52.4068C5.39161 52.3387 5.57271 52.3086 5.7538 52.3188C6.51185 52.3188 6.89643 52.8132 6.89643 53.703V56.6255H8.04998V53.714C8.02692 53.5347 8.04338 53.3525 8.09824 53.1802C8.15309 53.0079 8.245 52.8498 8.3675 52.7168C8.49 52.5838 8.64013 52.4793 8.80734 52.4105C8.97455 52.3418 9.15479 52.3105 9.33539 52.3188C10.1154 52.3188 10.4889 52.8132 10.4889 53.703V56.6255H11.6425ZM28.7152 51.374H26.8476V49.781H25.694V51.374H24.6283V52.4177H25.694V54.8127C25.694 56.0321 26.1664 56.7573 27.5177 56.7573C28.0225 56.7588 28.5176 56.6179 28.9459 56.3508L28.6164 55.373C28.31 55.5558 27.9622 55.6578 27.6056 55.6696C27.0343 55.6696 26.8476 55.3179 26.8476 54.7908V52.4177H28.7152V51.374ZM38.4601 51.2421C38.1815 51.2339 37.9059 51.301 37.6623 51.4364C37.4187 51.5717 37.2161 51.7703 37.0759 52.0112V51.374H35.9442V56.6255H37.0868V53.681C37.0868 52.8132 37.4603 52.3298 38.2075 52.3298C38.4519 52.3264 38.6945 52.3712 38.9215 52.4616L39.2731 51.3849C39.0122 51.2916 38.7372 51.2433 38.4601 51.2421ZM23.7275 51.7914C23.0807 51.4069 22.3371 51.2162 21.5851 51.2421C20.2558 51.2421 19.3989 51.8793 19.3989 52.923C19.3989 53.78 20.036 54.3074 21.2115 54.4721L21.7499 54.549C22.3761 54.6368 22.6728 54.8016 22.6728 55.0983C22.6728 55.5048 22.2552 55.7355 21.4752 55.7355C20.8478 55.7536 20.2325 55.5601 19.7284 55.1861L19.1901 56.0761C19.8556 56.5409 20.6528 56.7797 21.4643 56.7573C22.9804 56.7573 23.8592 56.0431 23.8592 55.0434C23.8592 54.1205 23.1671 53.6371 22.0246 53.4723L21.4863 53.3954C20.9918 53.3295 20.5964 53.2307 20.5964 52.8792C20.5964 52.4946 20.9698 52.2638 21.5961 52.2638C22.1712 52.2725 22.7345 52.4275 23.2331 52.7143L23.7275 51.7914ZM54.3353 51.2421C54.0568 51.2339 53.7811 51.301 53.5375 51.4364C53.2939 51.5717 53.0913 51.7703 52.9511 52.0112V51.374H51.8195V56.6255H52.962V53.681C52.962 52.8132 53.3356 52.3298 54.0826 52.3298C54.327 52.3264 54.5697 52.3712 54.7968 52.4616L55.1484 51.3849C54.8874 51.2916 54.6125 51.2433 54.3353 51.2421ZM39.6136 53.9996C39.5984 54.3695 39.6609 54.7386 39.7969 55.083C39.9329 55.4274 40.1395 55.7395 40.4034 55.9992C40.6672 56.259 40.9826 56.4606 41.3291 56.5912C41.6756 56.7217 42.0456 56.7783 42.4152 56.7573C43.1012 56.7918 43.7752 56.5684 44.3048 56.131L43.7555 55.2081C43.3605 55.5092 42.8789 55.6749 42.3822 55.6805C41.954 55.6546 41.5519 55.4662 41.2579 55.1538C40.964 54.8414 40.8003 54.4286 40.8003 53.9997C40.8003 53.5707 40.964 53.1579 41.2579 52.8455C41.5519 52.5332 41.954 52.3448 42.3822 52.3188C42.8789 52.3244 43.3605 52.4901 43.7555 52.7912L44.3048 51.8683C43.7752 51.4311 43.1012 51.2077 42.4152 51.2421C42.0456 51.2211 41.6756 51.2777 41.3291 51.4082C40.9827 51.5388 40.6673 51.7404 40.4035 52.0001C40.1396 52.2598 39.933 52.5719 39.7969 52.9163C39.6609 53.2606 39.5985 53.6296 39.6136 53.9996ZM50.3143 53.9996V51.374H49.1718V52.0112C48.9767 51.7598 48.7243 51.5589 48.4357 51.4251C48.1471 51.2913 47.8306 51.2285 47.5128 51.2421C46.8048 51.2768 46.1373 51.5825 45.6485 52.0959C45.1597 52.6092 44.8871 53.2909 44.8871 53.9997C44.8871 54.7085 45.1597 55.3902 45.6485 55.9036C46.1373 56.4169 46.8048 56.7226 47.5128 56.7573C47.8307 56.7709 48.1471 56.7081 48.4357 56.5743C48.7244 56.4405 48.9767 56.2395 49.1718 55.9882V56.6255H50.3143V53.9996ZM46.0626 53.9996C46.0803 53.6897 46.1884 53.3918 46.3734 53.1425C46.5584 52.8933 46.8123 52.7037 47.1038 52.5971C47.3953 52.4904 47.7117 52.4714 48.0138 52.5424C48.316 52.6134 48.5908 52.7713 48.8043 52.9966C49.0178 53.2219 49.1607 53.5047 49.2154 53.8103C49.2701 54.1158 49.2342 54.4307 49.112 54.716C48.9899 55.0014 48.787 55.2448 48.5282 55.4162C48.2694 55.5876 47.9661 55.6795 47.6557 55.6805C47.4381 55.6835 47.2223 55.6413 47.0219 55.5567C46.8214 55.4721 46.6406 55.3469 46.491 55.189C46.3413 55.0311 46.226 54.8439 46.1522 54.6392C46.0785 54.4344 46.048 54.2167 46.0626 53.9996ZM32.2748 51.2421C31.5623 51.2796 30.892 51.5916 30.4045 52.1127C29.9171 52.6337 29.6503 53.3233 29.6603 54.0367C29.6702 54.7502 29.9561 55.432 30.4579 55.9393C30.9597 56.4465 31.6385 56.7397 32.3517 56.7573C33.1356 56.7848 33.9021 56.5227 34.5051 56.0211L33.9447 55.1752C33.5109 55.5229 32.9735 55.7162 32.4176 55.7245C32.0401 55.7563 31.665 55.6399 31.3718 55.3999C31.0785 55.16 30.8902 54.8154 30.8466 54.439H34.7468C34.7578 54.2963 34.7687 54.1535 34.7687 53.9996C34.7578 52.3627 33.747 51.2421 32.2748 51.2421ZM32.2528 52.2638C32.5979 52.2571 32.9316 52.3875 33.1808 52.6264C33.43 52.8652 33.5743 53.1932 33.5822 53.5383H30.8576C30.8776 53.1857 31.0348 52.855 31.2956 52.6168C31.5563 52.3787 31.8999 52.252 32.2528 52.2638ZM60.9161 53.9996V49.2646H59.7735V52.0112C59.5785 51.7598 59.3261 51.5589 59.0375 51.4251C58.7489 51.2913 58.4325 51.2286 58.1146 51.2421C57.4067 51.2768 56.7391 51.5825 56.2503 52.0958C55.7615 52.6092 55.4888 53.2909 55.4888 53.9997C55.4888 54.7086 55.7615 55.3903 56.2503 55.9036C56.7391 56.417 57.4067 56.7226 58.1146 56.7573C58.4325 56.7709 58.7489 56.7081 59.0375 56.5743C59.3261 56.4405 59.5785 56.2395 59.7735 55.9882V56.6255H60.9161V53.9996ZM62.8208 55.8644C62.8917 55.8639 62.9621 55.8779 63.0275 55.9054C63.0904 55.9316 63.1477 55.9696 63.1964 56.0173C63.2446 56.0649 63.2833 56.1213 63.3101 56.1836C63.3376 56.2475 63.3518 56.3164 63.3518 56.386C63.3518 56.4557 63.3376 56.5246 63.3101 56.5885C63.2831 56.6505 63.2445 56.7067 63.1964 56.7542C63.1475 56.8019 63.0903 56.84 63.0275 56.8667C62.9622 56.8946 62.8918 56.9088 62.8208 56.9083C62.7162 56.9094 62.6137 56.8796 62.526 56.8227C62.4383 56.7659 62.3693 56.6844 62.3276 56.5885C62.3003 56.5245 62.2861 56.4557 62.2861 56.386C62.2861 56.3164 62.3003 56.2476 62.3276 56.1836C62.3544 56.1214 62.3929 56.065 62.4409 56.0173C62.4896 55.9692 62.5471 55.9312 62.6104 55.9054C62.6771 55.8778 62.7486 55.8638 62.8208 55.8644ZM62.8208 56.7932C62.8749 56.7936 62.9286 56.7827 62.9782 56.7612C63.0259 56.7405 63.0693 56.711 63.1061 56.6742C63.1819 56.5976 63.2245 56.4941 63.2245 56.3863C63.2245 56.2785 63.1819 56.175 63.1061 56.0984C63.0694 56.0618 63.026 56.0325 62.9782 56.0122C62.9285 55.991 62.8749 55.9803 62.8208 55.9808C62.7657 55.9804 62.7111 55.991 62.6603 56.0122C62.6118 56.0321 62.5677 56.0615 62.5304 56.0984C62.4545 56.175 62.4119 56.2785 62.4119 56.3863C62.4119 56.4941 62.4545 56.5976 62.5304 56.6742C62.5677 56.7113 62.6118 56.7408 62.6603 56.7612C62.711 56.7827 62.7656 56.7936 62.8208 56.7932ZM62.8515 56.1419C62.9029 56.1386 62.9538 56.1533 62.9955 56.1836C63.0121 56.1973 63.0253 56.2146 63.0341 56.2342C63.0428 56.2539 63.0469 56.2753 63.046 56.2968C63.0466 56.3152 63.0433 56.3335 63.0363 56.3506C63.0294 56.3677 63.019 56.3831 63.0057 56.3959C62.9739 56.4241 62.9336 56.441 62.8912 56.4439L63.0498 56.6268H62.9258L62.7786 56.4451H62.7313V56.6268H62.6277V56.1419H62.8515ZM62.7313 56.2329V56.3621H62.8503C62.8731 56.3632 62.8958 56.3576 62.9156 56.346C62.9236 56.3406 62.93 56.3333 62.9343 56.3247C62.9385 56.316 62.9404 56.3064 62.9398 56.2968C62.9403 56.2874 62.9383 56.278 62.9341 56.2695C62.9298 56.2611 62.9235 56.2539 62.9156 56.2487C62.8958 56.2372 62.8731 56.2317 62.8503 56.2329H62.7313ZM56.6645 53.9996C56.6822 53.6897 56.7903 53.3918 56.9753 53.1426C57.1603 52.8934 57.4142 52.7038 57.7057 52.5972C57.9972 52.4906 58.3135 52.4716 58.6157 52.5426C58.9178 52.6136 59.1926 52.7715 59.4061 52.9968C59.6196 53.2221 59.7625 53.5049 59.8171 53.8104C59.8718 54.1159 59.8359 54.4308 59.7137 54.7161C59.5916 55.0015 59.3886 55.2448 59.1299 55.4162C58.8711 55.5876 58.5678 55.6795 58.2574 55.6805C58.0399 55.6835 57.8241 55.6413 57.6236 55.5567C57.4232 55.4721 57.2424 55.3469 57.0928 55.189C56.9431 55.031 56.8278 54.8438 56.7541 54.6391C56.6804 54.4344 56.6498 54.2167 56.6645 53.9996ZM18.0805 53.9996V51.374H16.9379V52.0112C16.7428 51.7598 16.4905 51.5589 16.2018 51.4251C15.9132 51.2913 15.5968 51.2285 15.2789 51.2421C14.5709 51.2768 13.9034 51.5825 13.4146 52.0959C12.9259 52.6092 12.6532 53.2909 12.6532 53.9997C12.6532 54.7085 12.9259 55.3902 13.4146 55.9036C13.9034 56.4169 14.5709 56.7226 15.2789 56.7573C15.5968 56.7709 15.9132 56.7081 16.2018 56.5743C16.4905 56.4405 16.7428 56.2395 16.9379 55.9882V56.6255H18.0805V53.9996ZM13.8288 53.9996C13.8466 53.6897 13.9546 53.3918 14.1396 53.1426C14.3247 52.8934 14.5786 52.7038 14.8701 52.5972C15.1616 52.4906 15.4779 52.4716 15.78 52.5426C16.0822 52.6136 16.3569 52.7715 16.5704 52.9968C16.7839 53.2221 16.9268 53.5049 16.9815 53.8104C17.0362 54.116 17.0002 54.4308 16.8781 54.7161C16.7559 55.0015 16.553 55.2449 16.2942 55.4162C16.0354 55.5876 15.7321 55.6795 15.4218 55.6805C15.2042 55.6835 14.9884 55.6413 14.788 55.5567C14.5875 55.4721 14.4068 55.3469 14.2571 55.189C14.1075 55.031 13.9921 54.8438 13.9184 54.6391C13.8447 54.4344 13.8142 54.2167 13.8288 53.9996Z" fill="#231F20"/>
<path d="M40.6535 11.3525H23.3477V42.4516H40.6535V11.3525Z" fill="#FF5F00"/>
<path d="M24.4463 26.9031C24.4436 23.908 25.1223 20.9516 26.4311 18.2576C27.7398 15.5636 29.6443 13.2027 32.0004 11.3536C29.0827 9.0602 25.5787 7.634 21.8888 7.23796C18.1989 6.84192 14.472 7.49202 11.1341 9.11397C7.79616 10.7359 4.98191 13.2642 3.01302 16.41C1.04412 19.5558 0 23.192 0 26.9031C0 30.6142 1.04412 34.2505 3.01302 37.3962C4.98191 40.542 7.79616 43.0703 11.1341 44.6922C14.472 46.3142 18.1989 46.9643 21.8888 46.5682C25.5787 46.1722 29.0827 44.746 32.0004 42.4526C29.6443 40.6035 27.7398 38.2426 26.4311 35.5486C25.1223 32.8546 24.4436 29.8982 24.4463 26.9031Z" fill="#EB001B"/>
<path d="M64 26.9031C64.0001 30.6141 62.9562 34.2504 60.9874 37.3961C59.0186 40.5419 56.2044 43.0702 52.8666 44.6922C49.5288 46.3142 45.8019 46.9643 42.1121 46.5682C38.4222 46.1722 34.9182 44.746 32.0006 42.4526C34.3546 40.6016 36.2576 38.2403 37.5662 35.5467C38.8747 32.8532 39.5546 29.8977 39.5546 26.9031C39.5546 23.9085 38.8747 20.953 37.5662 18.2594C36.2576 15.5659 34.3546 13.2046 32.0006 11.3536C34.9182 9.0602 38.4222 7.63399 42.1121 7.23795C45.8019 6.84192 49.5288 7.49203 52.8666 9.11399C56.2044 10.736 59.0186 13.2643 60.9874 16.4101C62.9562 19.5558 64.0001 23.192 64 26.9031Z" fill="#F79E1B"/>
<path d="M62.1132 39.1581V38.5214H62.3699V38.3917H61.7161V38.5214H61.9729V39.1581H62.1132ZM63.3825 39.1581V38.3904H63.1821L62.9516 38.9184L62.721 38.3904H62.5205V39.1581H62.662V38.579L62.8782 39.0782H63.0249L63.2411 38.5777V39.1581H63.3825Z" fill="#F79E1B"/>
</svg>
