<svg width="64" height="64" viewBox="0 0 64 64" fill="none" xmlns="http://www.w3.org/2000/svg">
<path d="M6.00895 23.2517C5.97625 23.2523 5.94595 23.2528 5.91828 23.253L0 23.253V40.7075H5.71897V30.4137H6.10247L9.29051 40.7075H13.5933L16.7813 30.4213H17.1648V40.7075H22.8838V23.253L17.2727 23.253C17.2292 23.253 17.1818 23.2524 17.1309 23.2517C16.3318 23.2407 14.6838 23.2181 14 25.5258C13.575 26.96 12.7943 29.6404 11.6577 33.5671H11.2261C10.1663 29.8426 9.39394 27.1621 8.90909 25.5258C8.22414 23.214 6.65218 23.2408 6.00895 23.2517Z" fill="#0F754E"/>
<path d="M31.0961 33.5469V23.253H25.2577V40.7076H30.792C30.792 40.7076 32.4724 40.5551 33.2252 38.8783L37.0271 30.4137H37.4834V40.7076H43.3218V23.253H37.7875C37.7875 23.253 36.1831 23.3979 35.4303 25.0823L31.5524 33.5469H31.0961Z" fill="#0F754E"/>
<path d="M57.2984 35.5081C60.13 35.5081 62.6875 33.8554 63.5019 31.5475H45.6237V40.7076H51.1757V35.5081H57.2984Z" fill="#0F754E"/>
<path d="M45.3326 23.253H57.5662C62.2733 23.253 64.5486 27.2359 63.8877 30.4656H52.4346C48.9702 30.4656 45.6237 27.139 45.3326 23.253Z" fill="#0F754E"/>
</svg>
