<svg width="120" height="120" viewBox="0 0 120 120" fill="none" xmlns="http://www.w3.org/2000/svg">
<circle cx="60" cy="60" r="55.5" fill="white" stroke="#F3F3F3" stroke-width="9"/>
<path d="M57.94 82.485C57.8319 82.9177 57.5822 83.3018 57.2307 83.5763C56.8792 83.8508 56.446 84 56 84C55.8315 84.0008 55.6636 83.9807 55.5 83.94L47.5 81.94C47.2773 81.8841 47.0659 81.7902 46.875 81.6625L40.875 77.6625C40.4338 77.3681 40.1275 76.9105 40.0237 76.3903C39.9198 75.8702 40.0269 75.33 40.3213 74.8888C40.6157 74.4475 41.0733 74.1413 41.5935 74.0374C42.1137 73.9336 42.6538 74.0406 43.095 74.335L48.805 78.1425L56.47 80.06C56.7261 80.1221 56.9674 80.2342 57.1801 80.3898C57.3927 80.5455 57.5725 80.7416 57.7091 80.967C57.8457 81.1923 57.9364 81.4424 57.9761 81.7029C58.0157 81.9635 58.0035 82.2293 57.94 82.485ZM91.1125 58.37C90.9484 58.8685 90.6872 59.3295 90.3439 59.7264C90.0006 60.1233 89.5821 60.4483 89.1125 60.6825L83.1925 63.6425L69.4225 77.415C69.1781 77.6592 68.8747 77.8359 68.5417 77.9279C68.2087 78.0199 67.8576 78.0241 67.5225 77.94L51.5225 73.94C51.2792 73.8789 51.0494 73.773 50.845 73.6275L36.965 63.7175L30.895 60.6825C29.9464 60.2083 29.2249 59.3767 28.8892 58.3706C28.5535 57.3646 28.6312 56.2664 29.105 55.3175L35.3175 42.895C35.7918 41.9464 36.6233 41.2249 37.6294 40.8892C38.6355 40.5535 39.7337 40.6312 40.6825 41.105L46.1975 43.855L59.4475 40.07C59.807 39.9672 60.1881 39.9672 60.5475 40.07L73.7975 43.855L79.3125 41.105C80.2614 40.6312 81.3596 40.5535 82.3657 40.8892C83.3717 41.2249 84.2033 41.9464 84.6775 42.895L90.89 55.3175C91.127 55.7864 91.2687 56.2976 91.3069 56.8215C91.345 57.3455 91.279 57.8718 91.1125 58.37ZM79.5675 61.605L72.765 48H64.81L54 58.5C57.165 60.5225 62.1275 61.08 66.58 56.5925C66.9278 56.242 67.3929 56.0325 67.8858 56.0044C68.3787 55.9762 68.8647 56.1314 69.25 56.44L77.8525 63.3325L79.5675 61.605ZM32.6825 57.105L37.105 59.3175L43.3175 46.895L38.895 44.6825L32.6825 57.105ZM75 66.165L68.0725 60.6175C63.1875 64.6175 56.985 65.145 51.845 61.8675C51.3394 61.5459 50.9125 61.1148 50.5959 60.606C50.2793 60.0973 50.081 59.5239 50.0157 58.9282C49.9504 58.3326 50.0198 57.7299 50.2188 57.1646C50.4177 56.5994 50.7411 56.086 51.165 55.6625C51.1711 55.6552 51.1778 55.6486 51.185 55.6425L62.4 44.765L60 44.08L47.395 47.6825L40.5525 61.365L52.8525 70.1525L67.3875 73.785L75 66.165ZM87.31 57.105L81.105 44.6825L76.6825 46.895L82.895 59.3175L87.31 57.105Z" fill="#4CAF50"/>
<mask id="path-3-inside-1_16_3723" fill="white">
<path fill-rule="evenodd" clip-rule="evenodd" d="M87.5446 113.304C96.3853 108.735 103.929 102.051 109.522 93.8764C110.924 91.8261 110.177 89.0629 108.028 87.8178C105.879 86.5736 103.145 87.3189 101.715 89.348C92.4838 102.445 77.241 111 59.9999 111C31.8334 111 8.99989 88.1667 8.99989 60.0001C8.99989 31.8336 31.8334 9.00014 59.9999 9.00014C64.8072 9.00014 69.4592 9.66529 73.8689 10.9086C76.2573 11.582 78.8492 10.4377 79.7313 8.11824C80.6133 5.79905 79.4518 3.18658 77.0732 2.48052C67.5762 -0.338487 57.5043 -0.768569 47.7605 1.26175C36.547 3.59832 26.2366 9.09588 18.0476 17.1048C9.85862 25.1138 4.13326 35.2995 1.54804 46.4583C-1.03719 57.6171 -0.37424 69.2828 3.45854 80.0769C7.29133 90.871 14.1338 100.342 23.1774 107.372C32.221 114.402 43.0878 118.696 54.4939 119.747C65.9 120.798 77.3686 118.562 87.5446 113.304Z"/>
</mask>
<path fill-rule="evenodd" clip-rule="evenodd" d="M87.5446 113.304C96.3853 108.735 103.929 102.051 109.522 93.8764C110.924 91.8261 110.177 89.0629 108.028 87.8178C105.879 86.5736 103.145 87.3189 101.715 89.348C92.4838 102.445 77.241 111 59.9999 111C31.8334 111 8.99989 88.1667 8.99989 60.0001C8.99989 31.8336 31.8334 9.00014 59.9999 9.00014C64.8072 9.00014 69.4592 9.66529 73.8689 10.9086C76.2573 11.582 78.8492 10.4377 79.7313 8.11824C80.6133 5.79905 79.4518 3.18658 77.0732 2.48052C67.5762 -0.338487 57.5043 -0.768569 47.7605 1.26175C36.547 3.59832 26.2366 9.09588 18.0476 17.1048C9.85862 25.1138 4.13326 35.2995 1.54804 46.4583C-1.03719 57.6171 -0.37424 69.2828 3.45854 80.0769C7.29133 90.871 14.1338 100.342 23.1774 107.372C32.221 114.402 43.0878 118.696 54.4939 119.747C65.9 120.798 77.3686 118.562 87.5446 113.304Z" fill="white"/>
<path d="M87.5446 113.304L91.6763 121.299L87.5446 113.304ZM47.7605 1.26175L49.5964 10.0725L47.7605 1.26175ZM18.0476 17.1048L24.3405 23.5391V23.5391L18.0476 17.1048ZM1.54804 46.4583L-7.21974 44.427L1.54804 46.4583ZM3.45854 80.0769L11.9397 77.0654L3.45854 80.0769ZM23.1774 107.372L28.7008 100.266H28.7008L23.1774 107.372ZM54.4939 119.747L55.3198 110.785H55.3198L54.4939 119.747ZM102.093 88.795C97.34 95.7437 90.9274 101.425 83.4129 105.308L91.6763 121.299C101.843 116.046 110.519 108.359 116.95 98.9578L102.093 88.795ZM94.3585 84.163C86.7411 94.9705 74.191 102 59.9999 102V120C80.2909 120 98.2265 109.919 109.071 94.533L94.3585 84.163ZM59.9999 102C36.8039 102 17.9999 83.1961 17.9999 60.0001H-0.000112453C-0.000112453 93.1372 26.8628 120 59.9999 120V102ZM17.9999 60.0001C17.9999 36.8042 36.8039 18.0001 59.9999 18.0001V0.000138264C26.8628 0.000138264 -0.000112453 26.8631 -0.000112453 60.0001H17.9999ZM59.9999 18.0001C63.9735 18.0001 67.8039 18.5495 71.4266 19.5709L76.3112 2.24629C71.1145 0.781111 65.641 0.000138264 59.9999 0.000138264V18.0001ZM49.5964 10.0725C57.8786 8.34675 66.4397 8.7123 74.5121 11.1084L79.6342 -6.14741C68.7126 -9.38927 57.13 -9.88389 45.9246 -7.54901L49.5964 10.0725ZM24.3405 23.5391C31.3011 16.7315 40.0649 12.0586 49.5964 10.0725L45.9246 -7.54901C33.0291 -4.86195 21.1721 1.46024 11.7548 10.6705L24.3405 23.5391ZM10.3158 48.4896C12.5133 39.0046 17.3798 30.3468 24.3405 23.5391L11.7548 10.6705C2.33743 19.8809 -4.24673 31.5944 -7.21974 44.427L10.3158 48.4896ZM11.9397 77.0654C8.68188 67.8904 8.11837 57.9746 10.3158 48.4896L-7.21974 44.427C-10.1927 57.2597 -9.43036 70.6752 -5.02266 83.0884L11.9397 77.0654ZM28.7008 100.266C21.0137 94.2911 15.1976 86.2404 11.9397 77.0654L-5.02266 83.0884C-0.614955 95.5016 7.25386 106.394 17.654 114.478L28.7008 100.266ZM55.3198 110.785C45.6247 109.891 36.3878 106.242 28.7008 100.266L17.654 114.478C28.0542 122.562 40.551 127.5 53.668 128.709L55.3198 110.785ZM83.4129 105.308C74.7633 109.778 65.0149 111.678 55.3198 110.785L53.668 128.709C66.785 129.918 79.9739 127.347 91.6763 121.299L83.4129 105.308ZM71.4266 19.5709C77.8134 21.3716 85.4297 18.4533 88.1435 11.3175L71.3192 4.91896C72.2687 2.4222 74.7013 1.79237 76.3112 2.24629L71.4266 19.5709ZM88.1435 11.3175C90.7229 4.53524 87.4636 -3.8234 79.6342 -6.14741L74.5121 11.1084C71.4401 10.1966 70.5038 7.06287 71.3192 4.91896L88.1435 11.3175ZM112.538 80.0299C105.936 76.2055 98.1834 78.7362 94.3585 84.163L109.071 94.533C108.107 95.9016 105.823 96.9417 103.517 95.6058L112.538 80.0299ZM116.95 98.9578C121.563 92.2139 118.82 83.668 112.538 80.0299L103.517 95.6058C101.535 94.4578 100.285 91.4382 102.093 88.795L116.95 98.9578Z" fill="#4CAF50" mask="url(#path-3-inside-1_16_3723)"/>
</svg>
