<svg width="120" height="120" viewBox="0 0 120 120" fill="none" xmlns="http://www.w3.org/2000/svg">
<circle cx="60.0001" cy="60" r="55.5" fill="white" stroke="#F3F3F3" stroke-width="9"/>
<path d="M75.1695 32.2226C70.0754 32.1913 64.8602 34.8758 61.517 41.1953L60.5288 43.0626L59.4703 41.2306C55.3899 34.1521 48.0303 31.5271 41.7945 32.7539C35.5587 33.9811 30.4698 38.8844 30.7473 47.6408C30.9068 52.6698 33.108 56.6801 36.3568 60.3987C37.2849 58.0033 37.9643 55.2994 38.384 52.2932L38.3878 52.2697L38.3919 52.2422C38.8007 50.0447 40.4085 48.6859 42.0675 48.5784C42.3045 48.5629 42.5425 48.5727 42.7785 48.6097C44.6373 48.9001 46.167 50.7874 45.8683 53.1838V53.1913L45.8645 53.1993C45.2152 57.8481 43.9385 62.1743 42.0245 65.9649C42.4685 66.3592 42.917 66.7549 43.3723 67.1524C43.6618 67.4047 43.9623 67.6602 44.2552 67.9139C45.5074 67.6079 46.8657 67.1486 48.2943 66.5624C48.3484 66.6496 48.4037 66.7368 48.4622 66.8242L49.6654 68.6211C48.5579 69.0823 47.4727 69.4771 46.4192 69.7928C51.7294 74.4122 57.1967 79.4687 60.5129 86.3474C62.6232 82.1931 65.5342 78.7639 68.7007 75.7069C68.4688 75.5219 68.2602 75.3094 68.0794 75.0742C67.0769 73.7671 67.1209 72.0212 67.7397 70.4492C68.3584 68.8772 69.5538 67.3487 71.185 66.0976C72.8163 64.8466 74.6 64.0926 76.2788 63.9026C76.6984 63.8551 77.1179 63.8431 77.5288 63.8751C78.7463 63.9701 79.8783 64.4382 80.6303 65.3946C83.0328 63.2433 85.1775 61.0596 86.806 58.6914C88.9813 55.5289 90.2663 52.0677 90.1304 47.7111C89.9522 41.9954 87.377 37.6573 83.7672 35.0471C83.6084 36.3816 83.1882 37.7683 82.5639 39.1916C82.5545 39.1853 82.5459 39.1784 82.5364 39.1722L80.5522 37.8559C81.1869 36.2991 81.5172 34.8859 81.4975 33.6997C80.5871 33.2603 79.6343 32.9147 78.6538 32.6684C77.5158 32.3834 76.345 32.2302 75.1694 32.2229L75.1695 32.2226ZM76.8765 38.8633C77.3498 38.8576 78.1303 39.0573 79.1109 39.7071L81.2474 41.1212C82.8294 42.1696 82.8099 43.2041 82.6187 43.5312C82.5229 43.6947 82.3937 43.8228 81.9779 43.8437C81.5623 43.8646 80.8525 43.7058 79.9349 43.0974L77.8022 41.6837C76.8959 41.0829 76.4172 40.4556 76.224 39.9922C76.0309 39.5287 76.0987 39.2744 76.181 39.1406C76.2635 39.0068 76.4033 38.8691 76.8765 38.8631V38.8633ZM42.4977 43.5588C45.2179 43.5806 47.862 44.9917 49.3179 47.4963C51.3802 51.0438 50.3288 55.5553 47.0288 57.8751L47.8257 53.0196C48.2454 51.6142 48.0998 50.0467 47.2984 48.6681C46.3299 47.0022 44.6329 46.0227 42.8413 45.8986C42.7061 45.8897 42.5706 45.8858 42.435 45.8868C41.4888 45.8897 40.5323 46.1308 39.6498 46.6368C38.0432 47.5581 37.071 49.1313 36.8804 50.8164L35.8529 55.8127C35.7587 55.6736 35.6688 55.5316 35.5835 55.3869C33.3973 51.6263 34.705 46.7776 38.486 44.6094C39.6673 43.9319 40.9577 43.5944 42.236 43.5627C42.3238 43.5604 42.4098 43.5579 42.4977 43.5588ZM76.9898 43.9532L78.646 45.0469C78.7467 45.1137 78.8469 45.1736 78.9468 45.2344C78.0062 46.5141 76.9562 47.8032 75.818 49.0899L74.0874 47.5194C75.1459 46.3217 76.1212 45.1276 76.9899 43.9532H76.9898ZM70.0444 47.9767C70.1269 47.9729 70.2242 47.9798 70.3413 47.9962C70.81 48.0614 71.5518 48.3741 72.4234 49.1641L72.7592 49.4687L74.3217 50.8867C75.7279 52.1612 75.5523 53.1817 75.3139 53.4767C75.1947 53.6238 75.0483 53.7292 74.6342 53.6874C74.2202 53.6456 73.5437 53.3837 72.7279 52.6444L70.8295 50.9257C70.0239 50.1957 69.6458 49.5028 69.5245 49.0157C69.4033 48.5282 69.5089 48.2879 69.6108 48.1679C69.687 48.0779 69.7967 47.9876 70.0442 47.9767H70.0444ZM42.181 50.8986C41.6064 50.9026 40.9495 51.2679 40.689 52.6681C39.4848 61.2221 36.184 67.8143 30.8103 71.8243L30.81 75.1446C37.9085 70.7851 42.1708 62.7671 43.5523 52.8751C43.7177 51.4906 43.0632 51.0186 42.4194 50.9181C42.3419 50.9059 42.263 50.8981 42.181 50.8986ZM69.1579 52.5626C69.1917 52.5941 69.2249 52.6251 69.2594 52.6563L70.8923 54.1329C69.9729 54.994 69.0351 55.8353 68.0798 56.6563C67.6544 57.0206 67.226 57.3813 66.7944 57.7383L65.2673 55.9726C65.7023 55.6148 66.1339 55.2526 66.56 54.8868C67.4418 54.13 68.3079 53.355 69.1578 52.5626H69.1579ZM61.0875 55.9454C61.1908 55.9413 61.3225 55.9584 61.4938 56.0039C61.9513 56.1254 62.6535 56.5252 63.4238 57.4142L65.0994 59.3479C66.3419 60.7824 66.0473 61.7754 65.7752 62.0392C65.6393 62.1711 65.4782 62.2597 65.0722 62.1682C64.6662 62.0767 64.0272 61.7344 63.3065 60.9026L61.627 58.9688C60.9153 58.1471 60.6262 57.4163 60.5645 56.9181C60.5028 56.4197 60.6367 56.1889 60.752 56.0821C60.8095 56.0287 60.8799 55.9789 60.9942 55.9571C61.0229 55.9517 61.0537 55.9467 61.0879 55.9453L61.0875 55.9454ZM59.6345 60.2227C59.7083 60.3154 59.7839 60.4067 59.8612 60.4964L61.1969 62.0352C59.4652 63.2592 57.7189 64.3971 55.986 65.4182C55.9094 65.2867 55.8285 65.1577 55.7435 65.0314L54.6423 63.3908C56.2907 62.4358 57.967 61.3729 59.6343 60.2228L59.6345 60.2227ZM50.146 62.4613C50.262 62.4538 50.4188 62.4783 50.6383 62.5667C51.077 62.7437 51.7218 63.2263 52.3765 64.2036L53.8023 66.3323C54.8585 67.9092 54.4448 68.8582 54.1423 69.0864C53.991 69.2004 53.819 69.2662 53.4273 69.1254C53.0355 68.9847 52.4423 68.5673 51.8298 67.6529L50.4039 65.5279C49.7989 64.6246 49.6029 63.8619 49.603 63.3598C49.6033 62.8577 49.7605 62.6469 49.888 62.5551C49.9629 62.4991 50.0527 62.4664 50.146 62.4613ZM76.9548 66.1917C76.8223 66.1954 76.6852 66.2067 76.5405 66.2229C75.3834 66.3542 73.9368 66.9336 72.6068 67.9536C71.277 68.9736 70.342 70.2216 69.9155 71.3052C69.489 72.3887 69.5712 73.1783 69.935 73.6527C70.299 74.1272 71.0358 74.4087 72.1929 74.2777C72.4337 74.2506 72.6884 74.2027 72.9508 74.1372C72.5679 73.0772 72.6275 71.9972 73.0795 71.1372C73.7678 69.8279 75.1695 69.0457 76.6695 69.0903C77.3408 69.1101 77.9999 69.3187 78.603 69.6799C78.6836 69.5221 78.7566 69.3604 78.8218 69.1956C79.2483 68.1118 79.1662 67.3263 78.8023 66.8518C78.5294 66.4962 78.047 66.2461 77.3335 66.1996C77.2075 66.1911 77.0811 66.1885 76.9548 66.1917ZM76.4819 71.4262C75.904 71.4524 75.3738 71.7974 75.1499 72.2231C74.9128 72.6747 74.834 73.2412 75.6579 74.1843C79.0607 77.7574 84.3748 80.9206 90.1929 82.2193V79.0318C85.2802 77.7158 80.7033 75.0068 77.8804 72.0513C77.4192 71.5998 76.9842 71.4378 76.5992 71.4263C76.5604 71.4251 76.5207 71.4246 76.482 71.4263L76.4819 71.4262Z" fill="#4CAF50"/>
<mask id="path-3-inside-1_16_3731" fill="white">
<path fill-rule="evenodd" clip-rule="evenodd" d="M1.45332 46.8751C-0.429044 55.2717 -0.479597 63.9572 1.28356 72.3441C1.79423 74.7732 4.30472 76.1436 6.68882 75.4526C9.07213 74.7618 10.4238 72.2722 9.94793 69.8369C9.326 66.654 9.00011 63.3651 9.00011 60.0002C9.00011 31.8336 31.8336 9.00017 60.0001 9.00017C61.1926 9.00017 62.3754 9.04109 63.5474 9.12161C66.0241 9.29177 68.3268 7.63979 68.7167 5.18806C69.107 2.73421 67.434 0.410844 64.9578 0.205534C56.4184 -0.502499 47.8078 0.625574 39.7112 3.53482C30.2002 6.95227 21.7065 12.7168 15.0183 20.2935C8.33011 27.8702 3.66413 37.0136 1.45332 46.8751Z"/>
</mask>
<path fill-rule="evenodd" clip-rule="evenodd" d="M1.45332 46.8751C-0.429044 55.2717 -0.479597 63.9572 1.28356 72.3441C1.79423 74.7732 4.30472 76.1436 6.68882 75.4526C9.07213 74.7618 10.4238 72.2722 9.94793 69.8369C9.326 66.654 9.00011 63.3651 9.00011 60.0002C9.00011 31.8336 31.8336 9.00017 60.0001 9.00017C61.1926 9.00017 62.3754 9.04109 63.5474 9.12161C66.0241 9.29177 68.3268 7.63979 68.7167 5.18806C69.107 2.73421 67.434 0.410844 64.9578 0.205534C56.4184 -0.502499 47.8078 0.625574 39.7112 3.53482C30.2002 6.95227 21.7065 12.7168 15.0183 20.2935C8.33011 27.8702 3.66413 37.0136 1.45332 46.8751Z" fill="#C4C4C4"/>
<path d="M1.45332 46.8751L-7.3287 44.9063L1.45332 46.8751ZM39.7112 3.53482L36.6679 -4.93502V-4.93501L39.7112 3.53482ZM15.0183 20.2935L21.7656 26.2495L15.0183 20.2935ZM63.5474 9.12161L62.9306 18.1004L63.5474 9.12161ZM10.091 70.4925C8.59236 63.3637 8.63534 55.9809 10.2353 48.8439L-7.3287 44.9063C-9.49343 54.5624 -9.55155 64.5507 -7.52391 74.1957L10.091 70.4925ZM18.7809 68.1109C18.2695 65.4936 18.0001 62.7827 18.0001 60.0002H0.000109849C0.000109849 63.9475 0.382526 67.8144 1.11498 71.5629L18.7809 68.1109ZM18.0001 60.0002C18.0001 36.8042 36.8041 18.0002 60.0001 18.0002V0.000169428C26.863 0.000169428 0.000109849 26.8631 0.000109849 60.0002H18.0001ZM60.0001 18.0002C60.9866 18.0002 61.9637 18.034 62.9306 18.1004L64.1643 0.14278C62.7872 0.0481652 61.3985 0.000169428 60.0001 0.000169428V18.0002ZM42.7545 12.0047C49.6366 9.53181 56.9556 8.57293 64.2141 9.17476L65.7014 -8.76369C55.8811 -9.57793 45.979 -8.28066 36.6679 -4.93502L42.7545 12.0047ZM21.7656 26.2495C27.4505 19.8093 34.6702 14.9095 42.7545 12.0047L36.6679 -4.93501C25.7302 -1.00495 15.9625 5.62426 8.27104 14.3375L21.7656 26.2495ZM10.2353 48.8439C12.1145 40.4616 16.0806 32.6897 21.7656 26.2495L8.27104 14.3375C0.579613 23.0507 -4.78627 33.5655 -7.3287 44.9063L10.2353 48.8439ZM77.605 6.60154C78.7451 -0.567647 73.8451 -8.08847 65.7014 -8.76369L64.2141 9.17476C61.0229 8.91016 59.4688 6.03606 59.8284 3.77459L77.605 6.60154ZM9.19432 84.0968C16.5239 81.9723 20.0533 74.6227 18.7809 68.1109L1.11498 71.5629C0.794318 69.9218 1.6203 67.5512 4.18331 66.8083L9.19432 84.0968ZM62.9306 18.1004C69.5563 18.5557 76.4071 14.1346 77.605 6.60154L59.8284 3.77459C60.2466 1.145 62.492 0.0278831 64.1643 0.14278L62.9306 18.1004ZM-7.52391 74.1957C-5.84343 82.1893 2.22419 86.1171 9.19432 84.0968L4.18331 66.8083C6.38526 66.1701 9.43189 67.3571 10.091 70.4925L-7.52391 74.1957Z" fill="#4CAF50" mask="url(#path-3-inside-1_16_3731)"/>
</svg>
