<svg width="120" height="120" viewBox="0 0 120 120" fill="none" xmlns="http://www.w3.org/2000/svg">
<circle cx="60" cy="60.0002" r="55.5" fill="white" stroke="#F3F3F3" stroke-width="9"/>
<g clip-path="url(#clip0_16_3747)">
<path d="M58.6667 36.0002C61.2881 36.0004 63.8374 36.8587 65.9253 38.4438C68.0132 40.029 69.5248 42.2539 70.2294 44.7789L70.368 45.3256L75.3547 44.0802C75.7192 43.9895 76.0987 43.9768 76.4685 44.043C76.8382 44.1091 77.1898 44.2526 77.5002 44.4641C77.8106 44.6756 78.0729 44.9503 78.2697 45.2701C78.4666 45.59 78.5937 45.9478 78.6427 46.3202L78.6667 46.6669V51.4936C80.1701 52.935 81.4021 54.6349 82.304 56.5122L82.672 57.3336H84C84.6532 57.3337 85.2836 57.5735 85.7717 58.0075C86.2598 58.4415 86.5716 59.0396 86.648 59.6882L86.6667 60.0002V68.0002C86.6668 68.4392 86.5585 68.8713 86.3515 69.2583C86.1445 69.6454 85.8451 69.9753 85.48 70.2189L85.192 70.3842L82.0774 71.9442C80.8023 74.4111 78.9553 76.537 76.6907 78.1442L76 78.6082V81.3336C76 81.9867 75.7602 82.6171 75.3261 83.1052C74.8921 83.5933 74.294 83.9052 73.6454 83.9816L73.3334 84.0002H65.3334C64.6802 84.0002 64.0498 83.7604 63.5617 83.3263C63.0736 82.8923 62.7618 82.2943 62.6854 81.6456L62.6667 81.3336H60C60 81.9867 59.7602 82.6171 59.3261 83.1052C58.8921 83.5933 58.294 83.9052 57.6454 83.9816L57.3334 84.0002H49.3334C48.6802 84.0002 48.0498 83.7604 47.5617 83.3263C47.0736 82.8923 46.7618 82.2943 46.6854 81.6456L46.6667 81.3336V78.6082C44.7403 77.3766 43.0762 75.7765 41.7701 73.8997C40.464 72.0229 39.5417 69.9066 39.056 67.6722C37.4836 67.2042 36.0929 66.2644 35.0722 64.98C34.0515 63.6955 33.4501 62.1284 33.3494 60.4909L33.3334 60.0002V58.6669C33.3341 57.9872 33.5944 57.3335 34.061 56.8393C34.5276 56.345 35.1652 56.0476 35.8438 56.0078C36.5223 55.968 37.1904 56.1887 37.7116 56.625C38.2328 57.0612 38.5678 57.68 38.648 58.3549L38.6667 58.6669V60.0002C38.6667 60.3949 38.752 60.7709 38.9067 61.1069C39.3137 58.7061 40.2217 56.418 41.5716 54.3914C42.9214 52.3647 44.6829 50.6451 46.7414 49.3442C46.5522 47.6655 46.7195 45.9658 47.2325 44.3562C47.7455 42.7467 48.5926 41.2636 49.7183 40.0039C50.844 38.7443 52.223 37.7366 53.765 37.0466C55.307 36.3567 56.9774 36.0001 58.6667 36.0002ZM73.3334 50.0802L65.9787 51.9202L65.6587 51.9816L65.3334 52.0002H56C53.3037 51.9985 50.6853 52.9048 48.5671 54.5732C46.4489 56.2416 44.9543 58.5747 44.3243 61.1964C43.6943 63.8181 43.9656 66.5756 45.0944 69.0243C46.2233 71.4729 48.144 73.47 50.5467 74.6936C50.9338 74.8915 51.2667 75.1811 51.5163 75.5371C51.7659 75.8932 51.9246 76.3048 51.9787 76.7362L52 77.0669V78.6669H54.6667C54.6668 78.0138 54.9066 77.3833 55.3406 76.8953C55.7746 76.4072 56.3727 76.0953 57.0214 76.0189L57.3334 76.0002H65.3334C65.9865 76.0003 66.6169 76.2401 67.105 76.6742C67.5931 77.1082 67.905 77.7062 67.9814 78.3549L68 78.6669H70.6667V77.0669C70.6669 76.5759 70.8028 76.0944 71.0592 75.6756C71.3157 75.2568 71.6828 74.917 72.12 74.6936C74.567 73.4409 76.5127 71.3899 77.6347 68.8802C77.8347 68.4313 78.1549 68.0465 78.56 67.7682L78.8774 67.5816L81.3334 66.3522V62.6669H80.7814C80.2007 62.6667 79.636 62.477 79.173 62.1267C78.71 61.7763 78.374 61.2843 78.216 60.7256C77.549 58.3797 76.1835 56.2925 74.3014 54.7416C73.7792 54.3101 73.4407 53.6961 73.3547 53.0242L73.3334 52.6856V50.0829V50.0802ZM70.6667 57.3336C71.374 57.3336 72.0522 57.6145 72.5523 58.1146C73.0524 58.6147 73.3334 59.293 73.3334 60.0002C73.3334 60.7075 73.0524 61.3858 72.5523 61.8859C72.0522 62.386 71.374 62.6669 70.6667 62.6669C69.9595 62.6669 69.2812 62.386 68.7811 61.8859C68.281 61.3858 68 60.7075 68 60.0002C68 59.293 68.281 58.6147 68.7811 58.1146C69.2812 57.6145 69.9595 57.3336 70.6667 57.3336ZM58.6667 41.3336C57.0515 41.3336 55.4912 41.92 54.2758 42.9838C53.0604 44.0477 52.2726 45.5166 52.0587 47.1176C53.351 46.8175 54.6734 46.6663 56 46.6669H65.0054L65.192 46.6216C64.8758 45.1255 64.0549 43.7835 62.8668 42.8208C61.6788 41.858 60.1959 41.3329 58.6667 41.3336Z" fill="#4CAF50"/>
</g>
<mask id="path-3-inside-1_16_3747" fill="white">
<path fill-rule="evenodd" clip-rule="evenodd" d="M2.17098 44.0064C0.108388 51.4641 -0.488484 59.2363 0.397441 66.8949C0.682888 69.3625 3.05865 70.9588 5.49794 70.4894C7.93531 70.0203 9.51126 67.6655 9.26138 65.196C9.08853 63.4876 8.99998 61.7543 8.99998 60.0004C8.99998 31.8338 31.8335 9.00035 60 9.00035C88.1665 9.00035 111 31.8338 111 60.0004C111 64.5316 110.409 68.9248 109.3 73.1071C108.664 75.5057 109.848 78.0793 112.181 78.9253C114.514 79.7714 117.108 78.5695 117.777 76.1801C119.857 68.7545 120.489 60.9833 119.624 53.2925C118.591 44.1106 115.451 35.2912 110.45 27.5221C105.448 19.7529 98.7198 13.2439 90.7892 8.50243C82.8586 3.76096 73.9401 0.915165 64.729 0.186907C55.5179 -0.541351 46.263 0.867606 37.6859 4.30394C29.1087 7.74027 21.4412 13.1111 15.2809 19.9978C9.12055 26.8844 4.63401 35.1008 2.17098 44.0064Z"/>
</mask>
<path fill-rule="evenodd" clip-rule="evenodd" d="M2.17098 44.0064C0.108388 51.4641 -0.488484 59.2363 0.397441 66.8949C0.682888 69.3625 3.05865 70.9588 5.49794 70.4894C7.93531 70.0203 9.51126 67.6655 9.26138 65.196C9.08853 63.4876 8.99998 61.7543 8.99998 60.0004C8.99998 31.8338 31.8335 9.00035 60 9.00035C88.1665 9.00035 111 31.8338 111 60.0004C111 64.5316 110.409 68.9248 109.3 73.1071C108.664 75.5057 109.848 78.0793 112.181 78.9253C114.514 79.7714 117.108 78.5695 117.777 76.1801C119.857 68.7545 120.489 60.9833 119.624 53.2925C118.591 44.1106 115.451 35.2912 110.45 27.5221C105.448 19.7529 98.7198 13.2439 90.7892 8.50243C82.8586 3.76096 73.9401 0.915165 64.729 0.186907C55.5179 -0.541351 46.263 0.867606 37.6859 4.30394C29.1087 7.74027 21.4412 13.1111 15.2809 19.9978C9.12055 26.8844 4.63401 35.1008 2.17098 44.0064Z" fill="#C4C4C4"/>
<path d="M2.17098 44.0064L-6.50337 41.6073V41.6073L2.17098 44.0064ZM110.45 27.5221L102.882 32.3938L110.45 27.5221ZM90.7892 8.50243L86.1708 16.2271V16.2271L90.7892 8.50243ZM64.729 0.186907L64.0197 9.15891L64.729 0.186907ZM37.6859 4.30394L34.3387 -4.05051V-4.05051L37.6859 4.30394ZM15.2809 19.9978L21.9887 25.9981L15.2809 19.9978ZM109.3 73.1071L117.999 75.4139L109.3 73.1071ZM117.777 76.1801L109.111 73.7531L117.777 76.1801ZM9.26138 65.196L0.307105 66.102L9.26138 65.196ZM9.33782 65.8607C8.58479 59.3509 9.09214 52.7445 10.8453 46.4054L-6.50337 41.6073C-8.87536 50.1837 -9.56175 59.1218 -8.54294 67.9291L9.33782 65.8607ZM18.2157 64.29C18.0732 62.8821 18 61.4512 18 60.0004H-1.71094e-05C-1.71094e-05 62.0574 0.103836 64.0931 0.307105 66.102L18.2157 64.29ZM18 60.0004C18 36.8044 36.804 18.0004 60 18.0004V0.000350026C26.8629 0.000350026 -1.71094e-05 26.8633 -1.71094e-05 60.0004H18ZM60 18.0004C83.1959 18.0004 102 36.8044 102 60.0004H120C120 26.8633 93.1371 0.000350026 60 0.000350026V18.0004ZM102 60.0004C102 63.746 101.512 67.3641 100.601 70.8004L117.999 75.4139C119.306 70.4855 120 65.3171 120 60.0004H102ZM110.68 54.2987C111.416 60.8358 110.878 67.4413 109.111 73.7531L126.444 78.607C128.835 70.0676 129.562 61.1308 128.567 52.2864L110.68 54.2987ZM102.882 32.3938C107.134 38.9976 109.802 46.494 110.68 54.2987L128.567 52.2864C127.38 41.7271 123.769 31.5849 118.017 22.6504L102.882 32.3938ZM86.1708 16.2271C92.9118 20.2574 98.6309 25.79 102.882 32.3938L118.017 22.6504C112.265 13.7158 104.528 6.23046 95.4076 0.777761L86.1708 16.2271ZM64.0197 9.15891C71.8491 9.77793 79.4298 12.1969 86.1708 16.2271L95.4076 0.777763C86.2874 -4.67494 76.0312 -7.9476 65.4384 -8.7851L64.0197 9.15891ZM41.033 12.6584C48.3235 9.7375 56.1902 8.53989 64.0197 9.15891L65.4384 -8.7851C54.8456 -9.62259 44.2024 -8.00229 34.3387 -4.05051L41.033 12.6584ZM21.9887 25.9981C27.225 20.1445 33.7424 15.5793 41.033 12.6584L34.3387 -4.05051C24.4751 -0.0987279 15.6573 6.07775 8.57298 13.9974L21.9887 25.9981ZM10.8453 46.4055C12.9389 38.8357 16.7525 31.8518 21.9887 25.9981L8.57298 13.9974C1.48864 21.9171 -3.67089 31.3659 -6.50337 41.6073L10.8453 46.4055ZM100.601 70.8004C98.8999 77.2143 101.936 84.7834 109.113 87.3861L115.25 70.4646C117.76 71.3752 118.428 73.7972 117.999 75.4139L100.601 70.8004ZM109.113 87.3861C115.934 89.8601 124.241 86.4718 126.444 78.607L109.111 73.7531C109.975 70.6672 113.094 69.6827 115.25 70.4646L109.113 87.3861ZM7.19881 79.3272C14.6897 77.8855 18.8839 70.8947 18.2157 64.29L0.307105 66.102C0.138561 64.4363 1.18088 62.155 3.79706 61.6516L7.19881 79.3272ZM-8.54294 67.9291C-7.60402 76.0458 0.0710051 80.699 7.19881 79.3272L3.79706 61.6516C6.04629 61.2187 8.96979 62.6792 9.33782 65.8607L-8.54294 67.9291Z" fill="#4CAF50" mask="url(#path-3-inside-1_16_3747)"/>
<defs>
<clipPath id="clip0_16_3747">
<rect width="64" height="64" fill="white" transform="translate(28 28.0002)"/>
</clipPath>
</defs>
</svg>
