<svg width="120" height="120" viewBox="0 0 120 120" fill="none" xmlns="http://www.w3.org/2000/svg">
<circle cx="60" cy="60.0002" r="55.5" fill="white" stroke="#F3F3F3" stroke-width="9"/>
<path d="M52 59.3336C51.116 59.3336 50.2681 59.6848 49.643 60.3099C49.0179 60.935 48.6667 61.7829 48.6667 62.667C48.6667 63.551 49.0179 64.3989 49.643 65.024C50.2681 65.6491 51.116 66.0003 52 66.0003C52.4378 66.0003 52.8712 65.9141 53.2757 65.7465C53.6801 65.579 54.0475 65.3335 54.3571 65.024C54.6666 64.7144 54.9121 64.347 55.0796 63.9426C55.2472 63.5381 55.3334 63.1047 55.3334 62.667C55.3334 62.2292 55.2472 61.7958 55.0796 61.3913C54.9121 60.9869 54.6666 60.6195 54.3571 60.3099C54.0475 60.0004 53.6801 59.7549 53.2757 59.5874C52.8712 59.4198 52.4378 59.3336 52 59.3336ZM68 59.3336C67.116 59.3336 66.2681 59.6848 65.643 60.3099C65.0179 60.935 64.6667 61.7829 64.6667 62.667C64.6667 63.551 65.0179 64.3989 65.643 65.024C66.2681 65.6491 67.116 66.0003 68 66.0003C68.8841 66.0003 69.7319 65.6491 70.3571 65.024C70.9822 64.3989 71.3334 63.551 71.3334 62.667C71.3334 61.7829 70.9822 60.935 70.3571 60.3099C69.7319 59.6848 68.8841 59.3336 68 59.3336ZM60 33.3336C56.4981 33.3336 53.0305 34.0234 49.7951 35.3635C46.5598 36.7036 43.6201 38.6679 41.1439 41.1441C36.1429 46.1451 33.3334 52.9278 33.3334 60.0003C33.3334 67.0727 36.1429 73.8555 41.1439 78.8565C43.6201 81.3327 46.5598 83.2969 49.7951 84.6371C53.0305 85.9772 56.4981 86.6669 60 86.6669C67.0725 86.6669 73.8552 83.8574 78.8562 78.8565C83.8572 73.8555 86.6667 67.0727 86.6667 60.0003C86.6667 56.4984 85.977 53.0307 84.6368 49.7954C83.2967 46.56 81.3324 43.6203 78.8562 41.1441C76.38 38.6679 73.4403 36.7036 70.2049 35.3635C66.9696 34.0234 63.502 33.3336 60 33.3336ZM60 81.3336C48.24 81.3336 38.6667 71.7603 38.6667 60.0003C38.6667 59.2269 38.6667 58.4536 38.8 57.707C45.0934 54.907 50.08 49.7603 52.6934 43.387C55.7421 47.7133 60.0122 51.0317 64.9574 52.9177C69.9026 54.8036 75.298 55.1712 80.4534 53.9736C81.0134 55.8669 81.3334 57.8936 81.3334 60.0003C81.3334 71.7603 71.76 81.3336 60 81.3336Z" fill="#4CAF50"/>
<mask id="path-3-inside-1_16_3739" fill="white">
<path fill-rule="evenodd" clip-rule="evenodd" d="M77.643 2.65283C66.6245 -0.737016 54.8947 -0.871892 43.8522 2.21398C41.4624 2.88182 40.2589 5.47549 41.1037 7.80865C41.9485 10.1419 44.5214 11.3277 46.9203 10.693C51.0945 9.58864 55.4786 9.00025 60.0001 9.00025C88.1666 9.00025 111 31.8337 111 60.0002C111 88.1668 88.1666 111 60.0001 111C31.8335 111 9.00007 88.1668 9.00007 60.0002C9.00007 59.6801 9.00302 59.3607 9.0089 59.0419C9.05465 56.5589 7.28698 54.3422 4.81768 54.0771C2.34625 53.8118 0.109915 55.6014 0.0305711 58.0858C-0.335336 69.5428 2.589 80.9002 8.50392 90.7922C15.191 101.976 25.3369 110.678 37.4081 115.584C49.4793 120.491 62.8195 121.334 75.4125 117.987C88.0054 114.64 99.1665 107.284 107.209 97.032C115.251 86.7798 119.737 74.1881 119.989 61.1604C120.241 48.1327 116.245 35.377 108.605 24.8215C100.965 14.266 90.0971 6.48433 77.643 2.65283Z"/>
</mask>
<path fill-rule="evenodd" clip-rule="evenodd" d="M77.643 2.65283C66.6245 -0.737016 54.8947 -0.871892 43.8522 2.21398C41.4624 2.88182 40.2589 5.47549 41.1037 7.80865C41.9485 10.1419 44.5214 11.3277 46.9203 10.693C51.0945 9.58864 55.4786 9.00025 60.0001 9.00025C88.1666 9.00025 111 31.8337 111 60.0002C111 88.1668 88.1666 111 60.0001 111C31.8335 111 9.00007 88.1668 9.00007 60.0002C9.00007 59.6801 9.00302 59.3607 9.0089 59.0419C9.05465 56.5589 7.28698 54.3422 4.81768 54.0771C2.34625 53.8118 0.109915 55.6014 0.0305711 58.0858C-0.335336 69.5428 2.589 80.9002 8.50392 90.7922C15.191 101.976 25.3369 110.678 37.4081 115.584C49.4793 120.491 62.8195 121.334 75.4125 117.987C88.0054 114.64 99.1665 107.284 107.209 97.032C115.251 86.7798 119.737 74.1881 119.989 61.1604C120.241 48.1327 116.245 35.377 108.605 24.8215C100.965 14.266 90.0971 6.48433 77.643 2.65283Z" fill="#C4C4C4"/>
<path d="M77.643 2.65283L74.9966 11.2549V11.2549L77.643 2.65283ZM8.50392 90.7922L16.2283 86.1734H16.2283L8.50392 90.7922ZM37.4081 115.584L34.0193 123.922L37.4081 115.584ZM75.4125 117.987L73.1006 109.289H73.1006L75.4125 117.987ZM107.209 97.032L114.29 102.587L107.209 97.032ZM108.605 24.8215L115.896 19.5447V19.5447L108.605 24.8215ZM9.0089 59.0419L0.0104235 58.8761L9.0089 59.0419ZM46.9203 10.693L44.6184 1.9924L46.9203 10.693ZM46.2745 10.8819C55.6605 8.25891 65.6309 8.3736 74.9966 11.2549L80.2894 -5.94929C67.6181 -9.84763 54.1288 -10.0027 41.4299 -6.45392L46.2745 10.8819ZM49.2223 19.3937C52.6519 18.4863 56.2624 18.0002 60.0001 18.0002V0.000246985C54.6948 0.000246985 49.5372 0.691014 44.6184 1.9924L49.2223 19.3937ZM60.0001 18.0002C83.196 18.0002 102 36.8043 102 60.0002H120C120 26.8632 93.1372 0.000246985 60.0001 0.000246985V18.0002ZM102 60.0002C102 83.1962 83.196 102 60.0001 102V120C93.1372 120 120 93.1373 120 60.0002H102ZM60.0001 102C36.8041 102 18.0001 83.1962 18.0001 60.0002H7.24635e-05C7.24635e-05 93.1373 26.863 120 60.0001 120V102ZM18.0001 60.0002C18.0001 59.7354 18.0025 59.4712 18.0074 59.2078L0.0104235 58.8761C0.00353149 59.2501 7.24635e-05 59.6248 7.24635e-05 60.0002H18.0001ZM16.2283 86.1734C11.2007 77.7653 8.71497 68.1114 9.02598 58.3731L-8.96484 57.7985C-9.38564 70.9741 -6.02271 84.0351 0.779497 95.411L16.2283 86.1734ZM40.7969 107.247C30.5364 103.076 21.9124 95.6793 16.2283 86.1734L0.779496 95.411C8.46963 108.272 20.1374 118.28 34.0193 123.922L40.7969 107.247ZM73.1006 109.289C62.3966 112.134 51.0574 111.417 40.7969 107.247L34.0193 123.922C47.9012 129.564 63.2425 130.534 77.7243 126.685L73.1006 109.289ZM100.127 91.4772C93.2915 100.192 83.8046 106.444 73.1006 109.289L77.7243 126.685C92.2062 122.836 105.041 114.377 114.29 102.587L100.127 91.4772ZM110.991 60.9864C110.776 72.06 106.963 82.7628 100.127 91.4772L114.29 102.587C123.538 90.7967 128.697 76.3163 128.987 61.3344L110.991 60.9864ZM101.314 30.0983C107.808 39.0705 111.205 49.9128 110.991 60.9864L128.987 61.3344C129.277 46.3526 124.682 31.6835 115.896 19.5447L101.314 30.0983ZM74.9966 11.2549C85.5826 14.5117 94.8206 21.1261 101.314 30.0983L115.896 19.5447C107.11 7.40582 94.6117 -1.54306 80.2894 -5.94929L74.9966 11.2549ZM5.7782 45.1285C-1.44085 44.3536 -8.70397 49.6303 -8.96484 57.7985L9.02598 58.3731C8.9238 61.5725 6.13334 63.27 3.85716 63.0257L5.7782 45.1285ZM18.0074 59.2078C18.1299 52.5607 13.3619 45.9425 5.7782 45.1285L3.85716 63.0257C1.21205 62.7418 -0.0205521 60.557 0.0104235 58.8761L18.0074 59.2078ZM32.6413 10.8725C35.24 18.0502 42.8074 21.0909 49.2223 19.3937L44.6184 1.9924C46.2353 1.5646 48.6569 2.23358 49.5661 4.74476L32.6413 10.8725ZM41.4299 -6.45392C33.5644 -4.25587 30.1709 4.04936 32.6413 10.8725L49.5661 4.74476C50.347 6.90163 49.3604 10.0195 46.2745 10.8819L41.4299 -6.45392Z" fill="#4CAF50" mask="url(#path-3-inside-1_16_3739)"/>
</svg>
